<svg version="1.1" xmlns="http://www.w3.org/2000/svg" style="display: block;" viewBox="0 0 2048 2048" width="1024" height="1024" preserveAspectRatio="none">
<path transform="translate(0,0)" fill="rgb(1,1,1)" d="M 1028.61 953.68 C 1031.47 937.141 1033.32 914.604 1035.23 897.414 L 1047.92 781.794 C 1063.28 650.985 1077.91 520.092 1091.83 389.122 C 1093.71 372.052 1104.26 264.521 1107.8 257.397 L 1109.23 257.254 C 1111.84 265.063 1108.2 279.728 1107.27 287.801 L 1101.57 339.406 L 1089.3 452.256 L 1064.35 680.023 C 1053.49 771.77 1043.23 863.588 1033.59 955.47 L 1035.21 956.148 C 1043.46 910.573 1055.22 863.099 1064.73 817.623 C 1066.66 808.414 1068.8 790.113 1072.78 782.666 L 1074.24 782.939 C 1075.59 796.245 1066.25 831.067 1063.01 846.619 L 1039.85 957.673 L 1041.03 958.034 C 1043.58 951.496 1046.29 941.147 1048.34 934.177 L 1184.46 503.844 L 1213.61 411.855 C 1217.34 400.303 1221.67 380.552 1227.42 370.986 L 1228.82 370.908 C 1229.8 378.37 1218.69 410.042 1215.78 419.488 L 1187.71 509.222 L 1090.47 811.639 C 1077.98 851.464 1066.87 892.537 1054.73 932.684 C 1052.08 941.892 1040.54 975.898 1039.89 983.521 L 1041.15 984.101 C 1047.49 959.175 1071.87 920.903 1081.98 895.579 C 1108.37 829.457 1140.15 764.922 1169.68 700.036 L 1295.26 421.03 C 1305.76 397.51 1326.8 348.868 1339.63 323.776 C 1340.24 323.482 1340.85 323.188 1341.46 322.894 L 1342.27 324.157 C 1341.28 331.742 1327.01 361.371 1323.22 369.751 L 1298.4 425.483 L 1136.42 783.608 C 1107.6 846.669 1080.74 914.592 1050.36 975.709 C 1053.69 973.729 1068.54 948.59 1071.85 943.324 C 1170 789.332 1265.4 633.601 1357.99 476.204 C 1365.14 464.2 1420.7 369.788 1424.02 367.906 L 1425.73 368.309 C 1426.12 370.877 1426.44 370.331 1425.01 372.879 C 1411.7 396.695 1396.84 420.251 1382.92 443.548 L 1294.97 590.52 C 1240.53 682.209 1185.1 773.307 1128.69 863.798 C 1112.02 890.138 1093.56 921.355 1076.32 946.558 C 1072.05 953.346 1059.45 972.224 1056.32 978.453 L 1054.83 979.646 C 1056.18 982.771 1056.04 982.904 1058.66 985.266 C 1060.66 984.572 1063.68 978.996 1065.21 976.689 C 1071.53 972.421 1096.36 944.004 1103.75 936.244 C 1117.42 920.143 1139.41 898.666 1154.68 882.494 L 1260.22 769.346 L 1446.4 564.778 C 1469.35 539.516 1492.21 514.12 1515.57 489.237 C 1523.59 480.686 1535.09 464.861 1545.72 460.005 C 1545.46 463.487 1536.95 472.644 1534.42 475.498 C 1430.62 590.591 1326.22 705.132 1221.2 819.118 C 1192.56 850.11 1163.56 880.766 1134.2 911.079 C 1129.42 916.018 1112.99 935.626 1108.17 937.883 L 1107.74 940.732 C 1134.97 917.652 1162.23 890.274 1188.55 865.996 C 1272.25 787.61 1354.72 707.927 1435.94 626.977 C 1471.22 591.704 1506.77 556.925 1542.78 522.382 C 1551.64 513.883 1567.11 494.534 1578.67 490.749 C 1579.94 496.496 1546.48 524.356 1540.97 529.789 L 1444.4 624.936 C 1437.77 631.382 1431.83 638.699 1425.28 645.145 C 1346.59 723.209 1266.71 800.059 1185.65 875.667 L 1136.03 922.43 C 1131.04 927.124 1117.46 940.348 1112.74 943.674 C 1106.23 948.744 1094.59 960.713 1088.59 966.918 C 1082.65 970.834 1075.87 976.979 1071.3 982.406 C 1076.86 980.013 1084.46 972.774 1089.15 968.603 L 1091.64 967.317 L 1097.1 970.634 C 1091.84 974.414 1074.23 986.53 1071.31 990.556 C 1078.59 986.541 1085.83 981.471 1092.78 976.822 C 1106.01 968.263 1225.93 895.921 1229.45 890.622 C 1230.32 885.996 1229.55 886.335 1234.03 883.271 C 1331.03 817.289 1427.63 750.712 1523.82 683.543 C 1540.65 671.878 1649.39 593.77 1661.55 590.241 L 1662.3 590.898 C 1657.33 599.445 1592.6 641.645 1579.48 650.814 L 1295.65 847.448 C 1278.01 859.669 1260.26 871.729 1242.41 883.626 C 1241.23 884.4 1232.82 889.868 1232.81 889.832 C 1233.45 893.102 1233.85 894.839 1229.49 897.5 C 1209.38 909.776 1188.65 923.71 1168.47 935.653 C 1146.5 948.659 1122.7 965.78 1101.2 978.169 C 1092.25 984.037 1068.75 996.877 1063.13 1001.26 C 1066.75 1001.18 1073.94 996.968 1077.79 995.058 L 1082.12 999.289 C 1076.94 1001.33 1067.03 1004.65 1063.51 1008.28 C 1067.22 1008.01 1080.91 1003.62 1085 1002.38 C 1120.51 993.196 1161.37 980.214 1197.51 970.151 C 1282.71 947.116 1367.7 923.286 1452.46 898.666 L 1652.97 839.989 C 1667.92 835.602 1754.17 808.763 1763.26 809.785 L 1763.12 810.983 C 1753.91 817 1670.66 839.615 1654.53 844.325 C 1529.56 881.273 1404.36 917.432 1278.93 952.8 C 1229.22 966.64 1179.13 979.591 1129.73 994.536 C 1123.09 996.543 1093.49 1004.46 1088.36 1007.37 L 1089.47 1008.48 C 1123.39 1000.14 1162.32 993.5 1196.87 986.394 C 1212.19 983.241 1248.87 975.268 1263 973.795 L 1264.75 975.815 L 1266.2 974.111 L 1264.69 973.73 L 1266.01 974.914 C 1258.94 981.07 1222.29 985.826 1211.67 987.921 L 1127.18 1005.26 C 1118.57 1006.98 1097.34 1010.55 1089.71 1012.85 C 1086.05 1012.58 1080.22 1013.32 1076.57 1014.03 L 1076.86 1016.12 C 1080.95 1016.82 1081.97 1016.44 1086.17 1015.77 L 1090.18 1014.31 C 1130.82 1009.19 1174.5 1005.68 1215.59 1001.09 L 1497.22 968.69 L 1685.46 946.879 C 1715.08 943.428 1744.92 939.903 1774.55 936.368 C 1778.38 935.911 1787.36 936.373 1790.53 938.491 C 1783.2 940.208 1768.02 941.641 1759.87 942.62 C 1741.42 945.023 1722.93 947.164 1704.41 949.041 C 1672.12 952.341 1638.49 956.919 1606.04 960.672 L 1265.04 1000.01 L 1149.71 1012.73 C 1131.25 1014.73 1109.19 1016.46 1091.25 1019.15 C 1087.49 1019.53 1084.04 1019.26 1081.31 1021.18 C 1086.69 1023.08 1178.69 1022.06 1190.18 1022.06 L 1619.95 1022.06 C 1637.63 1022.06 1787.83 1020.63 1795.5 1023.63 C 1788.55 1027.66 1737.7 1025.98 1726.76 1025.98 L 1599.95 1025.96 L 1217.29 1025.96 L 1139.77 1025.98 C 1130.89 1025.98 1109.73 1025.41 1101.57 1026.16 C 1093.54 1025.81 1085.12 1026.09 1077.05 1026.24 L 1078.93 1028.24 C 1083.23 1028.26 1086.84 1028.29 1091.14 1028.62 C 1107.04 1032.09 1133.55 1033.42 1150.49 1035.28 L 1274.81 1049.27 L 1668.3 1094.79 C 1683.71 1096.57 1779.45 1105.74 1789.11 1110.35 L 1788.65 1111.09 L 1787.79 1111.27 L 1787.51 1110.02 L 1786.32 1111.43 C 1774.33 1111.86 1751.7 1108.72 1738.89 1107.33 L 1642.18 1096.3 L 1260.66 1052.15 L 1148.96 1039.57 C 1133.75 1037.89 1102.72 1033.74 1088.65 1033.78 C 1096.79 1040.13 1243.49 1062.68 1266.81 1072.45 L 1266.89 1073.33 C 1262.81 1074.01 1258.65 1074.05 1254.56 1073.46 C 1243.9 1072.03 1226.81 1067.52 1215.34 1065.28 C 1182.9 1058.97 1150.5 1052.41 1118.16 1045.6 C 1111.97 1044.32 1092.41 1039.62 1087.76 1040.56 C 1166.77 1066.1 1247.88 1086.35 1327.78 1108.85 L 1674.12 1209.59 C 1684.48 1212.65 1760.66 1234.36 1763.54 1236.79 L 1762.92 1238.15 C 1755.5 1240.12 1736.52 1232.61 1728.33 1230.21 L 1671.82 1213.66 L 1557.83 1180.21 C 1437.33 1144.22 1316.32 1109.92 1194.84 1077.33 C 1156.4 1066.85 1116.79 1053.58 1078.74 1044.18 C 1075.62 1043.06 1067.8 1040.04 1065.01 1040.72 C 1065.3 1040.92 1065.6 1041.12 1065.9 1041.32 C 1116.77 1067.83 1169.59 1087.36 1221.94 1110.35 C 1295.01 1143.14 1367.72 1176.72 1440.07 1211.06 L 1514.89 1246.08 C 1522.47 1249.59 1560.27 1265.58 1562.68 1270.82 C 1557.44 1273.28 1533.61 1260.07 1527.86 1257.32 L 1487.19 1238.34 L 1326.52 1163 C 1265.74 1134.99 1205.41 1107.4 1143.07 1083.07 C 1119.58 1073.9 1089.82 1059.24 1067.29 1047.41 L 1070.05 1050.59 L 1181.07 1120.96 C 1196.09 1130.52 1220.77 1144.35 1234.05 1154.69 C 1233.32 1156.62 1233.89 1155.7 1232.14 1157.35 C 1233.59 1159.48 1284.5 1193.19 1290.14 1197.05 L 1493.2 1337.14 L 1606.01 1414.43 C 1615.35 1420.86 1655.16 1446.86 1660.14 1453.55 L 1659.69 1455.17 C 1658.86 1455.24 1658.03 1455.31 1657.2 1455.38 C 1631.68 1438.13 1594.65 1412.8 1570.66 1396.26 L 1285.33 1199.75 C 1269.05 1188.48 1246.89 1173.74 1229.84 1162.39 C 1227.03 1160.52 1232.15 1159.11 1226.97 1155.71 C 1216 1148.53 1204.82 1141.46 1193.78 1134.45 C 1169.1 1118.73 1144.33 1103.15 1119.47 1087.74 C 1112.95 1083.64 1076.48 1059.46 1071.19 1058.04 C 1075.75 1062.91 1096.55 1077.46 1103.13 1082.49 C 1127.85 1101.44 1152.71 1120.22 1177.71 1138.82 C 1189.73 1147.71 1210.75 1162.06 1221.44 1171.47 C 1225.64 1171.34 1229.97 1174.8 1233.35 1177.31 C 1265.7 1201.24 1297.86 1225.87 1329.74 1250.43 L 1468.39 1357.03 L 1557.34 1425.67 C 1565.02 1431.58 1600.17 1456.05 1602.2 1463 C 1594.22 1462.3 1577.52 1446.69 1548.89 1424.97 C 1442.02 1343.91 1329.53 1255.48 1221.71 1174.47 C 1221.87 1174.59 1218.33 1175.38 1218.44 1175.36 L 1216.7 1173.91 C 1209.7 1167.42 1187.69 1152.03 1178.49 1145.24 L 1108.13 1093.07 C 1098.5 1086.06 1079.51 1069.95 1071.22 1064.96 C 1072.13 1067.58 1136.94 1126.31 1144.02 1133 L 1442.23 1416.83 L 1529.65 1500.64 C 1536.31 1507.05 1579.49 1545.67 1581.16 1551.89 C 1578.49 1551.91 1574.72 1549.81 1572.82 1548.04 C 1419.1 1404.26 1269.82 1254.37 1114.19 1112.75 C 1111.69 1110.14 1110.01 1107.74 1106.64 1106.73 C 1107.15 1109.33 1110.11 1111.73 1112.38 1113.64 C 1121.06 1123.6 1130.08 1132.12 1138.83 1141.73 C 1172.09 1178.27 1206.58 1213.57 1240.61 1249.39 L 1470.32 1492.54 C 1484.06 1507.24 1545.54 1569.01 1551.4 1581.62 L 1550.25 1582.46 C 1542.59 1578.88 1457.9 1486.26 1446.17 1473.82 L 1306.75 1326.18 C 1262.49 1279.71 1216.84 1233.21 1173.07 1186.37 L 1112.78 1121.53 C 1104.88 1112.96 1074.17 1079.32 1065.45 1073.14 C 1070.57 1081.32 1081.27 1092.51 1087.67 1101.3 C 1116.65 1140.49 1145.95 1179.46 1175.56 1218.18 C 1175.1 1220.55 1175.49 1219.4 1173.26 1221.47 C 1186.2 1231.71 1215.34 1273.93 1227.21 1289.47 L 1354.9 1456.92 L 1417.36 1538.76 C 1421.84 1544.68 1449.56 1579.31 1448.07 1584.53 C 1440.47 1580.56 1404.05 1529.51 1396.14 1519.04 L 1321.61 1421.12 C 1273.43 1357.54 1224.37 1294.22 1175.99 1230.76 C 1172 1225.52 1173.6 1225.48 1171.08 1220.74 C 1170.05 1218.8 1165.36 1212.69 1163.86 1210.7 L 1057.88 1070.65 L 1056.58 1070.77 L 1130.59 1188.28 C 1137.9 1199.93 1154.59 1220.38 1156.76 1233.69 L 1155.61 1233.81 C 1149.48 1227.62 1133.79 1201.91 1127.88 1192.67 L 1073.52 1107.06 C 1066.93 1096.74 1057.75 1081.28 1050.92 1071.64 L 1050 1071.7 C 1059.98 1095.96 1072.59 1119.64 1083.18 1143.6 C 1087.78 1154.02 1091.35 1165.73 1096.01 1176.53 C 1117.69 1226.05 1139.87 1275.36 1162.55 1324.43 L 1251.13 1514.87 C 1255.03 1523.47 1272.22 1556.83 1272.78 1563.61 L 1271.24 1565.25 C 1266.86 1563.2 1260.71 1546.15 1258.09 1540.72 C 1243.05 1509.33 1228.34 1477.78 1213.98 1446.08 C 1170.12 1351.67 1124.32 1257.62 1084.69 1161.32 C 1071.49 1129.26 1056.26 1098.55 1041.84 1067.03 L 1039.96 1064.05 C 1040.95 1071.65 1047.11 1089.3 1049.47 1097.97 C 1054.74 1113.05 1058.66 1131.09 1063.52 1146.61 C 1082.24 1206.33 1096.75 1267.18 1113.78 1327.35 L 1196.55 1622.82 C 1205.42 1654.78 1214.83 1686.72 1223.12 1718.85 C 1225.07 1726.4 1236.41 1758.56 1233.62 1764.39 L 1231.9 1763.68 C 1228.59 1757.76 1214.64 1705.81 1211.88 1695.77 L 1173.3 1557 L 1041.41 1089.74 C 1040.99 1089.65 1040.57 1089.56 1040.16 1089.46 C 1039.73 1093.1 1044.59 1111.51 1046.08 1119.26 C 1055.23 1166.67 1066.71 1215.31 1074.52 1262.84 C 1074.75 1264.25 1074.31 1264.24 1072.73 1265.49 C 1068.91 1262.64 1061.07 1216.59 1059.63 1209.42 L 1040.3 1116.6 C 1039.45 1112.5 1036.01 1091.77 1034.5 1089.96 C 1033.34 1101.21 1036.7 1124.29 1037.99 1136.22 L 1048.12 1225.61 L 1089.93 1592.36 C 1092.6 1619.08 1095.42 1645.79 1098.38 1672.49 C 1099.92 1685.56 1101.72 1700.15 1103.06 1713.39 C 1103.26 1715.37 1101.82 1718.05 1100.86 1719.89 L 1100.33 1720.24 C 1097.8 1715.98 1065.96 1416.36 1062.25 1383.95 L 1040.31 1198.69 L 1032.62 1126.77 C 1031.92 1120.05 1030.08 1098.65 1028.66 1093.23 C 1028.77 1090.34 1028.19 1084.93 1027.95 1081.85 L 1027.82 1081.4 L 1027.03 1081.56 L 1021.4 1082.89 L 1020.24 1083.48 L 1020.02 1088.14 L 972.159 1508.01 L 957.424 1643.03 C 955.931 1657.02 951.437 1709.26 947.389 1719.57 C 946.036 1718.9 946.309 1719.38 945.936 1718.19 C 944.023 1712.07 952.412 1649.13 953.608 1638.15 C 966.182 1522.65 978.243 1407.02 992.327 1291.7 C 998.393 1242.85 1003.95 1193.94 1009.01 1144.97 C 1010.31 1132.21 1014.57 1102.91 1014.16 1091.31 C 1006.4 1101.08 982.535 1258.02 975.917 1265.53 C 974.625 1263.95 973.544 1261.67 973.933 1259.58 C 982.659 1212.79 992.44 1166.13 1002.1 1119.51 C 1003.51 1112.69 1008.16 1093.01 1007.76 1087.4 C 1007.7 1082.69 1008.2 1077.69 1006.13 1073.68 C 1006.48 1069.47 1008.44 1069.48 1007.51 1063.19 C 1001.11 1081.58 990.539 1100.59 982.149 1118.31 C 975.61 1132.13 969.844 1144.9 964.066 1159.06 C 923.581 1258.26 876.893 1354.93 831.542 1451.98 C 822.393 1471.33 813.345 1490.73 804.397 1510.18 C 799.715 1520.49 782.79 1560.76 776.613 1565.35 L 775.536 1564.61 C 776.173 1556.97 790.578 1528.87 794.751 1519.76 C 810.546 1485.25 826.567 1450.84 842.813 1416.54 C 875.896 1347.05 907.867 1277.04 938.713 1206.53 C 952.584 1174.67 964.387 1142.39 979.757 1111.21 C 986.867 1096.79 992.775 1081.34 1000.56 1067.3 L 997.176 1069.93 C 989.699 1086.27 974.716 1104.68 965.651 1120.43 C 943.617 1158.71 914.278 1196.65 893.96 1235.59 L 892.468 1235.89 L 889.53 1233.27 C 887.277 1233.23 887.253 1234.87 885.203 1238.01 C 866.41 1266.74 846.742 1294.97 827.335 1323.29 L 722.599 1476.32 L 633.013 1608 C 627.458 1616.1 602.24 1657.89 595.077 1659.96 L 594.202 1658.57 C 597.383 1649.3 883.838 1230.88 886.632 1228.86 C 888.546 1229.65 888.141 1229.54 890.237 1229.97 C 899.467 1217.33 988.724 1075.1 989.087 1073.14 L 987.993 1073.55 C 982.579 1081.4 976.461 1088.12 970.884 1095.64 L 915.705 1168.8 C 904.671 1183.54 893.461 1198.46 882.756 1213.42 C 877.464 1220.82 873.159 1228.61 867.582 1236.16 C 818.644 1301.26 769.332 1366.08 719.648 1430.61 C 682.307 1479.73 644.901 1529.02 607.582 1578.17 C 605.717 1580.62 602.185 1585.22 599.274 1586 L 598.502 1585 C 598.724 1579.69 640.754 1526.51 647.289 1517.84 L 783.9 1338.33 L 841.069 1263.34 C 850.079 1251.45 863.912 1231.32 873.933 1221.86 L 874.783 1221.07 L 873.809 1217.11 C 881.866 1204.61 897.96 1184.39 907.23 1172.04 L 984.779 1069.56 C 980 1072.95 955.507 1100.16 948.899 1106.91 C 886.752 1175.61 818.865 1244.75 755.115 1312.28 L 506.814 1575.9 C 504.501 1578.31 501.487 1581.85 498.316 1582.39 L 497.291 1581.21 C 499.878 1573.08 520.249 1554.64 527.331 1547.07 L 590.424 1479.85 L 849.024 1205.55 L 904.298 1147.37 C 910.251 1141.03 923.751 1127.47 928.204 1121.18 C 932.42 1117.3 939.928 1109.9 942.924 1105.33 C 937.865 1108.05 931.212 1115 927.344 1119.38 C 922.445 1122.76 909.209 1135.88 903.941 1140.73 L 841.716 1199.03 L 566.93 1460.91 C 540.684 1486.08 499.425 1525.98 471.692 1552.34 C 471.061 1552.47 470.429 1552.61 469.798 1552.75 L 468.636 1551.64 C 469.037 1544.5 498.642 1519.62 505.834 1512.7 L 593.407 1428.88 L 765.083 1265.17 L 896.94 1140.08 C 910.358 1127.57 926.16 1111.57 939.699 1099.85 C 944.327 1095.33 976.11 1067.31 976.267 1065.04 L 974.07 1066.13 C 971.38 1065.17 972.133 1065.46 969.722 1063.77 L 973.67 1059.3 C 968.014 1061.6 950.597 1074.25 943.517 1078.57 C 903.57 1102.95 863.892 1127.96 824.581 1153.34 C 820.251 1156.14 821.17 1160.13 813.519 1165.36 L 492.058 1386.28 L 424.804 1432.66 C 414.202 1439.94 394.942 1454.2 384.228 1458.49 C 393.484 1445.36 440.36 1415.92 456.81 1404.7 L 563.12 1331.65 L 726.028 1219.27 C 755.145 1199.26 784.767 1178.07 814.379 1159.03 L 814.7 1154.89 C 819.67 1150.11 832.91 1142.26 839.165 1138.27 L 881.491 1111.42 C 912.596 1091.92 943.403 1070.86 975.008 1052.38 L 979.846 1049.51 L 979.565 1047.88 C 981.853 1046.29 982.592 1045.92 984.494 1043.84 L 983.699 1041.63 L 983.687 1040.22 C 981.457 1040.78 975.154 1042.52 973.207 1042.75 C 964.009 1046.29 935.684 1053.51 924.78 1056.7 C 881.219 1069.5 837.495 1081.73 793.618 1093.4 C 692.256 1121.33 591.178 1150.27 490.399 1180.23 C 466.521 1187.26 295.429 1239.46 285.293 1238.85 L 284.932 1237.73 C 290.776 1232.26 319.126 1225.88 328.001 1223.26 L 441.638 1189.89 C 566.104 1152.68 690.985 1116.88 816.256 1082.48 C 833.076 1077.86 954.214 1044.65 959.583 1040.81 C 952.491 1037.51 788.79 1078.72 782.947 1072.65 C 786.738 1068.59 828.688 1061.85 837.815 1059.99 L 948.81 1036.59 C 951.817 1036.37 955.058 1035.76 958.056 1035.29 L 957.817 1033.66 C 955.343 1033.77 946.991 1033.97 945.039 1034.4 L 527.452 1081.9 L 351.755 1102.34 L 286.419 1109.59 C 277.338 1110.53 266.498 1113.81 258.156 1110.29 L 259.032 1108.88 L 258.283 1110.33 L 259.386 1108.77 C 276.505 1105.56 308.337 1102.76 326.374 1100.84 C 360.77 1097.06 395.146 1093.1 429.499 1088.95 L 802.043 1045.98 C 852.688 1040.28 905.281 1034.97 955.681 1028.66 L 968.366 1027.91 C 964.249 1024.87 951.475 1026 945.475 1026.1 C 928.643 1025.14 902.515 1025.98 884.898 1025.97 L 764.099 1025.94 L 388.696 1025.97 L 300.187 1025.96 C 287.74 1025.96 262.938 1027.71 252.282 1023.88 L 252.949 1022.9 C 274.512 1020.99 307.027 1022.05 329.613 1022.05 L 467.408 1022.06 C 626.662 1022.08 789.364 1023.76 948.428 1021.88 C 952.384 1022 964.75 1022.69 967.612 1020.75 L 965.968 1019.96 L 956.87 1019.38 C 946.123 1017.45 928.396 1016.09 917.047 1014.89 L 842.457 1006.81 L 397.72 955.472 C 358.684 950.856 319.121 946.585 280.083 941.748 C 275.206 941.144 261.818 940.452 258.644 938.339 L 258.627 936.604 C 263.635 933.658 286.246 938.457 293.698 939.219 C 340.774 944.233 387.812 949.596 434.808 955.308 L 764.754 993.368 C 807.99 998.572 851.267 1003.44 894.578 1007.98 C 912.193 1009.83 940.515 1013.67 957.671 1014.14 L 959.097 1014.17 C 955.27 1011.48 922.292 1005.56 916.107 1004.34 L 840.209 988.864 C 832.314 987.326 783.571 978.58 781.159 975.608 C 781.874 974.93 782.59 974.252 783.305 973.574 C 836.188 982.753 890.544 994.602 942.957 1005.23 C 958.962 1008.47 954.881 1008.18 960.971 1008 C 956.843 1005.56 930.135 997.864 924.16 996.115 C 889.899 986.178 855.557 976.522 821.137 967.15 C 695.844 932.512 570.879 896.698 446.258 859.714 L 329.022 825.301 C 317.256 821.727 294.997 816.092 284.47 811.357 L 284.008 809.963 C 291.467 807.314 318.818 817.546 327.768 820.256 L 383.473 836.597 L 601.205 900.182 C 723.037 935.646 846.6 967.726 967.723 1004.05 C 971.662 1004.97 976.066 1006.26 980.049 1006.26 C 974.5 1002.4 953.37 993.238 946.056 989.63 C 907.415 970.563 867.523 955.923 828.036 938.751 C 774.907 915.439 722.202 891.171 669.947 865.961 L 530.365 800.297 C 522.912 796.729 486.264 780.899 483.792 776.355 L 485.5 775.263 C 490.72 774.981 502.483 782.145 508.067 784.766 L 565.787 811.928 C 639.396 847.002 713.274 881.509 787.414 915.446 C 853.006 945.113 916.045 968.539 981.26 1000.44 L 977.71 996.785 C 966.118 990.69 954.435 983.344 943.387 976.199 C 901.035 948.807 858.248 922.135 815.45 895.46 C 811.26 892.849 816.341 891.014 813.585 889.128 C 806.895 884.549 800.144 880.04 793.443 875.478 L 739.26 838.3 L 505.697 676.467 L 439.465 630.144 C 432.271 625.172 388.834 597.129 386.641 591.458 C 389.757 590.774 394.172 593.129 396.694 594.888 C 427.791 616.578 459.021 638.088 490.149 659.737 L 672.086 785.808 C 699.704 804.969 727.728 824.924 755.549 843.643 C 769.114 852.781 782.594 862.047 795.985 871.439 C 802.153 875.721 812.097 882.04 817.403 886.602 C 817.658 888.22 817.697 888.999 817.59 890.57 C 826.601 897.248 841.089 905.78 850.842 911.888 L 913.642 950.865 C 926.069 958.529 938.416 966.323 950.679 974.247 C 958.651 979.393 968.072 986.12 976.432 990.194 L 975.704 988.359 C 960.939 978.546 944.434 965.271 930.207 954.482 C 906.774 936.758 883.233 919.178 859.586 901.741 C 849.527 894.324 839.346 886.691 829.24 879.317 C 826.574 877.371 820.247 875.842 817.915 874.032 C 805.877 864.689 793.106 854.941 781.07 845.721 C 751.488 823.153 722.023 800.435 692.674 777.565 L 536.776 656.184 C 508.179 633.919 479.476 611.728 451.043 589.256 C 448.111 586.939 445.98 585.303 445.13 581.866 L 446.794 581.245 C 454.625 585.049 478.172 604.3 486.792 610.974 C 516.558 633.933 546.198 657.056 575.709 680.343 C 658.933 745.684 744.647 809.993 827.145 875.889 L 829.009 874.129 C 834.508 874.438 959.156 971.705 975.392 981.862 L 976.242 982.383 C 973.366 977.866 960.958 967.769 956.015 962.911 C 921.423 928.922 881.72 895.742 847.046 862.328 C 720.513 740.527 595.017 617.652 470.572 493.718 L 470.684 491.608 C 474.433 489.608 487.751 505.131 490.467 507.59 C 525.038 538.888 556.883 572.669 590 605.287 C 694.063 709.098 800.009 811.003 907.788 910.952 C 912.506 915.305 937.396 940.26 940.771 940.416 C 938.921 936.628 933.697 932.975 930.411 929.444 L 867.566 862.474 C 777.792 766.097 688.975 668.835 601.127 570.7 L 537.445 500.432 C 531.894 494.313 500.552 464.173 502.455 458.408 C 510.585 462.315 540.644 497.332 549.108 506.543 L 653.402 621.338 L 813.319 796.824 C 851.108 837.805 889.321 878.392 927.953 918.579 C 933.875 924.786 980.771 976.102 983.685 977.1 C 983.406 976.545 983.127 975.99 982.848 975.434 C 978.992 969.548 969.752 959.455 966.12 953.986 C 955.353 937.774 875.492 837.627 872.55 828.146 L 873.669 826.696 C 878.625 827.998 902.971 862.335 908.17 869.204 L 965.609 944.688 C 968.904 949.062 986.996 974.331 989.829 975.682 C 988.844 972.695 973.786 949.965 970.732 945.101 L 905.478 842.126 C 846.893 748.515 789.331 650.209 732.439 555.393 L 662.511 439.006 C 656.981 429.792 623.441 376.412 623.731 369.909 C 629.067 370.555 658.477 422.621 664.103 432.065 L 729.967 541.891 C 803.71 667.348 879.627 791.514 957.682 914.334 C 961.188 919.843 996.054 975.1 997.384 976.045 C 997.422 972.895 972.258 920.521 968.714 913.322 C 960.807 897.265 954.912 878.186 947.699 862.066 L 749.085 424.133 C 736.435 395.852 718.068 354.547 705.177 325.453 C 705.421 324.783 705.664 324.114 705.908 323.444 L 707.924 322.467 C 712.025 327.294 739.269 390.29 743.726 400.369 L 812.812 554.571 L 903.009 753.39 C 925.196 801.74 948.045 848.443 967.551 897.929 C 979.006 926.987 996.126 955.069 1007.39 984.823 C 1008.33 980.217 1006.64 976.444 1005.28 971.79 L 1004.37 968.839 C 989.148 915.399 973.368 862.119 957.031 809.01 C 945.118 771.278 931.687 732.835 919.528 694.885 L 870.726 540.248 C 859.768 505.787 848.33 471.186 838.119 436.499 C 835.643 428.087 816.86 374.614 819.274 370.252 L 821.01 370.435 C 824.965 375.226 901.107 620.822 909.546 647.261 C 930.043 711.482 951.954 775.374 971.544 839.855 L 991.131 904.314 C 994.474 915.703 1002.51 949.751 1007.79 957.891 C 1010.28 953.178 970.206 793.817 973.699 783.845 L 975.212 783.453 C 980.298 788.883 1007.4 934.44 1012.64 954.525 L 1013.04 956.022 L 1014.19 956.207 C 1014.36 944.456 1010.86 919.587 1009.56 907.381 L 998.937 810.327 L 959.465 457.255 L 946.605 339.433 C 945.429 328.814 936.144 261.99 939.59 257.218 C 944.388 264.573 948.155 314.929 949.39 326.236 L 963.16 450.537 L 1005.55 828.376 L 1014.89 913.552 C 1015.93 922.533 1017.55 941.72 1019.21 949.846 L 1019.42 950.831 C 1019.63 955.217 1019.87 959.602 1020.13 963.985 L 1021.02 964.157 L 1021.91 965.739 L 1026.59 966.031 L 1027.4 966.926 C 1028.67 964.882 1028.35 959.796 1028.44 956.904 L 1028.61 953.68 z"/>
<path transform="translate(0,0)" fill="rgb(24,25,26)" d="M 1001.92 1065.04 L 999.709 1062.57 C 1001.71 1056.1 1004.76 1053.31 1011.86 1053.46 L 1013.3 1054.35 C 1014.74 1063.16 1005.03 1064.88 1012.2 1074.56 C 1012.25 1079.01 1009.72 1083.2 1007.76 1087.4 C 1007.7 1082.69 1008.2 1077.69 1006.13 1073.68 C 1006.48 1069.47 1008.44 1069.48 1007.51 1063.19 L 1004.83 1062.52 L 1001.92 1065.04 z"/>
<path transform="translate(0,0)" fill="rgb(24,25,26)" d="M 1091.64 967.317 L 1097.1 970.634 C 1091.84 974.414 1074.23 986.53 1071.31 990.556 L 1070.66 991.922 L 1069.1 991.986 C 1069.41 989.978 1069.51 988.465 1069.69 986.428 L 1068.8 985.622 C 1069.26 983.137 1068.73 984.317 1071.3 982.406 C 1076.86 980.013 1084.46 972.774 1089.15 968.603 L 1091.64 967.317 z"/>
<path transform="translate(0,0)" fill="rgb(24,25,26)" d="M 1077.79 995.058 L 1082.12 999.289 C 1076.94 1001.33 1067.03 1004.65 1063.51 1008.28 C 1060.72 1010.83 1062.3 1009.99 1058.58 1010.85 L 1056.21 1009.32 C 1054.97 1005.91 1054.88 1007.51 1056.23 1004.36 C 1059.28 1002.51 1059.59 1002.1 1063.13 1001.26 C 1066.75 1001.18 1073.94 996.968 1077.79 995.058 z"/>
<path transform="translate(0,0)" fill="rgb(24,25,26)" d="M 1005.28 971.79 C 1008.58 973.976 1013.07 988.06 1011.23 992.576 C 1003.81 995.189 998.655 986.539 999.887 980.653 L 1001.46 980.757 C 1003.97 983.928 1003.57 984.628 1006.59 985.228 L 1007.39 984.823 C 1008.33 980.217 1006.64 976.444 1005.28 971.79 z"/>
<path transform="translate(0,0)" fill="rgb(57,57,58)" d="M 983.687 1040.22 C 987.11 1038.63 990.356 1037.93 993.98 1039.34 C 994.418 1044.64 984.169 1048.58 979.846 1049.51 L 979.565 1047.88 C 981.853 1046.29 982.592 1045.92 984.494 1043.84 L 983.699 1041.63 L 983.687 1040.22 z"/>
<path transform="translate(0,0)" fill="rgb(57,57,58)" d="M 969.388 1028.35 C 972.743 1028.85 976.213 1028.98 979.003 1030.73 C 977.054 1034.43 972.617 1033.29 968.855 1033.99 C 965.843 1034.38 960.926 1035.19 958.056 1035.29 L 957.817 1033.66 C 962.226 1030.7 965.18 1033.35 969.27 1030.55 L 969.388 1028.35 z"/>
<path transform="translate(0,0)" fill="rgb(57,57,58)" d="M 1041.15 984.101 L 1043.21 984.658 C 1044.73 982.879 1046.31 981.207 1048 979.582 C 1048.54 985.028 1046.31 990.332 1040.59 991.758 C 1037.92 990.254 1038.97 991.339 1037.79 987.994 C 1038.3 985.407 1038.24 985.586 1039.89 983.521 L 1041.15 984.101 z"/>
<path transform="translate(0,0)" fill="rgb(24,25,26)" d="M 1039.96 1064.05 C 1040.07 1060.81 1039.88 1059.87 1041.43 1056.96 L 1043.26 1056.75 C 1046.28 1059.22 1048.83 1064.6 1048 1068.43 C 1046.74 1067.28 1045.57 1066.08 1044.46 1064.79 L 1041.84 1067.03 L 1039.96 1064.05 z"/>
<path transform="translate(0,0)" fill="rgb(57,57,58)" d="M 1014.19 956.207 C 1015.54 960.767 1017.5 967.888 1016.13 972.457 C 1014.23 971.802 1015 972.309 1013.74 971.072 C 1013.98 966.038 1013.49 961.035 1013.04 956.022 L 1014.19 956.207 z"/>
<path transform="translate(0,0)" fill="rgb(91,89,92)" d="M 1039.85 957.673 L 1041.03 958.034 C 1040.98 961.601 1039.96 968.478 1037.24 970.879 C 1035.73 967.373 1038.5 961.174 1039.85 957.673 z"/>
<path transform="translate(0,0)" fill="rgb(57,57,58)" d="M 1033.59 955.47 L 1035.21 956.148 C 1034.63 960.805 1034.43 963.734 1032.99 968.255 L 1032.17 967.48 C 1032.14 964.297 1032.15 962.061 1032.4 958.894 L 1033.59 955.47 z"/>
<path transform="translate(0,0)" fill="rgb(57,57,58)" d="M 1020.13 963.985 L 1021.02 964.157 L 1021.91 965.739 C 1022.32 970.136 1022.47 970.768 1021.75 975.04 L 1020.77 975.436 C 1019.14 971.295 1019.79 968.434 1020.13 963.985 z"/>
<path transform="translate(0,0)" fill="rgb(1,1,1)" d="M 1007.76 1087.4 C 1004.55 1089.82 859.3 1613.86 844.579 1666.38 L 826.788 1729.56 C 824.764 1736.75 819.417 1761.37 814.874 1764.48 L 813.65 1763.76 C 813.263 1752.56 826.342 1714.88 829.751 1702.44 L 939.998 1307.05 C 954.888 1251.07 970.307 1195.22 986.253 1139.53 C 989.8 1127.17 1001.39 1084.19 1006.13 1073.68 C 1008.2 1077.69 1007.7 1082.69 1007.76 1087.4 z"/>
<path transform="translate(0,0)" fill="rgb(1,1,1)" d="M 1091.64 967.317 C 1094.31 964.549 1100.44 960.675 1103.86 958.302 C 1142.2 931.772 1179.17 900.503 1217.54 874.307 C 1216.95 874.314 1222.48 874.615 1221.23 875.695 C 1243.85 856.158 1268.42 838.348 1292.2 820.217 L 1582.27 595.187 C 1587.81 590.953 1597.64 579.122 1603.51 582.96 L 1603.59 584.547 C 1561.93 618.864 1514.97 653.656 1472.15 687.046 C 1394.94 747.66 1317.22 807.621 1238.99 866.923 C 1229.22 874.247 1219.77 879.067 1210.2 885.971 C 1181.05 907.126 1152.12 928.579 1123.41 950.326 C 1118.53 954.019 1099.99 967.042 1097.1 970.634 L 1091.64 967.317 z"/>
<path transform="translate(0,0)" fill="rgb(1,1,1)" d="M 442.155 1466.8 C 452.29 1451.94 529.517 1396.26 548.773 1381.48 C 636.638 1314.04 723.697 1245.43 812.25 1178.9 C 814.684 1177.07 820.705 1171.73 823.533 1171.2 C 824.775 1170.97 826.069 1171.82 827.307 1171.56 C 827.927 1171.43 940.859 1085.29 948.674 1078.98 L 951.215 1081.31 L 949.376 1085.62 C 946.792 1088.84 923.172 1105.37 917.991 1109.06 C 884.417 1132.96 853.217 1160.13 817.659 1181.01 C 809.835 1185.6 799.218 1194.98 791.672 1200.79 L 549.983 1386.69 L 486.808 1435.34 C 474.954 1444.45 455.037 1461.02 442.155 1466.8 z"/>
<path transform="translate(0,0)" fill="rgb(1,1,1)" d="M 1296.72 302.411 C 1296.91 302.494 1297.13 302.53 1297.29 302.658 C 1298.99 303.986 1298.78 303.555 1298.82 305.343 C 1299.02 314.859 1238.5 467.218 1229.7 490.409 L 1156.01 684.385 C 1151.8 695.491 1116.91 789.145 1114.5 791.474 L 1111.9 788.223 C 1110.26 789.386 1081.59 872.982 1079.01 880.404 C 1078.75 880.644 1077.37 881.395 1077.01 881.603 L 1075.68 880.075 C 1075.25 868.923 1102.39 801.023 1107.2 785.359 C 1108.03 782.659 1114.9 775.157 1116.72 771.582 C 1120.25 764.668 1122.86 757.35 1125.62 750.151 L 1241.37 446.319 L 1276.62 353.569 C 1281.51 340.679 1290.98 313.666 1296.72 302.411 z"/>
<path transform="translate(0,0)" fill="rgb(1,1,1)" d="M 662.568 343.557 C 664.763 343.79 664.453 343.807 666.58 344.516 C 672.388 350.349 707.355 421.135 713.011 431.862 L 833.207 660.597 C 855.944 703.943 878.61 747.731 902.118 790.634 C 905.661 797.099 915.775 810.635 917.877 814.79 C 925.435 829.737 953.448 875.323 954.519 889.478 C 954.265 889.352 954 889.245 953.755 889.1 C 947.332 885.297 923.273 834.666 917.445 824.415 C 909.667 810.732 900.259 798.131 892.681 784.277 C 837.131 682.732 785.12 579.074 731.143 476.675 L 687.903 393.997 C 683.336 385.35 664.378 350.968 662.568 343.557 z"/>
<path transform="translate(0,0)" fill="rgb(1,1,1)" d="M 748.592 303.803 C 749.616 303.977 751.842 304.129 752.14 304.803 C 763.685 330.929 781.628 380.139 791.032 404.768 L 911.936 721.506 C 921.53 746.284 931.71 769.518 942.765 792.551 C 949.254 806.071 973.832 870.733 973.95 881.679 C 973.094 881.387 970.772 880.619 970.413 879.792 C 961.183 858.474 951.333 826.738 942.773 805.565 C 935.694 788.055 929.277 779.704 923.649 765.249 C 877.275 646.142 832.192 526.577 786.794 407.145 L 761.29 340.286 C 758.76 333.648 749.049 309.4 748.592 303.803 z"/>
<path transform="translate(0,0)" fill="rgb(1,1,1)" d="M 1092.07 1159.82 C 1099.89 1160.32 1104.32 1174.85 1108.03 1181.88 L 1154.25 1270.08 L 1317.71 1577.91 L 1360.19 1658.3 C 1364.98 1667.34 1382.3 1696.8 1382.08 1705.47 C 1375.96 1702.15 1366.07 1679.86 1362.44 1673 L 1326.81 1605.52 L 1153.72 1279.63 L 1116.02 1207.75 C 1109.65 1195.74 1095.92 1171.34 1092.07 1159.82 z"/>
<path transform="translate(0,0)" fill="rgb(1,1,1)" d="M 1702.55 662.923 L 1704.69 663.72 L 1704.89 665.767 C 1699.82 671.716 1609.61 718.271 1595.51 725.864 C 1451.83 804.73 1306.99 881.477 1161.04 956.081 L 1159.05 955.617 L 1158.36 954.071 C 1159.73 951.625 1162.4 949.987 1164.86 948.749 C 1213.93 924.084 1263.01 898.498 1311.56 872.844 L 1540.81 750.05 C 1592.78 721.791 1650.15 689.487 1702.55 662.923 z"/>
<path transform="translate(0,0)" fill="rgb(1,1,1)" d="M 951.435 1159.25 L 953.671 1159.85 L 954.518 1161.5 C 952.497 1170.41 941.718 1187.41 937.525 1196.36 C 926.66 1219.55 913.972 1241.99 901.985 1264.61 L 779.204 1496.07 L 704.27 1638.48 C 694.912 1656.15 679.091 1688.52 668.989 1704.64 C 666.96 1703.79 667.819 1704.46 666.482 1702.55 C 667.128 1695.63 710.205 1616.77 716.604 1604.58 L 917.081 1225 C 928.527 1202.85 940.179 1181.65 951.435 1159.25 z"/>
<path transform="translate(0,0)" fill="rgb(1,1,1)" d="M 1382.49 342.505 L 1384.48 344.226 C 1385.15 350.082 1359.17 395.667 1354.93 403.784 L 1294.01 520.509 C 1249.6 605.742 1205.03 690.928 1160.02 775.847 C 1146.63 802.516 1128.43 824.463 1116.25 851.924 C 1112.2 861.05 1102.36 880.776 1096.75 888.518 C 1095.22 887.694 1096.02 888.288 1094.56 886.461 C 1097.99 868.993 1137.01 804.633 1147.82 787.069 C 1157.22 771.8 1166.9 752.79 1175.41 736.668 L 1323.91 453.871 L 1362.55 379.747 C 1368.22 368.883 1376.16 352.578 1382.49 342.505 z"/>
<path transform="translate(0,0)" fill="rgb(1,1,1)" d="M 886.075 1092.81 C 888.454 1093.58 887.444 1092.89 889.03 1095 C 887.466 1097.19 885.365 1098.48 882.976 1099.65 C 841.23 1120.15 800.023 1142.19 758.802 1163.77 L 348.211 1383.03 L 345.478 1382.84 L 344.556 1381.29 C 346.365 1377.09 358.904 1371.99 363.256 1369.6 L 407.866 1345.62 L 524.573 1283.22 C 644.178 1218.06 764.69 1154.59 886.075 1092.81 z"/>
<path transform="translate(0,0)" fill="rgb(1,1,1)" d="M 342.719 662.606 C 349.796 663.396 394.433 689.091 404.304 694.462 L 502.06 746.872 C 603.748 802.334 705.896 856.947 808.495 910.705 C 828.862 921.552 867.808 939.965 888.503 952.469 C 888.854 953.437 889.205 954.405 889.557 955.374 C 872.614 954.7 485.974 743.585 446.035 722.114 L 370.85 681.777 C 362.63 677.335 352.85 672.377 344.734 667.575 C 342.592 666.307 343.004 665.022 342.719 662.606 z"/>
<path transform="translate(0,0)" fill="rgb(1,1,1)" d="M 1159.51 1092.98 C 1164.52 1094.21 1179.51 1101.56 1184.79 1104.13 C 1219.83 1121.23 1254.8 1140.26 1289.38 1158.47 L 1563.78 1304.77 C 1580.69 1313.82 1698.12 1374.39 1703.65 1381.04 L 1703.32 1383.59 C 1698.14 1382.44 1676.34 1370.2 1670.43 1367.03 C 1650.02 1356.2 1629.67 1345.26 1609.39 1334.21 L 1340.76 1190.89 L 1208.19 1121.37 C 1199.51 1116.86 1163.13 1099.33 1158.77 1095.31 L 1159.51 1092.98 z"/>
<path transform="translate(0,0)" fill="rgb(1,1,1)" d="M 1747.63 767.966 L 1749.79 768.42 L 1750.7 770.009 C 1749.03 772.532 1746.27 773.63 1743.42 774.644 C 1715.41 784.628 1687.23 794.525 1659.25 804.553 L 1455.15 876.823 C 1387.08 900.83 1318.76 924.153 1250.23 946.789 C 1225.47 955.026 1194.36 967.116 1170.24 973.998 C 1167.95 973.607 1168.8 973.841 1166.74 972.474 C 1167.97 970.023 1171.55 968.869 1174.36 967.889 C 1245.08 943.216 1316.25 919.77 1387.13 895.559 C 1507.52 853.674 1627.69 811.143 1747.63 767.966 z"/>
<path transform="translate(0,0)" fill="rgb(1,1,1)" d="M 297.144 768.06 C 303.332 767.737 408.112 806.417 424.165 812.071 C 519.601 846.222 615.262 879.739 711.143 912.621 L 822.427 950.431 C 840.623 956.649 859.508 963.001 877.563 969.747 C 880.914 970.998 880.433 971.366 881.651 974.19 C 872.668 974.18 846.196 963.616 836.049 960.186 L 739.477 927.122 C 633.074 890.949 526.965 853.916 421.161 816.026 L 335.181 785.365 C 324.462 781.567 310.001 776.81 299.382 772.202 C 297.575 771.418 297.49 769.608 297.144 768.06 z"/>
<path transform="translate(0,0)" fill="rgb(1,1,1)" d="M 878.021 1074.09 C 880.53 1075.2 879.71 1074.27 880.872 1076.56 C 878.092 1079.94 792.793 1107.7 782.677 1111.17 C 621.421 1165.8 460.732 1222.09 300.634 1280.03 L 298.47 1279.37 L 298.076 1277.57 C 301.653 1273.35 312.568 1271.06 317.909 1269.15 L 365.618 1251.88 L 514.657 1198.86 C 606.241 1166.39 698.087 1134.67 790.187 1103.7 C 819.196 1094.01 848.995 1083.11 878.021 1074.09 z"/>
<path transform="translate(0,0)" fill="rgb(1,1,1)" d="M 1167.2 1074.1 C 1173.36 1074.12 1183.38 1078.5 1189.56 1080.65 L 1226.19 1093.05 L 1334.97 1129.9 C 1437.72 1164.75 1540.13 1200.58 1642.2 1237.38 L 1716.32 1263.82 C 1726.45 1267.43 1739.47 1271.72 1749.31 1276.29 C 1750.93 1277.05 1750.5 1277.67 1751.04 1280.13 C 1742.92 1279.74 1678.76 1255.54 1667.73 1251.51 C 1552.53 1209.78 1436.89 1169.29 1320.82 1130.04 L 1215.47 1094.22 C 1204.97 1090.66 1174.96 1081.59 1167.64 1076.7 L 1167.2 1074.1 z"/>
<path transform="translate(0,0)" fill="rgb(1,1,1)" fill-opacity="0.988235" d="M 1021.83 940.415 C 1023.36 883.613 1022.06 820.67 1022.05 763.549 L 1022.08 433.262 L 1022.04 321.226 C 1022.03 313.336 1020.66 258.926 1024.14 255.253 C 1027.39 261.184 1025.97 313.215 1025.97 323.426 L 1025.97 447.713 L 1025.99 825.348 L 1025.99 901.852 C 1025.99 912.587 1025.47 931.466 1026.17 941.429 C 1026.09 947.04 1025.57 961.129 1026.59 966.031 L 1021.91 965.739 L 1021.02 964.157 C 1022.64 959.578 1021.94 946.065 1021.83 940.415 z"/>
<path transform="translate(0,0)" fill="rgb(1,1,1)" fill-opacity="0.988235" d="M 1027.03 1081.56 C 1024.96 1088.62 1026 1121.99 1026.14 1130.48 C 1025.04 1189.03 1025.99 1250.49 1025.99 1309.21 L 1025.94 1639.95 L 1025.94 1742.91 C 1025.95 1754.98 1027.62 1784.62 1024.21 1794.12 L 1023.06 1794.61 C 1021.71 1788.99 1022.05 1759.11 1022.05 1751.91 L 1022.03 1659.54 L 1022.07 1256.84 L 1022.1 1139.75 C 1022.09 1127.93 1022.79 1093.19 1021.4 1082.89 L 1027.03 1081.56 z"/>
<path transform="translate(0,0)" fill="rgb(1,1,1)" d="M 979.565 1047.88 C 934.87 1072.59 884.289 1089.93 837.897 1110.37 C 763.096 1143.92 688.648 1178.24 614.564 1213.34 C 595.92 1222.03 495.747 1270.74 484.777 1271.54 L 484.23 1270.71 C 489.724 1265.38 538.556 1243.6 548.839 1238.71 C 636.839 1197.08 725.165 1156.14 813.81 1115.9 C 843.141 1102.9 870.909 1091.2 900.686 1079.54 C 928.729 1068.56 954.771 1052.15 983.699 1041.63 L 984.494 1043.84 C 982.592 1045.92 981.853 1046.29 979.565 1047.88 z"/>
<path transform="translate(0,0)" fill="rgb(1,1,1)" d="M 1606.01 523.604 L 1607.2 524.191 L 1607.73 525.927 C 1605.5 530.952 1529.53 595.659 1518.74 605.029 L 1321.56 776.736 L 1257.34 832.663 C 1243.09 845 1228.25 857.225 1214.65 870.217 C 1213 868.655 1213.11 868.774 1212.56 866.557 C 1214.14 863.043 1217.67 859.991 1220.59 857.405 L 1486.82 626.205 L 1561.17 561.442 C 1574.55 549.771 1592 533.87 1606.01 523.604 z"/>
<path transform="translate(0,0)" fill="rgb(1,1,1)" d="M 1077.79 995.058 C 1121.59 972.967 1167.54 956.363 1211.92 936.919 C 1286.62 903.743 1360.9 869.641 1434.76 834.621 C 1453.2 825.907 1551.92 776.744 1564.05 775.966 C 1563.31 781.904 1534.45 792.786 1528.86 795.399 L 1467.98 824.065 C 1390.99 860.692 1313.66 896.576 1235.98 931.712 C 1192.23 951.11 1147.56 967.537 1104.75 988.938 C 1098.82 991.902 1088.05 997.355 1082.12 999.289 L 1077.79 995.058 z"/>
<path transform="translate(0,0)" fill="rgb(1,1,1)" d="M 832.808 1179.75 L 834.873 1180.63 L 835.534 1182.44 C 832.02 1191.14 482.967 1485.74 442.282 1522.42 C 440.118 1521.48 440.911 1522 439.398 1519.95 C 440.403 1516.7 444.141 1513.65 446.79 1511.34 L 670.736 1319.45 L 764.818 1238.47 C 787.106 1219.13 810.097 1198.38 832.808 1179.75 z"/>
<path transform="translate(0,0)" fill="rgb(1,1,1)" d="M 1114.31 1253.57 C 1117.16 1254.04 1117.01 1254.3 1119.19 1256.32 C 1136.61 1303 1157.57 1352.98 1176.33 1399.34 L 1254.64 1593.9 L 1292.09 1686.81 C 1297.97 1701.49 1304.11 1716.44 1309.79 1731.21 C 1311.33 1735.22 1311.03 1734.7 1310.21 1738.63 L 1307.5 1737.5 C 1304.39 1732.48 1292.99 1702.13 1290.17 1695.05 L 1254.53 1606.76 C 1210.13 1496.65 1165.48 1386.45 1121.56 1276.15 C 1119.52 1271.02 1114.63 1258.51 1114.31 1253.57 z"/>
<path transform="translate(0,0)" fill="rgb(1,1,1)" d="M 864.607 1211.68 C 865.965 1212.97 865.606 1212.72 866.524 1214.46 C 865.348 1219.31 810.661 1281.11 803.055 1290.01 L 624.524 1499.91 L 564.761 1570.94 C 554.741 1582.82 541.161 1599.81 530.586 1610.42 C 528.647 1609.35 529.335 1610.14 528.535 1608.05 C 531.352 1600.42 571.205 1555.58 579.81 1545.29 C 629.152 1486.42 678.799 1427.8 728.749 1369.45 C 759.391 1333.11 790.275 1296.99 821.399 1261.07 C 834.346 1246.12 851.077 1225.29 864.607 1211.68 z"/>
<path transform="translate(0,0)" fill="rgb(1,1,1)" d="M 930.649 1252.33 L 932.814 1253.36 C 935.193 1260.93 890.474 1366.37 884.654 1380.7 L 823.881 1532.14 L 767.511 1671.99 C 758.752 1693.62 749.787 1717.03 740.413 1738.21 C 739.464 1737.75 738.555 1736.96 737.675 1736.3 C 737.527 1729.08 761.037 1674.78 764.723 1665.75 L 801.598 1573.83 L 930.649 1252.33 z"/>
<path transform="translate(0,0)" fill="rgb(1,1,1)" d="M 1211.99 1180.9 C 1218.37 1181.66 1220.68 1184.56 1225.87 1188.96 L 1480.8 1407.93 L 1567.85 1482.44 C 1580.65 1493.46 1593.88 1504.75 1606.62 1515.88 C 1609.34 1518.26 1609.13 1519.27 1609.37 1522.2 C 1603.05 1521.27 1584.11 1502.85 1578.43 1497.95 L 1512.84 1441.77 L 1276.25 1238.71 C 1267.04 1230.75 1213.68 1186.36 1211.99 1180.9 z"/>
<path transform="translate(0,0)" fill="rgb(1,1,1)" d="M 439.026 523.796 C 440.473 523.887 441.826 524.121 443.239 524.475 C 449.852 526.132 728.26 771.706 760.796 800.277 C 776.408 813.986 828.117 854.979 836.551 868.386 C 835.957 868.382 832.898 868.276 832.589 868.013 C 702.305 757.247 574.595 642.851 444.878 531.197 C 441.939 528.667 440.65 527.421 439.026 523.796 z"/>
<path transform="translate(0,0)" fill="rgb(1,1,1)" d="M 1147.5 1237.48 L 1151.97 1238.28 C 1156.95 1242.24 1210.32 1332.91 1216.93 1343.82 L 1358.43 1578.86 C 1366.79 1592.93 1417.75 1674.91 1419.33 1683.66 L 1416.28 1683.46 C 1412.57 1680.24 1390.81 1642.32 1386.4 1634.99 L 1285.43 1466.32 C 1252.86 1413.12 1220.6 1359.73 1188.65 1306.16 C 1177.81 1288.06 1155.87 1255.13 1147.5 1237.48 z"/>
<path transform="translate(0,0)" fill="rgb(1,1,1)" d="M 1682.3 625.754 L 1683.35 626.177 L 1684.08 627.96 C 1681.54 632.879 1643.17 655.254 1635.92 659.724 L 1533.41 722.408 C 1437.75 781.552 1336.43 844.759 1239.33 900.732 L 1237.51 899.764 L 1237.54 897.962 C 1241.92 891.976 1277.7 872.443 1286.57 867.096 L 1394.23 801.754 L 1682.3 625.754 z"/>
<path transform="translate(0,0)" fill="rgb(1,1,1)" d="M 809.356 1148.04 C 809.835 1148.07 811.071 1148.55 811.595 1148.73 L 811.254 1150.59 C 806.42 1154.98 781.933 1169.17 775.288 1173.2 L 693.505 1222.71 L 482.455 1350.9 C 444.941 1373.66 405.536 1396.62 368.568 1419.92 L 366.806 1419.48 L 365.912 1417.92 C 366.635 1415.34 369.037 1413.73 371.277 1412.39 C 399.219 1395.66 427.032 1378.71 454.879 1361.81 L 618.69 1262.26 L 747.03 1184.58 C 767.397 1172.4 788.289 1158.66 809.356 1148.04 z"/>
<path transform="translate(0,0)" fill="rgb(1,1,1)" d="M 1158.34 1227.47 C 1161.07 1228.05 1162.21 1228.96 1163.84 1231.32 C 1182.06 1257.75 1200.13 1284.32 1218.38 1310.73 C 1272.64 1389.29 1326.49 1468.13 1379.95 1547.24 C 1391.32 1564.03 1451.37 1648.99 1454.3 1660.33 L 1451.65 1659.77 C 1444.72 1654.61 1397.69 1581.98 1391.18 1572.34 L 1278.17 1406.13 L 1198.15 1289.8 C 1189.63 1277.39 1160.78 1238.96 1158.34 1227.47 z"/>
<path transform="translate(0,0)" fill="rgb(1,1,1)" d="M 896.342 1237.54 L 898.418 1238.44 C 898.42 1241.83 896.386 1245.52 894.607 1248.42 C 805.986 1392.6 721.447 1540.13 632.57 1684.06 C 631.693 1683.03 630.151 1681.9 630.204 1680.47 C 630.431 1674.3 819.321 1364.28 840.016 1329.95 L 872.305 1275.84 C 877.997 1266.13 889.319 1245.75 896.342 1237.54 z"/>
<path transform="translate(0,0)" fill="rgb(1,1,1)" d="M 1181.9 1211.8 C 1188.62 1214.9 1215.18 1247.63 1221.06 1254.47 C 1246.31 1283.44 1271.35 1312.6 1296.16 1341.94 C 1347.24 1401.56 1398.01 1461.43 1448.47 1521.55 L 1494.68 1576.03 C 1502.52 1585.27 1510.58 1594.73 1518.23 1604.13 C 1519.89 1606.17 1520.02 1608.52 1520.3 1611.05 C 1514.25 1608.63 1492.93 1581.67 1487.5 1575.29 L 1427.02 1503.74 C 1368.58 1434.13 1309.67 1364.91 1250.31 1296.09 L 1198.89 1235.92 C 1193.41 1229.47 1187.24 1222.48 1181.73 1216.02 C 1180.77 1214.9 1181.48 1213.84 1181.9 1211.8 z"/>
<path transform="translate(0,0)" fill="rgb(1,1,1)" d="M 363.603 626.037 C 363.734 626.062 363.866 626.083 363.996 626.112 C 375.405 628.649 502.139 708.887 524.066 722.301 L 707.947 834.581 C 739.947 854.059 772.047 873.463 804.01 892.996 C 807.972 895.417 809.912 896.63 812.357 900.505 C 806.432 900.041 799.547 895.639 794.317 892.499 C 696.857 833.996 599.867 774.447 502.934 715.097 L 409.151 657.677 C 395.45 649.27 380.808 640.411 367.218 631.749 C 364.595 630.077 364.026 628.584 363.603 626.037 z"/>
<path transform="translate(0,0)" fill="rgb(1,1,1)" d="M 1237.14 1147.97 C 1251.75 1151.48 1341.57 1208.87 1358.65 1219.17 L 1562.6 1342.99 C 1577.69 1352.14 1678.25 1411.2 1682.85 1417.14 L 1682.15 1420.31 C 1675.02 1417.2 1657.17 1405.94 1649.86 1401.53 L 1582.92 1360.99 L 1321.93 1202.52 C 1312.31 1196.69 1238.1 1153.41 1236.08 1150.49 L 1237.14 1147.97 z"/>
<path transform="translate(0,0)" fill="rgb(1,1,1)" d="M 971.22 1166.37 C 971.86 1166.73 972.842 1167.64 973.449 1168.16 C 973.736 1175.87 951.025 1237.43 947.506 1248.04 C 916.483 1341.66 884.972 1435.11 852.972 1528.4 L 825.042 1610.78 C 822.153 1619.38 814.42 1644.2 810.877 1650.6 L 808.555 1649.31 C 807.951 1641.78 832.146 1574.81 835.795 1564 L 912.996 1336.31 C 925.153 1298.88 937.565 1261.54 950.23 1224.28 C 954.475 1211.62 965.463 1176.72 971.22 1166.37 z"/>
<path transform="translate(0,0)" fill="rgb(1,1,1)" d="M 1735.25 733.011 C 1737.48 734.353 1736.77 733.361 1737.63 735.866 C 1734.04 740.314 1684.03 759.63 1675.69 763.107 L 1548.77 815.622 C 1452.06 856.263 1354.87 895.765 1257.23 934.119 L 1254.51 933.596 L 1253.93 932.092 C 1256.28 929.258 1261.16 927.48 1264.63 926.022 L 1632.4 775.8 C 1666.63 761.56 1701.38 748.02 1735.25 733.011 z"/>
<path transform="translate(0,0)" fill="rgb(1,1,1)" d="M 1074.82 1166.71 L 1077.58 1168.42 C 1081.28 1174.28 1088.8 1198.69 1091.65 1206.77 C 1107.03 1250.48 1121.85 1294.39 1136.1 1338.49 L 1204.79 1540.46 C 1209.88 1555.49 1240.16 1641 1239.89 1651.2 C 1234.09 1648.12 1230.7 1632.76 1228.4 1625.86 L 1207.92 1564.56 L 1107.93 1270.03 C 1100.96 1249.03 1093.88 1228.07 1086.71 1207.14 C 1084.15 1199.76 1073.16 1172.41 1074.82 1166.71 z"/>
<path transform="translate(0,0)" fill="rgb(1,1,1)" d="M 790.971 1114.07 L 793.469 1114.42 L 794.077 1116 C 790.355 1120.56 679.561 1163.73 665.376 1169.43 L 511.222 1232.56 L 384.109 1285.2 C 361.586 1294.53 336.86 1305.43 314.193 1313.77 L 311.613 1313.53 L 310.808 1312.34 C 313.472 1307.65 353.927 1292.74 362.669 1289.09 C 402.126 1272.44 441.705 1256.09 481.402 1240.03 C 584.202 1197.09 687.396 1155.1 790.971 1114.07 z"/>
<path transform="translate(0,0)" fill="rgb(1,1,1)" d="M 310.429 732.787 C 319.342 733.648 404.81 771.323 418.195 776.931 L 629.84 864.277 C 682.907 885.998 736.349 907.455 789.499 928.998 C 793.243 930.515 793.947 931.481 795.095 935.07 C 790.516 934.675 767.701 925.256 761.931 922.974 C 730.605 910.455 699.346 897.767 668.157 884.91 L 445.246 792.978 C 430.952 787.09 314.807 740.418 310.24 735.944 L 310.429 732.787 z"/>
<path transform="translate(0,0)" fill="rgb(1,1,1)" d="M 1077.13 1262.31 C 1078.07 1262.69 1079.97 1263.19 1080.21 1264.02 C 1088.19 1290.9 1097.31 1337.01 1103.25 1363.15 L 1168.07 1653.9 L 1184.97 1729.95 C 1187.08 1739.46 1194.33 1768.56 1193.72 1776.84 C 1187.29 1773.22 1174.42 1704.17 1172.14 1693.68 L 1104.85 1391.51 L 1086.11 1308.47 C 1083.52 1296.9 1077.6 1273.18 1077.13 1262.31 z"/>
<path transform="translate(0,0)" fill="rgb(1,1,1)" d="M 967.815 1262.21 C 968.598 1262.66 969.781 1263.66 970.538 1264.24 C 971.842 1272.17 943.208 1392.33 938.909 1411.26 L 896.723 1600.59 L 871.258 1715.54 C 867.868 1730.81 861.684 1762.85 857.024 1776.26 C 856.177 1775.62 855.151 1774.87 854.723 1773.85 C 852.981 1769.7 868.922 1705.12 870.82 1696.55 L 940.63 1382.15 C 946.53 1356.77 952.251 1331.34 957.793 1305.87 C 960.558 1293.28 964.167 1274.15 967.815 1262.21 z"/>
<path transform="translate(0,0)" fill="rgb(1,1,1)" d="M 1253.19 1115.18 C 1262.99 1113.97 1354.04 1152.87 1368.68 1158.87 L 1536.18 1227.4 L 1676.62 1285.21 C 1695.12 1292.9 1713.97 1300.49 1732.48 1308.21 C 1735.84 1309.61 1736.18 1310.71 1737.53 1313.43 C 1731.92 1314.47 1707.49 1303.2 1701.09 1300.57 L 1623.06 1268.16 C 1527.14 1228.11 1430.95 1188.74 1334.48 1150.04 C 1322.69 1145.29 1256.69 1120.02 1253.19 1115.18 z"/>
<path transform="translate(0,0)" fill="rgb(1,1,1)" d="M 893.623 262.339 C 899.685 265.591 899.761 280.5 900.99 287.912 L 914.573 369.481 L 966.728 675.914 L 978.69 744.373 C 979.969 751.69 985.76 777.609 982.758 783.024 L 980.919 782.158 C 978.488 777.541 964.961 692.59 962.965 681.084 C 945.963 584.558 929.491 487.94 913.549 391.234 C 910.609 373.512 891.793 273.847 893.623 262.339 z"/>
<path transform="translate(0,0)" fill="rgb(1,1,1)" d="M 1064.48 1264.31 C 1065.85 1265.08 1067.89 1265.85 1068.12 1267.03 C 1074.27 1298.22 1081.88 1346.69 1086.71 1376.42 L 1132.57 1658.22 L 1145.5 1736.69 C 1146.91 1745.17 1153.48 1779.08 1151.96 1784.52 C 1149.3 1783.77 1150.44 1784.42 1148.44 1782.45 L 1085.06 1394.9 L 1070.94 1310.07 C 1069.41 1300.9 1063.91 1271.56 1064.48 1264.31 z"/>
<path transform="translate(0,0)" fill="rgb(1,1,1)" d="M 1036.8 1269.35 C 1039.02 1270.49 1038.23 1269.92 1039.79 1272.01 C 1043.03 1313.72 1044.73 1357.43 1047.22 1399.35 L 1062.71 1676.5 C 1063.58 1693.56 1070.67 1784.52 1068 1794.77 C 1067.13 1794.43 1065.57 1794.03 1065.48 1793.33 C 1062.54 1768.29 1060.76 1721.78 1059.44 1698.62 L 1043.3 1410.29 L 1038 1320.35 C 1037.35 1308.87 1035.06 1278.96 1036.8 1269.35 z"/>
<path transform="translate(0,0)" fill="rgb(1,1,1)" d="M 750.635 1036.44 C 754.852 1035.83 774.347 1035.18 776.599 1038.6 C 768.689 1040.83 728.696 1042.27 717.998 1042.84 L 617.133 1048.7 L 398.335 1061.65 C 362.001 1063.81 315.249 1067.79 279.749 1068.06 C 274.709 1068.67 256.129 1072.07 253.305 1067.46 C 259.359 1063.91 284.401 1064 293.034 1063.47 L 397.173 1057.26 L 750.635 1036.44 z"/>
<path transform="translate(0,0)" fill="rgb(1,1,1)" d="M 980.883 1264.23 L 983.644 1266.2 C 984.799 1271.75 973.865 1329.13 972.155 1339.73 L 927.259 1616.15 L 909.146 1726.15 C 907.102 1738.76 902.273 1773.52 898.736 1784.57 L 896.576 1782.97 C 895.125 1778.76 909.88 1694.02 911.862 1681.99 L 957.892 1399.7 C 962.639 1369.08 967.621 1338.49 972.835 1307.95 C 974.726 1296.81 978.016 1274.11 980.883 1264.23 z"/>
<path transform="translate(0,0)" fill="rgb(1,1,1)" d="M 1152.81 262.444 C 1153.4 262.951 1155 264.053 1154.88 264.808 C 1128.75 436.129 1097.9 607.295 1068.67 778.281 C 1068.27 780.571 1067.5 781.829 1066.47 783.603 L 1064.81 781.808 C 1062.99 774.721 1100.12 570.716 1104.94 542.054 L 1138.68 340.889 C 1140.61 329.454 1148.81 269.918 1152.81 262.444 z"/>
<path transform="translate(0,0)" fill="rgb(1,1,1)" d="M 1265.01 1077.02 C 1287.12 1080.5 1314.82 1087.66 1336.96 1092.68 C 1380.57 1102.42 1424.11 1112.43 1467.6 1122.7 L 1654.61 1166.43 C 1667.96 1169.54 1769.86 1192.25 1773.86 1195.68 L 1773.73 1198.26 C 1755.82 1195.41 1734.05 1189.78 1716.15 1185.52 L 1639.8 1167.68 L 1353.54 1100.97 C 1342.92 1098.57 1267.69 1082.61 1264.28 1079.31 L 1265.01 1077.02 z"/>
<path transform="translate(0,0)" fill="rgb(1,1,1)" d="M 273.571 849.176 C 286.921 851.125 310.419 857.432 324.1 860.694 L 411.139 881.145 L 711.789 950.934 C 721.918 953.252 779.492 965.519 784.188 968.77 L 784.112 970.907 C 767.61 970.697 731.178 960.095 713.161 955.851 L 609.03 932 L 421.714 888.22 C 376.149 877.678 330.533 867.042 285.031 856.23 C 281.295 855.342 275.334 854.255 272.996 851.372 L 273.571 849.176 z"/>
<path transform="translate(0,0)" fill="rgb(1,1,1)" d="M 254.031 978.371 C 260.962 977.714 275.709 979.002 283.549 979.474 L 335.269 982.634 L 511.954 993.146 L 722.502 1005.75 C 732.936 1006.33 768.67 1006.37 777.342 1008.98 L 778.21 1011.65 C 772.029 1012.12 764.58 1012.05 758.327 1011.74 C 706.366 1009.16 654.442 1005.98 602.506 1002.92 L 363.009 988.846 C 349.22 988.03 261.702 984.251 254.62 980.961 L 254.031 978.371 z"/>
<path transform="translate(0,0)" fill="rgb(1,1,1)" d="M 1784.61 978.444 C 1788.09 977.996 1790.7 977.366 1793.33 979.548 L 1793.3 980.214 C 1788.05 983.188 1782.72 983.413 1776.9 983.711 C 1747.46 985.217 1717.94 986.975 1688.53 988.765 L 1470.04 1001.56 C 1423.94 1004.08 1377.82 1007.3 1331.7 1009.58 C 1314.54 1010.43 1296.83 1012.05 1279.75 1011.93 L 1273.01 1011.86 L 1272.2 1010.14 L 1271.94 1011.56 L 1269.96 1010.66 L 1270.3 1010.16 C 1276.49 1006.37 1312.87 1006.16 1321.79 1005.73 L 1395.94 1001.54 L 1784.61 978.444 z"/>
<path transform="translate(0,0)" fill="rgb(1,1,1)" d="M 1269.92 1036.32 C 1284.5 1035.34 1311.88 1037.5 1327.11 1038.26 L 1443.41 1044.85 L 1648.61 1057.24 C 1693.75 1059.85 1738.96 1062.38 1784.11 1064.9 C 1787.79 1065.11 1791.24 1065.29 1794.35 1067.26 L 1794.63 1069.37 C 1787.46 1070.09 1770.82 1068.71 1762.94 1068.24 L 1704.51 1064.79 L 1467.51 1050.83 L 1331.59 1042.98 C 1317.13 1042.17 1283.53 1041.89 1270.98 1039.44 L 1269.92 1036.32 z"/>
<path transform="translate(0,0)" fill="rgb(1,1,1)" d="M 1008.21 1269.24 L 1010.82 1270.36 C 1014.34 1275.2 1003.22 1439.99 1002.28 1456.52 L 983.473 1794.77 C 980.059 1793.06 981.258 1794.27 979.38 1791.4 C 981.635 1772.33 982.236 1736.65 983.348 1716.07 L 991.863 1563.5 L 1003.24 1363.23 C 1004.88 1333.35 1007.76 1298.72 1008.21 1269.24 z"/>
<path transform="translate(0,0)" fill="rgb(1,1,1)" d="M 1770.97 850.336 C 1772.08 850.199 1773.13 850.398 1774.3 850.508 L 1774.51 851.664 C 1770.17 855.417 1755 858.206 1748.92 859.639 C 1661.14 880.322 1573.2 900.403 1485.43 921.128 L 1350.09 952.263 C 1325.11 958.021 1292.58 966.552 1268.08 970.658 C 1267.45 970.723 1265.48 970.502 1264.76 970.441 L 1264.32 968.815 C 1269.44 964.486 1286.93 962.225 1294.15 960.539 C 1326.16 953.06 1358.35 945.895 1390.4 938.644 L 1567.32 897.453 L 1693.56 868.035 C 1717.79 862.335 1746.87 854.584 1770.97 850.336 z"/>
<path transform="translate(0,0)" fill="rgb(1,1,1)" d="M 576.11 473.702 C 581.354 477.431 600.6 502.001 605.789 508.429 L 661.023 577.073 C 728.425 661.027 796.189 744.781 863.495 828.814 C 866.565 832.646 867.586 833.653 867.099 837.776 C 862.014 836.054 854.258 825.338 850.537 820.793 L 622.372 536.942 C 608.644 519.902 589.088 495.951 574.657 478.495 C 574.023 477.727 575.535 475.052 576.11 473.702 z"/>
<path transform="translate(0,0)" fill="rgb(1,1,1)" d="M 780.429 1077.32 C 781.747 1077.08 780.878 1077.16 783.035 1077.55 L 783.108 1079.51 C 781.688 1081.55 780.053 1082.05 777.626 1082.56 C 723.05 1093.84 668.297 1106.81 614.003 1119.58 L 399.512 1169.66 C 360.382 1178.79 316.244 1190.2 277.162 1197.69 C 276.095 1197.67 275.219 1197.33 274.139 1197.04 L 274.317 1195.46 C 278.895 1192.86 310.161 1185.9 317.204 1184.24 L 425.026 1159.29 L 677.089 1100.44 C 709.916 1093.01 747.689 1083.34 780.429 1077.32 z"/>
<path transform="translate(0,0)" fill="rgb(1,1,1)" d="M 1470.49 474.554 C 1472.5 475.429 1471.75 475.03 1473.3 476.866 C 1472.8 481.6 1456.06 499.549 1451.8 504.859 L 1380.3 593.703 L 1183.77 837.325 C 1181.7 836.752 1182.69 837.272 1180.93 835.58 C 1182.78 829.103 1213.59 792.912 1219.85 785.15 L 1290.11 697.783 L 1470.49 474.554 z"/>
<path transform="translate(0,0)" fill="rgb(1,1,1)" d="M 633.732 465.68 C 640.003 467.758 671.594 517.645 677.472 526.304 L 803.967 711.136 C 815.192 727.418 877.583 814.355 880.389 824.738 C 879.538 824.632 875.424 823.873 875.063 823.328 C 863.569 805.953 851.567 788.914 839.665 771.818 L 645.464 487.924 C 642.367 483.344 636.039 474.381 633.085 469.031 C 633.301 467.914 633.517 466.797 633.732 465.68 z"/>
<path transform="translate(0,0)" fill="rgb(1,1,1)" d="M 1412.69 465.597 L 1414.7 467.272 C 1414.84 468.017 1414.97 468.761 1415.1 469.506 C 1399.34 493.167 1376.4 527.03 1361 549.54 L 1172.53 824.564 L 1170.86 823.968 L 1170.06 822.044 C 1172.58 811.566 1220.84 745.388 1230.73 731.038 L 1331.5 583.853 C 1348.49 559.305 1365.3 534.633 1381.93 509.84 C 1390.06 497.792 1403.83 476.338 1412.69 465.597 z"/>
<path transform="translate(0,0)" fill="rgb(1,1,1)" d="M 1266.06 1064.13 C 1270.43 1063.6 1704.22 1136.29 1713.35 1139.9 C 1715.74 1140.85 1715.78 1141.87 1716.8 1144.09 C 1708.63 1143.95 1684.55 1139.29 1675.3 1137.69 L 1595.28 1123.83 L 1330.56 1078.52 C 1320.34 1076.77 1272.03 1069.77 1266.69 1066.73 L 1266.06 1064.13 z"/>
<path transform="translate(0,0)" fill="rgb(1,1,1)" d="M 330.94 904.354 C 338.749 903.459 380.016 911.496 389.564 913.174 L 491.785 931.165 L 676.694 962.637 C 687.9 964.584 775.764 978.136 780.385 980.641 L 781.297 983.903 C 773.908 984.107 744.191 978.562 735.496 977.124 C 696.917 970.769 658.383 964.147 619.896 957.26 C 552.653 946.113 485.469 934.614 418.346 922.762 C 391.109 917.905 363.12 913.458 335.927 908.067 C 332.647 907.417 332.297 906.552 330.94 904.354 z"/>
<path transform="translate(0,0)" fill="rgb(1,1,1)" d="M 1711.14 904.347 C 1713.72 904.014 1713.13 904.142 1715.81 904.558 L 1716.17 905.805 C 1709.98 910.766 1675.21 914.624 1665 916.404 C 1628.3 923.118 1591.55 929.553 1554.75 935.708 L 1271.66 983.79 C 1270.25 983.833 1268.67 983.572 1267.22 983.412 L 1266.28 982.012 C 1270.68 977.739 1299.8 974.583 1307.69 973.297 C 1332.96 969.218 1358.2 964.969 1383.42 960.552 L 1711.14 904.347 z"/>
<path transform="translate(0,0)" fill="rgb(1,1,1)" d="M 985.949 335.718 L 988.304 337.463 C 989.121 339.242 989.463 339.923 989.569 341.947 C 996.878 481.455 1004.75 620.951 1012.13 760.448 C 1012.41 765.763 1012.79 773.377 1012.07 778.558 L 1009.12 777.891 C 1007.12 773.154 1004.62 704.751 1004.04 694.128 L 988.648 412.29 C 987.967 400.727 983.269 341.898 985.949 335.718 z"/>
<path transform="translate(0,0)" fill="rgb(1,1,1)" d="M 1059.78 336.191 L 1062.7 337.345 C 1064.46 340.664 1061.6 375.1 1061.31 382.177 C 1060.76 395.469 1059.6 410.317 1058.86 423.726 L 1048.79 613.797 C 1045.7 667.631 1041.57 725.481 1039.69 779.188 C 1036.06 777.151 1037.19 778.547 1035.47 775.461 C 1036.41 768.089 1036.45 755.751 1036.93 747.572 L 1040.9 672.503 L 1053.83 431.28 L 1057.23 370.855 C 1057.82 360.366 1058.15 346.308 1059.78 336.191 z"/>
<path transform="translate(0,0)" fill="rgb(1,1,1)" d="M 775.979 1064.37 C 778.609 1063.88 777.605 1063.94 780.307 1064.5 L 780.424 1066.1 C 777.701 1068.09 772.938 1069.83 769.632 1070.41 L 336.666 1143.7 L 332.958 1143.61 L 332.217 1142.16 C 336.944 1137.69 387.531 1130.65 396.355 1129.12 C 437.233 1121.68 478.176 1114.61 519.179 1107.89 L 775.979 1064.37 z"/>
<path transform="translate(0,0)" fill="rgb(1,1,1)" d="M 870.602 382.277 L 873.053 383.367 C 876.897 388.655 883.874 426.221 886.035 435.267 L 918.92 573.043 L 951.622 708.458 C 954.399 719.691 970.936 779.476 969.83 787.444 C 964.882 782.191 962.044 768.477 960.066 761.122 C 951.294 727.381 942.907 693.541 934.906 659.608 L 889.35 469.009 C 886.636 457.379 869.872 390.23 870.602 382.277 z"/>
<path transform="translate(0,0)" fill="rgb(1,1,1)" d="M 1174.65 382.17 L 1177.6 383.673 C 1178.63 387.791 1092.02 757.341 1081.5 786.308 C 1080.3 786.032 1079.78 785.679 1078.65 785.148 C 1077.92 778.889 1089.8 737.583 1092.15 727.837 L 1134.28 553.418 L 1159.86 444.56 C 1164.56 424.297 1169.18 401.948 1174.65 382.17 z"/>
<path transform="translate(0,0)" fill="rgb(1,1,1)" d="M 1082.89 944.228 C 1101.64 918.825 1121.62 894.281 1140.4 868.861 C 1145.47 861.999 1168.29 829.342 1174.29 828.272 L 1173.42 827.434 L 1175.22 826.711 C 1172.02 839.469 1100.49 930.181 1088.21 945.974 L 1082.89 944.228 z"/>
<path transform="translate(0,0)" fill="rgb(24,25,26)" d="M 1056.32 978.453 C 1059.65 976.097 1078.72 949.586 1082.89 944.228 L 1088.21 945.974 C 1083.32 953.118 1067.61 972.249 1065.21 976.689 C 1063.68 978.996 1060.66 984.572 1058.66 985.266 C 1056.04 982.904 1056.18 982.771 1054.83 979.646 L 1056.32 978.453 z"/>
<path transform="translate(0,0)" fill="rgb(24,25,26)" d="M 948.674 1078.98 C 953.87 1074.76 964.083 1066.87 969.722 1063.77 C 972.133 1065.46 971.38 1065.17 974.07 1066.13 C 967.564 1071.69 956.35 1081.55 949.376 1085.62 L 951.215 1081.31 L 948.674 1078.98 z"/>
<path transform="translate(0,0)" fill="rgb(1,1,1)" fill-opacity="0.117647" d="M 1027.03 1081.56 L 1027.82 1081.4 L 1027.95 1081.85 C 1028.19 1084.93 1028.77 1090.34 1028.66 1093.23 L 1027.22 1094.02 C 1026.29 1104.56 1027.96 1121.9 1026.14 1130.48 C 1026 1121.99 1024.96 1088.62 1027.03 1081.56 z"/>
<path transform="translate(0,0)" fill="rgb(1,1,1)" fill-opacity="0.14902" d="M 1026.17 941.429 C 1027.15 946.192 1027.2 948.094 1027.32 952.989 L 1028.61 953.68 L 1028.44 956.904 C 1028.35 959.796 1028.67 964.882 1027.4 966.926 L 1026.59 966.031 C 1025.57 961.129 1026.09 947.04 1026.17 941.429 z"/>
<path transform="translate(0,0)" fill="rgb(1,1,1)" fill-opacity="0.117647" d="M 1071.3 982.406 C 1075.87 976.979 1082.65 970.834 1088.59 966.918 L 1089.15 968.603 C 1084.46 972.774 1076.86 980.013 1071.3 982.406 z"/>
<path transform="translate(0,0)" fill="rgb(1,1,1)" fill-opacity="0.105882" d="M 1019.42 950.831 C 1020.8 948.488 1021.32 943.393 1021.83 940.415 C 1021.94 946.065 1022.64 959.578 1021.02 964.157 L 1020.13 963.985 C 1019.87 959.602 1019.63 955.217 1019.42 950.831 z"/>
<path transform="translate(0,0)" fill="rgb(1,1,1)" fill-opacity="0.129412" d="M 927.344 1119.38 C 931.212 1115 937.865 1108.05 942.924 1105.33 C 939.928 1109.9 932.42 1117.3 928.204 1121.18 L 927.344 1119.38 z"/>
<path transform="translate(0,0)" fill="rgb(1,1,1)" fill-opacity="0.0627451" d="M 1077.05 1026.24 C 1085.12 1026.09 1093.54 1025.81 1101.57 1026.16 C 1098.18 1026.63 1093.99 1026.89 1091.14 1028.62 C 1086.84 1028.29 1083.23 1028.26 1078.93 1028.24 L 1077.05 1026.24 z"/>
<path transform="translate(0,0)" fill="rgb(57,57,58)" fill-opacity="0.988235" d="M 1076.57 1014.03 C 1080.22 1013.32 1086.05 1012.58 1089.71 1012.85 L 1090.18 1014.31 L 1086.17 1015.77 C 1081.97 1016.44 1080.95 1016.82 1076.86 1016.12 L 1076.57 1014.03 z"/>
<path transform="translate(0,0)" fill="rgb(1,1,1)" fill-opacity="0.0666667" d="M 956.87 1019.38 L 965.968 1019.96 L 967.612 1020.75 C 964.75 1022.69 952.384 1022 948.428 1021.88 C 951.972 1021.21 953.648 1021.11 956.87 1019.38 z"/>
<path transform="translate(0,0)" fill="rgb(1,1,1)" fill-opacity="0.121569" d="M 945.475 1026.1 C 951.475 1026 964.249 1024.87 968.366 1027.91 L 955.681 1028.66 L 955.282 1027.44 L 945.475 1026.1 z"/>
<path transform="translate(0,0)" fill="rgb(1,1,1)" fill-opacity="0.027451" d="M 945.039 1034.4 C 946.991 1033.97 955.343 1033.77 957.817 1033.66 L 958.056 1035.29 C 955.058 1035.76 951.817 1036.37 948.81 1036.59 C 948.117 1036.07 945.878 1034.87 945.039 1034.4 z"/>
<path transform="translate(0,0)" fill="rgb(1,1,1)" fill-opacity="0.164706" d="M 1112.38 1113.64 C 1110.11 1111.73 1107.15 1109.33 1106.64 1106.73 C 1110.01 1107.74 1111.69 1110.14 1114.19 1112.75 L 1112.38 1113.64 z"/>
</svg>