<svg version="1.1" xmlns="http://www.w3.org/2000/svg" style="display: block;" viewBox="0 0 2048 2048" width="1024" height="1024" preserveAspectRatio="none">
<defs>
	<linearGradient id="Gradient1" gradientUnits="userSpaceOnUse" x1="1143.51" y1="835.703" x2="1102.52" y2="840.53">
		<stop class="stop0" offset="0" stop-opacity="1" stop-color="rgb(13,0,9)"/>
		<stop class="stop1" offset="1" stop-opacity="1" stop-color="rgb(30,49,39)"/>
	</linearGradient>
</defs>
<path transform="translate(0,0)" fill="rgb(0,0,0)" d="M 900.612 348.105 C 954.201 347.108 1009.88 348.638 1063.5 348.571 L 1376.55 348.833 C 1477.59 349.45 1578.85 346.404 1679.89 348.388 C 1684.29 348.474 1694.95 348.152 1698.19 350.676 C 1700.87 358.814 1699.19 442.994 1699.09 457.077 L 1699.05 610.448 C 1699.01 628.789 1698.04 647.616 1698.17 665.697 L 1698.47 1435.51 C 1698.1 1495.38 1699.01 1555.32 1699.21 1615.18 C 1699.3 1642.71 1700.16 1671.43 1698.76 1698.85 C 1622.1 1700.52 1547.2 1699.42 1470.66 1699.54 L 853.75 1698.92 L 611.43 1699.46 C 596.664 1699.53 581.964 1698.63 567.637 1698.78 L 431.999 1699.13 C 403.239 1699.25 378.094 1700.91 349.037 1698.71 C 348.426 1687.07 349.056 1670.76 348.915 1658.42 C 348.392 1627.21 348.144 1595.99 348.173 1564.76 L 348.552 1292.93 L 348.903 349.165 C 393.753 347.634 444.167 349.299 489.538 349.2 L 749.172 348.028 C 798.784 348.006 851.284 347.009 900.612 348.105 z M 1693.7 1693.03 C 1695.24 1660.08 1694.16 1619.2 1694.15 1585.73 L 1693.64 1413.33 C 1693.35 1377.7 1692.1 1339.99 1692.23 1304.5 L 1694.07 353.947 L 1076.1 354.145 C 1064.66 354.068 1053.13 355.185 1042 355.089 C 993.236 354.671 943.015 356.956 894.48 355.713 C 883.428 356.08 868.517 354.991 856.503 355.126 C 817.705 355.918 778.895 356.061 740.092 355.555 C 715.454 354.916 691.097 355.585 666.518 355.714 C 647.598 355.813 627.726 354.045 608.713 354.072 L 432.769 354.078 C 407.344 353.984 378.942 354.547 353.826 353.733 C 355.182 444.244 353.53 536.234 353.999 626.914 L 355.987 1300.3 L 355.359 1575.55 C 355.182 1614.66 353.863 1655.25 354.186 1693.96 L 1191.71 1692.09 L 1546 1692.07 L 1654.53 1692.12 C 1667.17 1692.17 1681.54 1693.35 1693.7 1693.03 z"/>
<path transform="translate(0,0)" fill="rgb(0,0,0)" d="M 1006.26 470.75 C 1008.86 473.626 1009.8 523.592 1009.9 531.497 C 1010.16 551.158 1010.27 570.922 1009.7 590.574 C 1009.39 601.588 1008.2 612.655 1008.27 623.665 L 1008.31 1002.5 C 1008.19 1018.32 1009.99 1036.01 1009.09 1051.5 C 1007.49 1079.13 1009.52 1105.76 1009.56 1133.28 L 1007.96 1547.44 C 1008.05 1556.79 1007.95 1563.77 1007.28 1573.06 L 1006.32 1574.45 L 1007.09 1574.64 L 1006.57 1575.91 C 1002.54 1566.34 1004.08 1519.57 1004.08 1506.86 L 1004.02 1371.19 L 1004.09 652.179 C 1004.15 604.42 1001.26 557.208 1003.81 509.441 C 1004.28 500.464 1002.55 476.719 1006.26 470.75 z"/>
<path transform="translate(0,0)" fill="rgb(0,0,0)" d="M 688.828 539.079 L 691.812 540.699 C 694.065 544.318 693.926 572.399 693.975 578.383 L 693.202 1189 L 693.892 1439.44 C 693.913 1480.76 695.332 1535.05 692.408 1575.77 L 691.412 1576.83 L 690.067 1576.05 C 688.009 1569.2 688.776 1538.9 688.699 1529.13 L 688.135 1446.98 L 688.688 1050.5 L 688.439 691.727 L 688.21 591.144 C 688.221 574.251 687.749 555.77 688.828 539.079 z"/>
<path transform="translate(0,0)" fill="rgb(0,0,0)" d="M 749.834 538.598 C 755.145 542.615 753.821 560.215 753.884 567.355 L 753.206 1220.26 L 753.79 1460.79 C 753.759 1495.29 755.153 1540.84 752.875 1574.54 L 751.355 1576.51 L 749.908 1575.8 C 746.415 1564.64 748.859 1517.79 748.776 1504.3 L 748.175 1290.35 L 748.568 762.023 L 748.148 600.429 C 748.196 586.896 747.262 548.913 749.834 538.598 z"/>
<path transform="translate(0,0)" fill="rgb(0,0,0)" d="M 719.225 538.591 L 721.416 540.019 C 725.022 545.88 723.171 629.688 723.188 643.7 L 723.842 807.399 L 723.812 1193.03 C 723.633 1250.49 722.899 1309.93 723.543 1367.21 C 724.06 1406.97 724.193 1446.73 723.941 1486.5 C 723.914 1515.67 724.149 1547.36 722.729 1576.44 C 720.439 1576.93 721.51 1577.1 719.509 1575.97 C 716.826 1567.16 718.794 1514.87 718.802 1501.91 L 718.179 1372.73 L 718.48 761.831 L 718.216 608.045 C 718.292 588.771 717.296 556.732 719.225 538.591 z"/>
<path transform="translate(0,0)" fill="rgb(0,0,0)" d="M 658.922 539.168 C 661.319 540.061 660.504 539.586 662.349 541.375 C 665.062 552.351 664.01 601.056 664.006 615.127 L 663.116 800.347 L 663.901 1549.14 C 663.846 1556.42 664.251 1571.71 661.377 1577.62 L 659.099 1575.48 C 657.272 1552.31 659.177 1529.04 658.863 1506.09 C 658.453 1476.15 658.192 1446.9 658.356 1416.94 L 658.679 1144.74 L 658.137 872.217 C 658.183 849.262 660.265 825.313 659.894 802.85 C 658.869 740.827 657.73 678.296 658.196 616.295 C 658.372 592.914 657.188 561.52 658.922 539.168 z"/>
<path transform="translate(0,0)" fill="rgb(0,0,0)" d="M 810.28 538.62 L 812.606 540.333 C 814.253 544.305 813.941 552.392 813.973 557.11 L 813.945 1314.4 L 813.731 1518.36 C 813.593 1531.13 815.178 1565.12 811.906 1575.38 L 810.288 1576.04 L 809.115 1573.05 C 808.427 1554.61 809.76 1539.68 809.591 1522.18 L 808.637 1347.37 L 809.049 801.858 L 808.613 601.241 C 808.693 589.536 807.855 547.125 810.28 538.62 z"/>
<path transform="translate(0,0)" fill="rgb(0,0,0)" d="M 630.195 538.521 L 632.436 540.041 C 635.188 546.048 633.636 678.664 633.657 691.104 L 633.931 1060.54 L 633.906 1397.79 C 633.921 1454.48 633.699 1511.26 634.083 1567.95 C 634.107 1571.44 634.3 1574.27 632.103 1576.42 L 629.288 1575.76 C 628.225 1555.79 628.485 1532.49 628.365 1512.41 L 628.672 1372.86 L 628.798 974.601 C 627.813 855.959 627.775 737.311 628.683 618.668 C 628.878 604.915 627.792 547.851 630.195 538.521 z"/>
<path transform="translate(0,0)" fill="rgb(0,0,0)" d="M 780.832 538.624 C 785.596 543.305 783.898 566.392 783.864 574.227 L 783.898 622.921 L 783.996 804.685 L 783.849 1417.64 C 784.041 1452.47 783.994 1487.29 783.709 1522.11 C 783.666 1530.45 785.261 1571.71 781.598 1576.65 L 779.171 1576.67 C 776.097 1517.81 780.199 1456.76 778.29 1397.69 C 777.853 1384.15 779.572 1369.56 779.508 1355.83 L 779.435 730.49 C 779.59 709.172 775.518 546.767 780.832 538.624 z"/>
<path transform="translate(0,0)" fill="rgb(0,0,0)" d="M 870.53 538.413 C 871.836 539.356 873.689 540.851 873.74 542.505 C 874.346 562.097 874.03 584.477 874.015 603.796 L 874.033 761.942 L 874.004 1375.52 L 873.97 1503.84 C 873.956 1513.78 875.359 1572 871.262 1576.77 L 869.487 1576 C 867.917 1558.81 869.144 1523.85 869.214 1505.23 L 868.913 1385.28 L 868.937 760.191 L 868.945 666.478 C 868.837 650.994 867.028 547.539 870.53 538.413 z"/>
<path transform="translate(0,0)" fill="rgb(0,0,0)" d="M 900.181 538.381 C 902.511 539.703 901.749 539.032 903.179 541.399 C 905.211 560.013 904.018 608.846 904.014 629.633 L 904.009 802.948 C 903.986 1055.48 903.776 1308.64 903.879 1561.2 C 903.88 1565.56 903.782 1571.85 901.977 1575.79 L 900.18 1575.9 L 899.007 1573.09 C 897.692 1535.61 899.984 1491.29 899.436 1452.46 C 897.807 1256.05 897.623 1059.62 898.886 863.211 L 898.58 614.956 C 898.714 599.076 897.412 551.718 900.181 538.381 z"/>
<path transform="translate(0,0)" fill="rgb(0,0,0)" d="M 840.649 538.523 C 845.774 543.62 844.004 562.147 843.991 569.929 L 843.93 618.732 L 844.075 760.88 C 844.059 781.485 843.282 801.139 843.601 821.867 C 844.304 867.477 843.854 913.446 843.897 959.068 L 843.929 1232.67 L 844.022 1450.6 C 844.03 1489.72 844.094 1529.15 843.576 1568.28 C 843.53 1571.76 843.423 1574.68 841.121 1577.11 L 839.531 1575.94 L 839.016 1572.25 C 837.003 1540.08 839.013 1495.36 838.9 1461.97 L 838.973 1201.5 L 839.737 810.503 L 839.269 667.175 C 839.156 649.524 836.712 549.467 840.649 538.523 z"/>
<path transform="translate(0,0)" fill="rgb(0,0,0)" d="M 1309.92 667.592 L 1312.68 670.123 C 1314.85 688.772 1312.97 723.938 1313.11 744.016 L 1313.86 904.657 L 1314 1394.96 L 1314.05 1509 C 1314.06 1518.87 1315.55 1571.68 1311.67 1576.75 L 1309.86 1576.55 L 1309.01 1574.16 C 1307.81 1552.13 1308.64 1531.59 1308.65 1509.57 L 1308.7 1397 L 1308.69 1098.89 L 1308.65 855.584 L 1308.73 716.89 C 1308.8 706.354 1307.21 674.992 1309.92 667.592 z"/>
<path transform="translate(0,0)" fill="rgb(0,0,0)" d="M 974.67 539.229 L 977.408 541.207 C 978.443 546.694 977.871 557.961 978.168 563.999 C 979.14 583.718 978.935 603.455 978.975 623.194 L 977.994 834.261 L 977.932 1570.25 C 977.95 1572.7 978.083 1575.53 975.27 1576.25 C 972.361 1568.92 974.13 1357.9 974.001 1331.48 L 974.025 765.759 C 973.769 714.874 973.782 663.988 974.065 613.104 C 974.052 597.227 972.923 553.181 974.67 539.229 z"/>
<path transform="translate(0,0)" fill="rgb(0,0,0)" d="M 944.3 539.523 C 946.269 540.542 945.551 540.089 947.011 541.994 C 949.514 563.555 947.948 611.203 947.928 634.39 L 947.845 814.449 L 949.002 1428.57 C 949.121 1452.35 947.312 1477.42 948.194 1501.34 C 948.563 1511.36 949.372 1570.64 946.533 1577.36 C 944.264 1574.16 944.212 1574.21 944.174 1569.53 C 943.85 1529.75 944.147 1489.77 944.008 1450 L 944.108 1142.35 L 944.046 749.495 C 944.06 680.957 942.572 607.517 944.3 539.523 z"/>
<path transform="translate(0,0)" fill="rgb(0,0,0)" d="M 1385.09 668.306 C 1385.57 668.529 1386.12 668.632 1386.52 668.974 C 1392.04 673.748 1387.85 888.623 1387.87 912.343 L 1388.01 1572.25 L 1388 1573.23 L 1387.22 1574.25 L 1387.63 1575.36 L 1386.61 1575.76 L 1385.49 1574.43 C 1383.16 1562.73 1384.06 1524.69 1384.07 1510.85 L 1384.07 1387.83 L 1384.56 874.997 C 1384.58 821.072 1383.44 766.812 1384.42 712.851 C 1384.63 701.042 1383.03 678.305 1385.09 668.306 z"/>
<path transform="translate(0,0)" fill="rgb(0,0,0)" d="M 1446.06 667.805 L 1448.58 670.327 C 1449.84 682.517 1448.16 700.585 1448.25 713.496 C 1448.87 807.697 1449.45 903.711 1449.18 997.739 L 1448.17 1294.99 L 1448.06 1494.58 C 1448.05 1519.25 1449.38 1544.14 1448.99 1568.54 C 1448.68 1572.06 1448.57 1572.37 1447.63 1575.59 L 1446.28 1575.97 C 1441.43 1563.39 1444.3 1369.41 1444.26 1339.91 L 1444.11 888.003 C 1444.1 859.895 1442.44 676.778 1446.06 667.805 z"/>
<path transform="translate(0,0)" fill="rgb(0,0,0)" d="M 1324.77 669.237 L 1326.81 670.097 C 1328.54 672.728 1329.16 751.807 1329.21 760.959 L 1327.97 1276.9 C 1327.73 1372.79 1330.45 1468.41 1327.99 1564.49 C 1328.09 1570.03 1328.45 1571.62 1326.1 1576.61 L 1325.2 1575.87 C 1323.24 1567.58 1324.37 1554.75 1324.33 1545.86 C 1324.08 1524.71 1324 1503.56 1324.1 1482.41 C 1323.8 1396.29 1324 1310.17 1324.71 1224.06 L 1324.17 848.275 L 1324 730.04 C 1324.02 713.738 1323.24 684.142 1324.77 669.237 z"/>
<path transform="translate(0,0)" fill="rgb(0,0,0)" d="M 1204.92 668.324 L 1207.56 670.23 C 1209.67 701.366 1208.63 735.381 1208.36 766.456 L 1207.98 881.173 L 1208.32 1250.65 C 1208.89 1321.27 1207.96 1392.29 1207.91 1462.9 L 1207.93 1532.39 C 1207.94 1539.92 1209.4 1571.75 1205.81 1575.61 C 1204.06 1573.61 1204.37 1571.44 1204.22 1568.65 C 1203.44 1485.01 1203.4 1401.36 1204.11 1317.71 L 1204.06 902.304 C 1204.25 854.722 1203.32 806.78 1203.91 759.115 C 1204.22 734.164 1200.71 691.988 1204.92 668.324 z"/>
<path transform="translate(0,0)" fill="rgb(0,0,0)" d="M 1264.85 668.578 C 1265.87 669.412 1266.02 669.893 1266.8 671.025 C 1268.16 684.547 1267.99 702.715 1268.07 716.432 C 1268.16 742.373 1268.11 768.314 1267.92 794.255 L 1267.72 991 L 1267.63 1333.97 C 1267.71 1362.44 1270.27 1565.63 1266.07 1575.63 L 1264.91 1572.93 L 1264.86 1573.71 L 1266.41 1573.63 L 1264.67 1572.69 C 1263.85 1568.77 1264.09 1562.54 1264.09 1558.34 L 1264.1 862.395 C 1264.28 812.197 1262.19 761.683 1263.89 711.384 C 1264.18 702.707 1263.19 675.172 1264.85 668.578 z"/>
<path transform="translate(0,0)" fill="rgb(0,0,0)" d="M 1234.75 668.413 L 1236.78 670.161 C 1238.77 677.585 1237.99 715.564 1237.99 725.014 L 1237.97 841.935 C 1239.08 1018.46 1238.88 1194.98 1237.4 1371.5 L 1238 1520.76 C 1237.92 1537.55 1238.13 1555.44 1237.87 1572.25 C 1237.82 1575.43 1237.1 1575.19 1234.93 1576.73 C 1233.18 1563.29 1234.05 1527.17 1234.07 1512.78 C 1233.73 1473.14 1233.75 1433.5 1234.12 1393.87 L 1234.06 1011.79 L 1234.09 785.328 L 1233.95 710.898 C 1233.92 700.834 1233.38 677.45 1234.75 668.413 z"/>
<path transform="translate(0,0)" fill="rgb(0,0,0)" d="M 1356.13 668.661 L 1357.21 669.662 C 1358.68 674.61 1357.95 724.465 1357.97 732.383 L 1358.04 926.882 L 1358.18 1572.25 L 1357.81 1575.46 L 1356.56 1575.81 C 1353.62 1569.15 1354.13 1510.42 1354.1 1499.27 C 1353.83 1439.79 1353.97 1380.32 1354.54 1320.85 L 1354.05 856.413 L 1354.06 734.455 C 1354.06 725.679 1352.66 673.221 1356.13 668.661 z"/>
<path transform="translate(0,0)" fill="rgb(0,0,0)" d="M 1295.18 668.775 L 1296.97 670.607 C 1298.65 680.14 1297.92 723.352 1297.92 734.903 L 1297.97 873.667 L 1299.28 1363.24 L 1298.04 1494.61 C 1298 1505.42 1299.08 1571.63 1296.48 1577.29 C 1296.16 1576.93 1294.75 1575.56 1294.74 1574.95 C 1293.51 1509.49 1294.08 1413.31 1294.1 1350.69 L 1294.16 968.5 C 1293.56 871.238 1293.53 773.973 1294.05 676.711 C 1294.1 672.822 1293.86 672.36 1295.18 668.775 z"/>
<path transform="translate(0,0)" fill="rgb(0,0,0)" d="M 1339.6 940.198 C 1341.33 940.974 1342.84 941.162 1343.01 942.577 C 1345.06 960.014 1343.84 987.057 1343.89 1004.26 L 1343.62 1232.5 L 1343.29 1472.5 C 1343.19 1488.43 1346.14 1568.67 1341.51 1578.17 L 1339.51 1575.73 C 1337.48 1567.31 1338.19 1495.48 1338.2 1482.05 L 1338.72 1230 L 1338.91 1034.52 L 1338.68 972.475 C 1338.71 963.805 1338.38 948.436 1339.6 940.198 z"/>
<path transform="translate(0,0)" fill="rgb(0,0,0)" d="M 1034.91 941.28 L 1037.12 942.698 C 1038.82 949.713 1037.65 975.519 1038.11 984.491 C 1038.64 994.731 1039.44 1008.6 1039.62 1018.82 C 1040.2 1068.23 1040.11 1117.64 1039.34 1167.04 C 1039.1 1189.94 1039.91 1215.18 1039.91 1238.53 L 1039.83 1449.85 C 1039.84 1478.46 1040.1 1507.17 1039.93 1535.76 C 1039.86 1549.93 1037.73 1560.93 1038.09 1575.76 C 1037.48 1575.84 1036 1575.66 1035.3 1575.6 C 1033.13 1571.52 1034.11 1475.69 1034.11 1463.49 L 1034.42 1124.58 C 1034.11 1085.13 1034.01 1045.68 1034.11 1006.23 C 1034.09 989.302 1033.18 957.352 1034.91 941.28 z"/>
<path transform="translate(0,0)" fill="rgb(0,0,0)" d="M 599.919 940.288 C 601.189 940.91 602.109 941.076 602.875 942.361 C 605.717 947.134 604.036 1063.63 604.04 1082.57 L 603.968 1443.9 L 604.025 1529.76 C 604.095 1543.23 604.826 1558.69 603.637 1572.08 C 603.327 1575.57 601.839 1576.18 599.587 1577.72 C 598.624 1569.56 598.761 1549.7 598.612 1540.82 C 598.341 1509.21 598.403 1477.6 598.796 1445.99 L 599.054 1242.37 L 598.969 1024.74 C 598.967 1008.94 597.332 951.567 599.919 940.288 z"/>
<path transform="translate(0,0)" fill="rgb(0,0,0)" d="M 540.662 941.219 C 546.341 944.361 543.639 958.165 543.967 964.51 C 545.802 999.942 544.162 1035.11 543.962 1070.5 L 544.202 1214.62 L 544.264 1457.84 C 544.09 1495.46 545.12 1539.48 543.572 1576.12 L 541.062 1575.69 C 538.969 1570.72 540.104 1499.18 540.053 1488.7 L 540.057 1103.22 C 540.13 1059.93 538.205 1017.11 539.691 974.04 C 540.059 963.362 539.571 951.727 540.662 941.219 z"/>
<path transform="translate(0,0)" fill="rgb(0,0,0)" d="M 1065.93 940.347 L 1067.96 941.591 C 1070.67 945.716 1069.21 1022.09 1069.25 1033.71 C 1070.21 1118.31 1070.14 1202.92 1069.02 1287.53 L 1069.57 1453.16 L 1067.94 1576.47 L 1066.32 1576.4 C 1063.47 1571.28 1064.09 1473.33 1064.09 1460.57 L 1064.59 1136.85 C 1064.14 1093.36 1063.98 1049.87 1064.1 1006.39 C 1064.09 992.484 1063.25 951.319 1065.93 940.347 z"/>
<path transform="translate(0,0)" fill="rgb(0,0,0)" d="M 570.245 940.287 C 576.097 942.473 574.076 955.931 574.071 962.002 L 574.049 999.241 L 574.045 1126.98 L 574.024 1566.87 C 573.995 1570.17 573.982 1573.18 571.981 1575.84 L 570.704 1575.06 L 570.046 1571.04 L 569.285 1147.61 L 569.767 1012 C 569.912 987.939 568.973 964.586 570.245 940.287 z"/>
<path transform="translate(0,0)" fill="rgb(0,0,0)" d="M 510.685 941.286 C 511.475 941.857 512.856 942.607 512.904 943.397 C 515.147 980.74 513.892 1046.96 513.926 1081.5 L 514.11 1342.5 L 513.877 1505.41 C 513.833 1515.73 515.056 1571.56 512.515 1577.18 C 511.327 1575.7 510.393 1574.69 510.389 1572.63 C 510.19 1472.77 508.874 1372.54 508.751 1272.73 L 510.046 1084.74 C 510.115 1043.59 508.513 1002.5 510.022 961.245 C 510.271 954.435 509.747 948.161 510.685 941.286 z"/>
<path transform="translate(0,0)" fill="rgb(0,0,0)" d="M 914.573 893.24 C 916.925 893.999 916.763 893.925 918.358 895.825 C 920.246 922.633 917.679 951.17 918.041 977.533 C 918.514 1011.96 918.07 1045.32 918.026 1079.7 L 917.927 1434.17 C 917.931 1450.92 919.649 1569.38 916.578 1577.79 C 914.731 1574.87 914.32 1573.7 914.289 1570.03 C 913.9 1524.5 914.138 1478.7 914.077 1433.19 L 914.039 1170 L 914.038 973.506 C 914.142 947.889 913.38 918.47 914.573 893.24 z"/>
<path transform="translate(0,0)" fill="rgb(0,0,0)" d="M 1120.93 1008.38 C 1123.28 1008.18 1124.56 1007.69 1126.82 1007.03 C 1126.34 1017.86 1126.98 1029.33 1127.2 1040.23 C 1125.27 1050.16 1126.26 1065.06 1126.16 1075.48 C 1125.31 1170.01 1127.03 1265.16 1126.93 1359.58 L 1126.11 1572.14 C 1126.09 1574.06 1126.06 1574.08 1125.05 1575.7 L 1123.32 1575.81 C 1121.56 1573.87 1121.39 1573.65 1121.35 1570.34 L 1120.74 1148.47 C 1120.63 1122.17 1122.47 1095.89 1121.95 1069.59 C 1121.76 1059.53 1121.28 1049.48 1121.06 1039.42 C 1121.11 1029.07 1121.06 1018.72 1120.93 1008.38 z"/>
<path transform="translate(0,0)" fill="url(#Gradient1)" d="M 1120.93 1008.38 C 1118.9 966.924 1122.13 928.443 1122.04 887.639 C 1121.92 836.314 1118.17 785.573 1122.02 733.981 C 1123.51 713.965 1121.43 690.847 1122.16 670.283 L 1123.76 669.346 L 1124.78 670.63 C 1126.13 678.55 1125.91 723.857 1125.99 735.074 L 1126.75 872.952 C 1126.77 900.638 1127.91 928.185 1127.82 955.865 C 1127.77 973.055 1128.9 989.92 1126.82 1007.03 C 1124.56 1007.69 1123.28 1008.18 1120.93 1008.38 z"/>
<path transform="translate(0,0)" fill="rgb(0,0,0)" d="M 1279.89 1222.56 C 1282.29 1224.28 1283.57 1225.76 1283.65 1228.97 C 1284.11 1246.45 1283.95 1263.99 1283.96 1281.48 L 1283.96 1390.28 L 1284.01 1502.66 C 1284.06 1526.18 1284.06 1550.27 1282.68 1573.81 C 1282.55 1576.04 1281.84 1576.92 1280.5 1578.53 C 1276.49 1569.81 1278.73 1508.04 1278.71 1494.81 L 1278.22 1336.5 L 1278.2 1267.2 C 1278.19 1256.6 1277.63 1232.08 1279.89 1222.56 z"/>
<path transform="translate(0,0)" fill="rgb(0,0,0)" d="M 929.655 539.212 L 932.623 540.465 C 934.526 544.233 933.961 568.324 933.963 574.299 L 933.963 645.523 L 933.972 805.238 C 933.979 832.879 934.025 860.623 933.916 888.259 C 933.895 893.398 934.3 893.545 931.684 897.113 C 929.483 894.633 929.168 893.898 929.114 890.534 C 928.79 870.166 929.112 849.776 928.908 829.403 L 928.649 674.498 L 928.787 587.868 C 928.801 574.853 928.211 551.173 929.655 539.212 z"/>
<path transform="translate(0,0)" fill="rgb(0,0,0)" d="M 960.206 538.494 L 961.629 539.813 C 964.736 549.881 963.767 598.324 963.699 611.494 L 963.224 722.537 L 963.948 836.336 C 963.949 855.217 964.417 877.141 962.945 895.679 C 961.142 895.896 962.167 895.945 959.914 895.137 C 956.925 888.908 958.647 822.652 958.646 810.297 C 958.223 759.015 958.079 707.732 958.215 656.449 C 958.122 629.46 958.242 602.47 958.576 575.483 C 958.691 566.748 958.347 545.881 960.206 538.494 z"/>
<path transform="translate(0,0)" fill="rgb(0,0,0)" d="M 1415.12 1222.52 L 1416.87 1223.66 C 1421.35 1232.93 1419.57 1536.59 1417.69 1576.29 L 1416.04 1576.21 C 1414.21 1573.27 1414.31 1564.63 1414.26 1561.02 C 1413.53 1482.2 1413.49 1403.38 1414.15 1324.56 C 1414.13 1310.89 1413.04 1230.2 1415.12 1222.52 z"/>
<path transform="translate(0,0)" fill="rgb(0,0,0)" d="M 1475.06 1223.37 C 1475.5 1223.63 1475.97 1223.84 1476.38 1224.15 C 1482.07 1228.46 1477.96 1538.49 1477.91 1575.76 C 1476.71 1576.05 1477.54 1575.92 1475.36 1575.63 C 1474 1572.92 1473.96 1569.53 1473.96 1566.47 C 1474.08 1488.64 1474.16 1410.64 1474.09 1332.82 L 1473.89 1263.24 C 1473.87 1253.91 1473.3 1231.83 1475.06 1223.37 z"/>
<path transform="translate(0,0)" fill="rgb(0,0,0)" d="M 1535.12 1222.45 C 1535.8 1222.8 1536.94 1223.7 1537.6 1224.19 C 1539.44 1231 1538.4 1302.42 1538.39 1312.9 L 1537.92 1576.67 C 1536.2 1576.93 1537.12 1577.03 1535.23 1575.96 C 1532.51 1569.31 1534 1518.62 1534.03 1507.66 L 1534.04 1383.2 L 1533.88 1268.96 C 1533.9 1260.55 1533.35 1228.9 1535.12 1222.45 z"/>
<path transform="translate(0,0)" fill="rgb(0,0,0)" d="M 1504.83 1222.36 C 1506.95 1223.58 1506.25 1223.09 1507.9 1225.01 C 1509.49 1245.51 1508 1273.3 1508.12 1294.18 C 1508.26 1317.85 1507.94 1341.88 1508.15 1365.53 L 1508.4 1500.62 C 1508.46 1517.3 1509.71 1560.57 1507.84 1576.71 C 1506.82 1576.85 1506.31 1576.58 1505.21 1576.33 C 1503.71 1573.4 1503.85 1570.79 1503.85 1567.51 C 1503.75 1486.35 1504.1 1405.08 1504.05 1323.94 L 1503.78 1261.12 C 1503.73 1252.5 1503.06 1229.68 1504.83 1222.36 z"/>
<path transform="translate(0,0)" fill="rgb(0,0,0)" d="M 1148.86 1223.33 C 1149.33 1223.62 1149.85 1223.83 1150.27 1224.19 C 1155.21 1228.5 1151.9 1541.85 1151.96 1574.03 L 1151.34 1575.7 L 1149.96 1576.17 C 1146.87 1571.79 1148.19 1504.85 1148.17 1495.82 C 1147.71 1441.43 1147.68 1387.03 1148.09 1332.64 L 1147.98 1262.23 C 1147.97 1252.84 1147.47 1231.91 1148.86 1223.33 z"/>
<path transform="translate(0,0)" fill="rgb(0,0,0)" d="M 1279.06 668.218 L 1281.53 669.39 C 1285.41 678.124 1283.86 917.218 1282.7 944.486 C 1280.18 943.741 1280.97 944.188 1279.08 942.454 C 1277.92 937.61 1276.24 682.334 1279.06 668.218 z"/>
<path transform="translate(0,0)" fill="rgb(0,0,0)" d="M 1176.63 1223.29 C 1177.99 1224.28 1179.18 1224.98 1179.26 1226.96 C 1180.8 1263.13 1180 1300.18 1179.9 1336.36 C 1180.23 1388.44 1180.1 1440.52 1179.49 1492.59 C 1179.46 1506.74 1181.89 1570.6 1177.5 1577.81 C 1173.71 1567.65 1176.06 1500.01 1176.07 1485 L 1176.08 1335 C 1176.14 1307.83 1174.29 1280.84 1175.73 1253.48 C 1176.25 1243.49 1175.53 1233.48 1176.63 1223.29 z"/>
<path transform="translate(0,0)" fill="rgb(0,0,0)" d="M 1094.8 1223.38 L 1096.55 1224.81 C 1098.58 1232.68 1097.96 1262.27 1097.97 1271.4 L 1097.94 1355.34 L 1097.7 1502.39 C 1097.7 1524.72 1098.04 1547.19 1098.02 1569.52 C 1098.02 1572.96 1098.07 1574.25 1096.1 1576.12 L 1094.34 1574.73 C 1092.71 1495.14 1094.04 1411.79 1094.16 1332 L 1093.97 1257.26 C 1094.01 1248.48 1093.56 1231.55 1094.8 1223.38 z"/>
<path transform="translate(0,0)" fill="rgb(26,25,27)" d="M 749.172 348.028 C 798.784 348.006 851.284 347.009 900.612 348.105 C 904.717 349.006 908.161 349.321 911.453 351.802 L 911.179 353.164 C 905.144 355.497 900.997 355.095 894.48 355.713 C 883.428 356.08 868.517 354.991 856.503 355.126 C 817.705 355.918 778.895 356.061 740.092 355.555 L 740.781 351.808 C 744.1 348.554 743.973 349.428 749.172 348.028 z"/>
</svg>