<svg version="1.1" xmlns="http://www.w3.org/2000/svg" style="display: block;" viewBox="0 0 2048 2048" width="1024" height="1024" preserveAspectRatio="none">
<defs>
	<linearGradient id="Gradient1" gradientUnits="userSpaceOnUse" x1="447.137" y1="445.47" x2="438.689" y2="439.733">
		<stop class="stop0" offset="0" stop-opacity="1" stop-color="rgb(32,33,35)"/>
		<stop class="stop1" offset="1" stop-opacity="1" stop-color="rgb(58,57,54)"/>
	</linearGradient>
	<linearGradient id="Gradient2" gradientUnits="userSpaceOnUse" x1="1480.87" y1="317.312" x2="1493.13" y2="268.688">
		<stop class="stop0" offset="0" stop-opacity="1" stop-color="rgb(0,0,0)"/>
		<stop class="stop1" offset="1" stop-opacity="1" stop-color="rgb(48,50,50)"/>
	</linearGradient>
	<linearGradient id="Gradient3" gradientUnits="userSpaceOnUse" x1="1716.24" y1="536.595" x2="1737.42" y2="523.531">
		<stop class="stop0" offset="0" stop-opacity="1" stop-color="rgb(34,35,36)"/>
		<stop class="stop1" offset="1" stop-opacity="1" stop-color="rgb(61,61,60)"/>
	</linearGradient>
	<linearGradient id="Gradient4" gradientUnits="userSpaceOnUse" x1="1873.67" y1="829.421" x2="1838.76" y2="835.187">
		<stop class="stop0" offset="0" stop-opacity="1" stop-color="rgb(0,0,0)"/>
		<stop class="stop1" offset="1" stop-opacity="1" stop-color="rgb(38,38,37)"/>
	</linearGradient>
	<linearGradient id="Gradient5" gradientUnits="userSpaceOnUse" x1="94.6723" y1="973.886" x2="381.87" y2="549.128">
		<stop class="stop0" offset="0" stop-opacity="1" stop-color="rgb(0,0,0)"/>
		<stop class="stop1" offset="1" stop-opacity="1" stop-color="rgb(38,36,37)"/>
	</linearGradient>
	<linearGradient id="Gradient6" gradientUnits="userSpaceOnUse" x1="191.58" y1="997.734" x2="486.753" y2="1048.58">
		<stop class="stop0" offset="0" stop-opacity="1" stop-color="rgb(10,10,10)"/>
		<stop class="stop1" offset="1" stop-opacity="1" stop-color="rgb(47,48,47)"/>
	</linearGradient>
	<linearGradient id="Gradient7" gradientUnits="userSpaceOnUse" x1="563.097" y1="495.576" x2="544.458" y2="484.151">
		<stop class="stop0" offset="0" stop-opacity="1" stop-color="rgb(19,19,24)"/>
		<stop class="stop1" offset="1" stop-opacity="1" stop-color="rgb(49,48,44)"/>
	</linearGradient>
	<linearGradient id="Gradient8" gradientUnits="userSpaceOnUse" x1="497.27" y1="1264.12" x2="531.745" y2="1263.87">
		<stop class="stop0" offset="0" stop-opacity="1" stop-color="rgb(36,41,34)"/>
		<stop class="stop1" offset="1" stop-opacity="1" stop-color="rgb(81,77,83)"/>
	</linearGradient>
	<linearGradient id="Gradient9" gradientUnits="userSpaceOnUse" x1="456.098" y1="1326.24" x2="443.781" y2="1334.51">
		<stop class="stop0" offset="0" stop-opacity="1" stop-color="rgb(25,24,24)"/>
		<stop class="stop1" offset="1" stop-opacity="1" stop-color="rgb(55,57,55)"/>
	</linearGradient>
	<linearGradient id="Gradient10" gradientUnits="userSpaceOnUse" x1="1513.34" y1="655.368" x2="1504.13" y2="663.225">
		<stop class="stop0" offset="0" stop-opacity="1" stop-color="rgb(43,42,43)"/>
		<stop class="stop1" offset="1" stop-opacity="1" stop-color="rgb(79,82,81)"/>
	</linearGradient>
	<linearGradient id="Gradient11" gradientUnits="userSpaceOnUse" x1="1599.82" y1="1468.38" x2="1566.01" y2="1453">
		<stop class="stop0" offset="0" stop-opacity="1" stop-color="rgb(0,0,0)"/>
		<stop class="stop1" offset="1" stop-opacity="1" stop-color="rgb(38,37,38)"/>
	</linearGradient>
	<linearGradient id="Gradient12" gradientUnits="userSpaceOnUse" x1="438.579" y1="1391.65" x2="419.066" y2="1405.12">
		<stop class="stop0" offset="0" stop-opacity="1" stop-color="rgb(10,10,9)"/>
		<stop class="stop1" offset="1" stop-opacity="1" stop-color="rgb(54,54,54)"/>
	</linearGradient>
	<linearGradient id="Gradient13" gradientUnits="userSpaceOnUse" x1="1717.74" y1="846.954" x2="1681.89" y2="853.334">
		<stop class="stop0" offset="0" stop-opacity="1" stop-color="rgb(0,0,0)"/>
		<stop class="stop1" offset="1" stop-opacity="1" stop-color="rgb(43,44,42)"/>
	</linearGradient>
	<linearGradient id="Gradient14" gradientUnits="userSpaceOnUse" x1="761.273" y1="1457.91" x2="739.65" y2="1526.33">
		<stop class="stop0" offset="0" stop-opacity="1" stop-color="rgb(0,0,0)"/>
		<stop class="stop1" offset="1" stop-opacity="1" stop-color="rgb(38,39,39)"/>
	</linearGradient>
	<linearGradient id="Gradient15" gradientUnits="userSpaceOnUse" x1="1725.75" y1="1214.99" x2="1649.79" y2="1209.13">
		<stop class="stop0" offset="0" stop-opacity="1" stop-color="rgb(0,0,0)"/>
		<stop class="stop1" offset="1" stop-opacity="1" stop-color="rgb(47,47,48)"/>
	</linearGradient>
	<linearGradient id="Gradient16" gradientUnits="userSpaceOnUse" x1="257.136" y1="853.923" x2="492.864" y2="776.077">
		<stop class="stop0" offset="0" stop-opacity="1" stop-color="rgb(0,1,0)"/>
		<stop class="stop1" offset="1" stop-opacity="1" stop-color="rgb(38,35,39)"/>
	</linearGradient>
	<linearGradient id="Gradient17" gradientUnits="userSpaceOnUse" x1="1421.45" y1="592.9" x2="1365.21" y2="701.821">
		<stop class="stop0" offset="0" stop-opacity="1" stop-color="rgb(32,32,33)"/>
		<stop class="stop1" offset="1" stop-opacity="1" stop-color="rgb(60,61,61)"/>
	</linearGradient>
	<linearGradient id="Gradient18" gradientUnits="userSpaceOnUse" x1="567.626" y1="693.511" x2="529.321" y2="661.984">
		<stop class="stop0" offset="0" stop-opacity="1" stop-color="rgb(21,21,22)"/>
		<stop class="stop1" offset="1" stop-opacity="1" stop-color="rgb(49,49,48)"/>
	</linearGradient>
	<linearGradient id="Gradient19" gradientUnits="userSpaceOnUse" x1="456.713" y1="1001.22" x2="528.797" y2="998.099">
		<stop class="stop0" offset="0" stop-opacity="1" stop-color="rgb(0,0,0)"/>
		<stop class="stop1" offset="1" stop-opacity="1" stop-color="rgb(41,42,41)"/>
	</linearGradient>
	<linearGradient id="Gradient20" gradientUnits="userSpaceOnUse" x1="357.552" y1="965.588" x2="531.92" y2="945.27">
		<stop class="stop0" offset="0" stop-opacity="1" stop-color="rgb(0,0,0)"/>
		<stop class="stop1" offset="1" stop-opacity="1" stop-color="rgb(43,43,43)"/>
	</linearGradient>
	<linearGradient id="Gradient21" gradientUnits="userSpaceOnUse" x1="706.24" y1="1032.48" x2="488.148" y2="1426.43">
		<stop class="stop0" offset="0" stop-opacity="1" stop-color="rgb(0,0,0)"/>
		<stop class="stop1" offset="1" stop-opacity="1" stop-color="rgb(34,35,34)"/>
	</linearGradient>
	<linearGradient id="Gradient22" gradientUnits="userSpaceOnUse" x1="1006.2" y1="356.873" x2="1065.99" y2="628.414">
		<stop class="stop0" offset="0" stop-opacity="1" stop-color="rgb(0,0,0)"/>
		<stop class="stop1" offset="1" stop-opacity="1" stop-color="rgb(45,45,46)"/>
	</linearGradient>
	<linearGradient id="Gradient23" gradientUnits="userSpaceOnUse" x1="1679.77" y1="1009.74" x2="1477.84" y2="1002.19">
		<stop class="stop0" offset="0" stop-opacity="1" stop-color="rgb(8,8,8)"/>
		<stop class="stop1" offset="1" stop-opacity="1" stop-color="rgb(69,69,69)"/>
	</linearGradient>
	<linearGradient id="Gradient24" gradientUnits="userSpaceOnUse" x1="625.696" y1="1209.88" x2="614.804" y2="1220.63">
		<stop class="stop0" offset="0" stop-opacity="1" stop-color="rgb(50,47,50)"/>
		<stop class="stop1" offset="1" stop-opacity="1" stop-color="rgb(71,75,70)"/>
	</linearGradient>
	<linearGradient id="Gradient25" gradientUnits="userSpaceOnUse" x1="1307.41" y1="1372.59" x2="1302.6" y2="1365.44">
		<stop class="stop0" offset="0" stop-opacity="1" stop-color="rgb(37,36,38)"/>
		<stop class="stop1" offset="1" stop-opacity="1" stop-color="rgb(0,0,0)"/>
	</linearGradient>
	<linearGradient id="Gradient26" gradientUnits="userSpaceOnUse" x1="758.456" y1="735.492" x2="748.087" y2="727.366">
		<stop class="stop0" offset="0" stop-opacity="1" stop-color="rgb(26,26,29)"/>
		<stop class="stop1" offset="1" stop-opacity="1" stop-color="rgb(67,67,65)"/>
	</linearGradient>
	<linearGradient id="Gradient27" gradientUnits="userSpaceOnUse" x1="722.982" y1="1260.7" x2="706.858" y2="1285.55">
		<stop class="stop0" offset="0" stop-opacity="1" stop-color="rgb(22,20,26)"/>
		<stop class="stop1" offset="1" stop-opacity="1" stop-color="rgb(54,56,52)"/>
	</linearGradient>
	<linearGradient id="Gradient28" gradientUnits="userSpaceOnUse" x1="799.493" y1="765.623" x2="792.321" y2="757.826">
		<stop class="stop0" offset="0" stop-opacity="1" stop-color="rgb(0,0,1)"/>
		<stop class="stop1" offset="1" stop-opacity="1" stop-color="rgb(46,45,45)"/>
	</linearGradient>
	<linearGradient id="Gradient29" gradientUnits="userSpaceOnUse" x1="1503.13" y1="921.043" x2="1520.04" y2="918.476">
		<stop class="stop0" offset="0" stop-opacity="1" stop-color="rgb(41,41,38)"/>
		<stop class="stop1" offset="1" stop-opacity="1" stop-color="rgb(0,0,0)"/>
	</linearGradient>
	<linearGradient id="Gradient30" gradientUnits="userSpaceOnUse" x1="1292.48" y1="750.707" x2="1305.79" y2="738.43">
		<stop class="stop0" offset="0" stop-opacity="1" stop-color="rgb(10,11,10)"/>
		<stop class="stop1" offset="1" stop-opacity="1" stop-color="rgb(47,47,47)"/>
	</linearGradient>
	<linearGradient id="Gradient31" gradientUnits="userSpaceOnUse" x1="715.859" y1="1295.12" x2="664.416" y2="1317.19">
		<stop class="stop0" offset="0" stop-opacity="1" stop-color="rgb(17,18,19)"/>
		<stop class="stop1" offset="1" stop-opacity="1" stop-color="rgb(60,60,59)"/>
	</linearGradient>
	<linearGradient id="Gradient32" gradientUnits="userSpaceOnUse" x1="1516.5" y1="1122.76" x2="1319.3" y2="1223.84">
		<stop class="stop0" offset="0" stop-opacity="1" stop-color="rgb(0,0,0)"/>
		<stop class="stop1" offset="1" stop-opacity="1" stop-color="rgb(35,32,34)"/>
	</linearGradient>
	<linearGradient id="Gradient33" gradientUnits="userSpaceOnUse" x1="639.791" y1="1299.04" x2="609.6" y2="1317.79">
		<stop class="stop0" offset="0" stop-opacity="1" stop-color="rgb(9,9,10)"/>
		<stop class="stop1" offset="1" stop-opacity="1" stop-color="rgb(58,59,58)"/>
	</linearGradient>
	<linearGradient id="Gradient34" gradientUnits="userSpaceOnUse" x1="1386.05" y1="625.797" x2="1329.8" y2="760.551">
		<stop class="stop0" offset="0" stop-opacity="1" stop-color="rgb(31,31,32)"/>
		<stop class="stop1" offset="1" stop-opacity="1" stop-color="rgb(62,65,61)"/>
	</linearGradient>
	<linearGradient id="Gradient35" gradientUnits="userSpaceOnUse" x1="621.641" y1="801.134" x2="578.915" y2="779.329">
		<stop class="stop0" offset="0" stop-opacity="1" stop-color="rgb(7,7,7)"/>
		<stop class="stop1" offset="1" stop-opacity="1" stop-color="rgb(40,41,40)"/>
	</linearGradient>
	<linearGradient id="Gradient36" gradientUnits="userSpaceOnUse" x1="1335.85" y1="848.302" x2="1409.81" y2="788.055">
		<stop class="stop0" offset="0" stop-opacity="1" stop-color="rgb(0,0,0)"/>
		<stop class="stop1" offset="1" stop-opacity="1" stop-color="rgb(41,41,40)"/>
	</linearGradient>
	<linearGradient id="Gradient37" gradientUnits="userSpaceOnUse" x1="1399.63" y1="1220.57" x2="1470.07" y2="1269.15">
		<stop class="stop0" offset="0" stop-opacity="1" stop-color="rgb(0,0,0)"/>
		<stop class="stop1" offset="1" stop-opacity="1" stop-color="rgb(35,35,35)"/>
	</linearGradient>
	<linearGradient id="Gradient38" gradientUnits="userSpaceOnUse" x1="1378.84" y1="1034.24" x2="1102.57" y2="987.183">
		<stop class="stop0" offset="0" stop-opacity="1" stop-color="rgb(15,15,14)"/>
		<stop class="stop1" offset="1" stop-opacity="1" stop-color="rgb(65,65,67)"/>
	</linearGradient>
	<linearGradient id="Gradient39" gradientUnits="userSpaceOnUse" x1="742.597" y1="1182.08" x2="812.255" y2="1176.93">
		<stop class="stop0" offset="0" stop-opacity="1" stop-color="rgb(33,34,31)"/>
		<stop class="stop1" offset="1" stop-opacity="1" stop-color="rgb(58,55,59)"/>
	</linearGradient>
	<linearGradient id="Gradient40" gradientUnits="userSpaceOnUse" x1="1217.87" y1="848.361" x2="1250.29" y2="823.455">
		<stop class="stop0" offset="0" stop-opacity="1" stop-color="rgb(11,12,10)"/>
		<stop class="stop1" offset="1" stop-opacity="1" stop-color="rgb(50,50,51)"/>
	</linearGradient>
	<linearGradient id="Gradient41" gradientUnits="userSpaceOnUse" x1="860.991" y1="1122.02" x2="848.508" y2="1134.49">
		<stop class="stop0" offset="0" stop-opacity="1" stop-color="rgb(21,20,18)"/>
		<stop class="stop1" offset="1" stop-opacity="1" stop-color="rgb(62,63,64)"/>
	</linearGradient>
	<linearGradient id="Gradient42" gradientUnits="userSpaceOnUse" x1="1185.85" y1="1114.5" x2="1202.56" y2="1132.94">
		<stop class="stop0" offset="0" stop-opacity="1" stop-color="rgb(16,19,13)"/>
		<stop class="stop1" offset="1" stop-opacity="1" stop-color="rgb(47,45,48)"/>
	</linearGradient>
	<linearGradient id="Gradient43" gradientUnits="userSpaceOnUse" x1="889.365" y1="975.242" x2="879.428" y2="970.935">
		<stop class="stop0" offset="0" stop-opacity="1" stop-color="rgb(0,0,0)"/>
		<stop class="stop1" offset="1" stop-opacity="1" stop-color="rgb(37,38,36)"/>
	</linearGradient>
	<linearGradient id="Gradient44" gradientUnits="userSpaceOnUse" x1="959.717" y1="1216.88" x2="963.481" y2="1199.77">
		<stop class="stop0" offset="0" stop-opacity="1" stop-color="rgb(0,0,0)"/>
		<stop class="stop1" offset="1" stop-opacity="1" stop-color="rgb(48,48,48)"/>
	</linearGradient>
	<linearGradient id="Gradient45" gradientUnits="userSpaceOnUse" x1="1148.23" y1="1080.88" x2="1162.62" y2="1088.79">
		<stop class="stop0" offset="0" stop-opacity="1" stop-color="rgb(0,0,0)"/>
		<stop class="stop1" offset="1" stop-opacity="1" stop-color="rgb(36,37,36)"/>
	</linearGradient>
	<linearGradient id="Gradient46" gradientUnits="userSpaceOnUse" x1="1129.08" y1="952.204" x2="1149.9" y2="936.483">
		<stop class="stop0" offset="0" stop-opacity="1" stop-color="rgb(0,0,0)"/>
		<stop class="stop1" offset="1" stop-opacity="1" stop-color="rgb(47,47,46)"/>
	</linearGradient>
	<linearGradient id="Gradient47" gradientUnits="userSpaceOnUse" x1="935.078" y1="1116.14" x2="916.615" y2="1133.28">
		<stop class="stop0" offset="0" stop-opacity="1" stop-color="rgb(18,18,16)"/>
		<stop class="stop1" offset="1" stop-opacity="1" stop-color="rgb(47,48,48)"/>
	</linearGradient>
	<linearGradient id="Gradient48" gradientUnits="userSpaceOnUse" x1="1274.26" y1="1053.2" x2="1172.98" y2="1035.64">
		<stop class="stop0" offset="0" stop-opacity="1" stop-color="rgb(13,13,13)"/>
		<stop class="stop1" offset="1" stop-opacity="1" stop-color="rgb(50,51,51)"/>
	</linearGradient>
</defs>
<path transform="translate(0,0)" fill="rgb(1,1,1)" d="M 785.256 1109.03 C 764.465 1060.41 767.643 988.369 785.075 938.946 C 807.998 875.152 855.25 823.031 916.497 793.981 C 975.855 766.011 1049.02 762.555 1110.76 785.244 C 1115.25 786.893 1121.99 789.35 1124.01 793.692 C 1118.68 794.939 1105.21 788.654 1099.64 786.881 C 1052.75 771.966 999.146 771.48 952.054 785.965 C 887.977 806.136 834.554 850.963 803.562 910.563 C 769.86 975.41 768.294 1039.4 790.236 1108 L 789.615 1107.19 C 786.716 1103.32 785.996 1101.74 783.936 1097.35 C 784.479 1100.94 785.429 1105.54 785.256 1109.03 z"/>
<path transform="translate(0,0)" fill="url(#Gradient48)" d="M 1211.75 861.949 C 1210.93 857.84 1207.69 855.194 1207.26 852.903 C 1210.87 855.938 1212.21 857.25 1216.54 858.983 C 1233.09 878.729 1246.69 899.196 1256.85 922.67 C 1300.65 1023.89 1273.94 1145.23 1189.25 1216.55 C 1185.55 1219.67 1181.86 1222.61 1177.87 1225.4 L 1174.37 1226.34 L 1173.56 1225.36 C 1175.2 1222.91 1176.52 1220.82 1178.04 1218.3 C 1231.82 1171.48 1265.83 1117 1271.86 1044.12 C 1276.88 977.815 1255.25 912.248 1211.75 861.949 z"/>
<path transform="translate(0,0)" fill="rgb(1,1,1)" d="M 1178.04 1218.3 C 1176.52 1220.82 1175.2 1222.91 1173.56 1225.36 L 1174.37 1226.34 L 1177.87 1225.4 C 1168.31 1233.67 1148.74 1244.95 1137.97 1250.43 C 1073.44 1283.29 1002.81 1286.15 934.992 1261.71 C 930.35 1260.04 926.156 1259.49 923.881 1255.04 L 925.194 1253.25 C 928.359 1253.23 952.581 1262.12 957.785 1263.59 C 968.916 1266.75 980.264 1269.07 991.737 1270.56 C 1060.85 1279.4 1123.04 1260.83 1178.04 1218.3 z"/>
<path transform="translate(0,0)" fill="rgb(47,47,46)" d="M 785.256 1109.03 C 785.429 1105.54 784.479 1100.94 783.936 1097.35 C 785.996 1101.74 786.716 1103.32 789.615 1107.19 L 790.236 1108 C 794.372 1117.22 798.474 1126.54 802.899 1135.65 C 825.06 1181.25 862.368 1218.54 906.89 1242.38 C 908.799 1243.4 908.944 1244.88 909.393 1246.64 L 907.801 1248.81 C 901.884 1247.31 891.059 1240.18 885.86 1236.77 C 851.538 1214.29 824.456 1185.44 803.719 1150.03 C 797.846 1140 787.838 1120.72 785.256 1109.03 z"/>
<path transform="translate(0,0)" fill="url(#Gradient47)" d="M 876.903 1072.03 C 877.686 1069.28 877.252 1070.11 878.772 1067.74 L 881.746 1068.97 C 899.313 1116.8 936.737 1157.02 987.691 1168.66 L 988.789 1172.27 L 990.665 1172.91 C 992.85 1173.67 993.099 1173.75 994.813 1175.39 C 986.323 1174.81 969.558 1169.51 961.808 1165.83 C 916.858 1144.48 894.241 1116.6 876.903 1072.03 z"/>
<path transform="translate(0,0)" fill="url(#Gradient46)" d="M 1084.19 887.015 C 1090.63 885.215 1089.93 886.423 1096.11 887.571 C 1117.49 893.834 1151.13 931.954 1160.94 951.747 C 1166.74 963.431 1181.26 1002.58 1177.34 1015.02 L 1175.51 1015.96 C 1171.95 1013.3 1171.92 1004.01 1171.19 999.509 C 1169.94 992.164 1168.15 984.921 1165.84 977.839 C 1151.86 935.018 1123.69 906.894 1084.19 887.015 z"/>
<path transform="translate(0,0)" fill="rgb(28,28,28)" d="M 1172.77 886.828 C 1196.67 895.81 1237.35 993.845 1225.97 1016.6 C 1225.08 1015.99 1223.62 1015.13 1223.47 1013.99 C 1222.18 1004.31 1220.76 994.066 1218.95 984.532 C 1213.7 956.827 1203.15 934.676 1187.67 911.537 C 1182.66 904.051 1176.18 897.032 1171.7 889.405 L 1172.77 886.828 z"/>
<path transform="translate(0,0)" fill="rgb(1,1,1)" d="M 998.648 821.357 C 1002.45 820.514 1013.35 819.892 1016.33 822.383 C 1015.41 825.794 1003.43 825.599 998.821 826.314 C 962.649 831.917 925.313 846.763 897.812 870.885 C 893.778 874.19 892.921 875.227 888.198 877.082 L 886.408 876.183 C 888.553 869.498 900.321 861.172 905.957 857.229 C 934.523 837.243 964.425 826.44 998.648 821.357 z"/>
<path transform="translate(0,0)" fill="rgb(1,1,1)" d="M 873.665 885.574 C 874.732 885.968 874.963 886.303 875.911 887.018 C 876.403 892.989 870.081 898.153 866.463 902.807 C 846.717 928.215 833.522 958.84 827.734 990.447 C 826.29 998.334 827.17 1009.42 824.564 1016.49 C 817.913 1013.42 821.819 999.062 822.616 992.816 C 827.688 953.107 847.135 915.228 873.665 885.574 z"/>
<path transform="translate(0,0)" fill="rgb(1,1,1)" d="M 1158.77 1170.71 C 1160.89 1172.03 1160.19 1171.54 1161.8 1173.59 C 1160.95 1177.31 1148.27 1185.98 1144.9 1188.52 C 1110.79 1214.34 1076.73 1223.7 1035.25 1227.79 C 1034.43 1227.57 1033.57 1226.91 1032.77 1226.42 C 1034.04 1222.68 1050.76 1221.32 1055.69 1220.53 C 1100.87 1213.3 1124.34 1197.33 1158.77 1170.71 z"/>
<path transform="translate(0,0)" fill="rgb(1,1,1)" d="M 898.904 933.691 C 925.313 898.377 957.273 878.464 1001.52 871.296 C 1005.73 870.614 1011.74 869.706 1015.73 870.933 L 1016.04 872.484 C 1012.71 876.041 992.216 877.318 985.498 879.379 C 950.607 890.082 929.299 905.879 905.768 932.981 C 903.255 932.789 901.425 933.289 898.904 933.691 z"/>
<path transform="translate(0,0)" fill="url(#Gradient45)" d="M 1126.2 1132.79 C 1144.81 1113.15 1158.1 1094.99 1166.63 1068.59 C 1169.26 1060.42 1171.54 1041.84 1174.52 1033.01 C 1175.16 1032.85 1175.81 1032.69 1176.46 1032.53 C 1179.37 1036.91 1175.79 1055.13 1174.59 1060.26 C 1167.8 1089.15 1151.31 1117.66 1129.3 1137.26 C 1126.96 1135.14 1127.72 1135.83 1126.2 1132.79 z"/>
<path transform="translate(0,0)" fill="url(#Gradient44)" d="M 911.16 1187.36 C 932.469 1201.92 956.223 1212.53 981.288 1218.68 C 988.807 1220.52 1012.97 1221.98 1016.26 1225.95 L 1014.89 1227.62 C 1008.4 1228.14 1000.55 1226.83 994.054 1225.85 C 962.725 1221.43 932.917 1209.54 907.133 1191.2 C 908.32 1189.82 909.795 1188.6 911.16 1187.36 z"/>
<path transform="translate(0,0)" fill="rgb(1,1,1)" d="M 1126.2 1132.79 C 1127.72 1135.83 1126.96 1135.14 1129.3 1137.26 C 1118.32 1148.78 1094.76 1162.6 1079.79 1168.26 C 1071.03 1171.57 1040.8 1180.19 1032.85 1176.64 C 1033.77 1172.98 1044.32 1172 1048.53 1171.19 C 1083.4 1164.47 1099.73 1155.77 1126.2 1132.79 z"/>
<path transform="translate(0,0)" fill="rgb(1,1,1)" d="M 1211.75 861.949 C 1195.66 844.958 1179.92 829.796 1160.6 816.429 C 1155.76 813.077 1139.51 806.2 1138.7 801.521 C 1141.17 799.52 1139.75 800.265 1143.56 800.2 C 1165.36 811.754 1201.17 839.301 1216.54 858.983 C 1212.21 857.25 1210.87 855.938 1207.26 852.903 C 1207.69 855.194 1210.93 857.84 1211.75 861.949 z"/>
<path transform="translate(0,0)" fill="url(#Gradient43)" d="M 898.904 933.691 C 901.425 933.289 903.255 932.789 905.768 932.981 C 891.278 951.267 879.647 978.664 876.669 1001.85 C 876.007 1007 876.19 1011.97 872.499 1015.77 C 870.975 1014.67 870.977 1015.06 870.946 1013.13 C 870.49 984.721 882.672 955.212 898.904 933.691 z"/>
<path transform="translate(0,0)" fill="url(#Gradient42)" d="M 1212.8 1087 C 1215.23 1088.53 1215.64 1088.44 1216.98 1090.87 C 1212.69 1104.39 1187.76 1157.66 1173.22 1160.42 L 1172.36 1159.54 C 1172.39 1153.94 1183.04 1143.1 1186.87 1137.81 C 1198.39 1121.85 1205.98 1105.22 1212.8 1087 z"/>
<path transform="translate(0,0)" fill="url(#Gradient41)" d="M 833.887 1099.02 C 834.425 1096.36 835.535 1095.85 837.594 1093.97 C 843.38 1107.6 848.795 1118.2 856.349 1130.96 C 860.513 1138 876.926 1154.34 877.028 1159.83 L 874.401 1161.79 C 868.466 1159.97 848.686 1128.81 845.053 1121.99 C 841.06 1114.47 837.336 1106.81 833.887 1099.02 z"/>
<path transform="translate(0,0)" fill="rgb(28,28,28)" d="M 1063.78 823.329 C 1083.23 827.481 1108.47 835.085 1124.79 846.617 C 1126.34 848.868 1127.24 849.902 1129.26 851.748 C 1128.2 853.41 1128.9 852.785 1127.14 853.632 C 1103.18 841.274 1087.31 833.139 1059.83 828.382 C 1061.06 825.869 1061.84 825.335 1063.78 823.329 z"/>
<path transform="translate(0,0)" fill="rgb(1,1,1)" d="M 833.887 1099.02 C 832.721 1094.11 830.117 1088.96 828.828 1084.06 C 825.775 1072.45 818.281 1043.1 821.705 1031.89 L 821.141 1033.06 L 822.592 1032.56 C 826.946 1039.57 827.399 1055.46 829.529 1065.27 C 831.555 1075.01 834.25 1084.6 837.594 1093.97 C 835.535 1095.85 834.425 1096.36 833.887 1099.02 z"/>
<path transform="translate(0,0)" fill="rgb(1,1,1)" d="M 1084.19 887.015 C 1071.38 881.955 1059.94 878.19 1046.28 876.33 C 1042.03 875.753 1036.05 875.169 1032.55 872.809 L 1032.41 871.159 C 1038.03 868.059 1063.25 874.489 1069.73 876.357 C 1078.96 878.96 1087.83 882.729 1096.11 887.571 C 1089.93 886.423 1090.63 885.215 1084.19 887.015 z"/>
<path transform="translate(0,0)" fill="rgb(1,1,1)" d="M 1212.8 1087 C 1216.94 1074.39 1219.67 1064.49 1221.2 1051.17 C 1221.64 1047.37 1222.88 1035.02 1224.73 1032.21 L 1226.41 1032.51 C 1230.49 1039.88 1222.75 1071.96 1220.25 1080.54 C 1219.22 1084 1218.13 1087.45 1216.98 1090.87 C 1215.64 1088.44 1215.23 1088.53 1212.8 1087 z"/>
<path transform="translate(0,0)" fill="rgb(1,1,1)" d="M 1124.79 846.617 C 1135.38 851.65 1153.14 863.505 1159.56 873.61 L 1159.25 874.933 C 1155.67 874.209 1129.69 856.271 1127.14 853.632 C 1128.9 852.785 1128.2 853.41 1129.26 851.748 C 1127.24 849.902 1126.34 848.868 1124.79 846.617 z"/>
<path transform="translate(0,0)" fill="rgb(1,1,1)" d="M 876.903 1072.03 C 874.965 1065.26 868.586 1039.61 872.448 1033.71 L 871.571 1034.31 L 872.231 1033.42 C 875.378 1037.18 879.413 1061.27 881.746 1068.97 L 878.772 1067.74 C 877.252 1070.11 877.686 1069.28 876.903 1072.03 z"/>
<path transform="translate(0,0)" fill="rgb(47,47,46)" d="M 907.133 1191.2 C 898.815 1185.52 891.891 1181.55 886.102 1173.2 L 886.608 1171.52 C 894.51 1172.86 904.638 1182.09 911.16 1187.36 C 909.795 1188.6 908.32 1189.82 907.133 1191.2 z"/>
<path transform="translate(0,0)" fill="rgb(1,1,1)" d="M 1059.83 828.382 C 1052.06 826.716 1038.48 825.997 1032.15 823.063 L 1032.68 822.12 L 1032.75 823.427 L 1033.75 821.819 C 1042.25 820.066 1055.07 822.182 1063.78 823.329 C 1061.84 825.335 1061.06 825.869 1059.83 828.382 z"/>
<path transform="translate(0,0)" fill="rgb(1,1,1)" d="M 987.691 1168.66 C 994.615 1170.25 1011.98 1172.5 1016.05 1176.37 C 1013.16 1179.68 998.946 1176.41 994.813 1175.39 C 993.099 1173.75 992.85 1173.67 990.665 1172.91 L 988.789 1172.27 L 987.691 1168.66 z"/>
<path transform="translate(0,0)" fill="rgb(1,1,1)" d="M 832.649 789.416 C 869.225 759.015 912.634 737.949 959.148 728.027 C 1013.45 716.45 1069.87 719.614 1122.54 737.19 C 1130.6 739.903 1145.32 745.142 1152.14 749.48 C 1147.52 749.298 1144.19 746.959 1140.62 747.743 L 1139.99 749.505 C 1067.15 718.622 984.986 718.133 911.785 748.148 C 894.252 755.563 877.446 764.59 861.583 775.115 C 857.262 777.979 842.592 788.816 839.599 790.432 C 837.159 789.271 835.517 789.557 832.649 789.416 z"/>
<path transform="translate(0,0)" fill="url(#Gradient40)" d="M 1139.99 749.505 L 1140.62 747.743 C 1144.19 746.959 1147.52 749.298 1152.14 749.48 C 1157.72 750.571 1170.44 758.46 1175.61 761.383 C 1215.35 783.842 1250.52 817.549 1276.23 855.464 C 1291.76 878.608 1303.95 903.831 1312.43 930.384 C 1312.08 933.122 1311.91 934.959 1311.25 937.659 L 1307.81 933.624 C 1303.8 926.409 1299.77 910.603 1295.07 901.449 C 1289.9 891.386 1285.99 883.097 1280.2 873.1 C 1247.4 816.45 1199.37 776.822 1139.99 749.505 z"/>
<path transform="translate(0,0)" fill="rgb(28,28,28)" d="M 1315.94 1084 L 1318.38 1083.83 C 1320.11 1087.15 1319.17 1089.5 1319.41 1093.22 C 1314.88 1110.52 1309.58 1128.83 1302.16 1145.62 C 1277.54 1201.35 1237.68 1247.58 1186.25 1280.15 C 1185.89 1280.35 1185.53 1280.55 1185.17 1280.74 L 1184.13 1279.99 C 1184.61 1277.43 1189.26 1274.64 1192.13 1269.54 C 1204.84 1260.04 1220.7 1247.76 1232.05 1236.74 C 1274.46 1195.21 1303.64 1142.07 1315.94 1084 z"/>
<path transform="translate(0,0)" fill="rgb(1,1,1)" d="M 1192.13 1269.54 C 1189.26 1274.64 1184.61 1277.43 1184.13 1279.99 L 1185.17 1280.74 C 1168.79 1292.57 1149.75 1300.33 1131.22 1307.47 C 1082.23 1326.36 1029.33 1332.01 977.461 1323.71 C 974.516 1323.24 969.605 1322.5 967.002 1321.37 L 965.301 1318.56 C 962.844 1317.43 960.911 1316.4 958.631 1314.9 C 1047.89 1331.46 1115.2 1319.98 1192.13 1269.54 z"/>
<path transform="translate(0,0)" fill="rgb(1,1,1)" d="M 747.364 900.779 C 746.821 905.186 745.817 910.228 746.655 914.457 C 743.046 928.377 736.834 942.722 733.597 956.905 C 719.637 1018.06 724.731 1062.87 742.235 1121.34 C 740.649 1119.55 740.475 1119.27 738.557 1117.88 L 736.22 1119.77 C 713.37 1047.02 715.366 970.573 747.364 900.779 z"/>
<path transform="translate(0,0)" fill="rgb(28,28,28)" d="M 747.364 900.779 C 757.558 866.722 803.46 811.213 832.649 789.416 C 835.517 789.557 837.159 789.271 839.599 790.432 C 789.073 834.971 775.53 854.672 746.655 914.457 C 745.817 910.228 746.821 905.186 747.364 900.779 z"/>
<path transform="translate(0,0)" fill="url(#Gradient39)" d="M 736.22 1119.77 L 738.557 1117.88 C 740.475 1119.27 740.649 1119.55 742.235 1121.34 C 760.746 1168.25 784.313 1206.65 820.941 1241.73 C 820.187 1242.73 818.522 1245.08 817.754 1245.87 C 783.342 1219.5 750.402 1160.72 736.22 1119.77 z"/>
<path transform="translate(0,0)" fill="rgb(1,1,1)" d="M 1312.43 930.384 C 1330.55 991.074 1330.79 1031.7 1319.41 1093.22 C 1319.17 1089.5 1320.11 1087.15 1318.38 1083.83 L 1315.94 1084 C 1326.96 1033.58 1323.07 982.603 1307.81 933.624 L 1311.25 937.659 C 1311.91 934.959 1312.08 933.122 1312.43 930.384 z"/>
<path transform="translate(0,0)" fill="rgb(28,28,28)" d="M 820.941 1241.73 C 831.716 1251.23 840.816 1258.65 852.513 1266.95 C 862.474 1274.01 875.53 1280.98 884.937 1287.88 L 885.153 1289.8 L 888.258 1291.7 C 888.162 1292.92 888.207 1293.56 887.863 1294.71 C 865.216 1285.53 835.779 1262.15 817.754 1245.87 C 818.522 1245.08 820.187 1242.73 820.941 1241.73 z"/>
<path transform="translate(0,0)" fill="rgb(1,1,1)" d="M 884.937 1287.88 C 900.487 1293.6 910.666 1300.99 928.92 1306.07 L 925.748 1310.66 C 912.424 1306.54 899.941 1301.7 887.863 1294.71 C 888.207 1293.56 888.162 1292.92 888.258 1291.7 L 885.153 1289.8 L 884.937 1287.88 z"/>
<path transform="translate(0,0)" fill="rgb(28,28,28)" d="M 928.92 1306.07 C 938.751 1309.25 948.658 1312.2 958.631 1314.9 C 960.911 1316.4 962.844 1317.43 965.301 1318.56 L 967.002 1321.37 C 955.221 1320.89 937.105 1314.54 925.748 1310.66 L 928.92 1306.07 z"/>
<path transform="translate(0,0)" fill="url(#Gradient38)" d="M 1156.8 701.695 C 1156.02 699.561 1156.07 700.261 1153.93 698.398 L 1155.54 698.516 C 1158.84 698.781 1159.78 698.657 1163.02 698.359 C 1175.88 703.081 1192.89 712.577 1204.78 719.71 C 1266.07 756.096 1315 810.072 1345.21 874.626 C 1384.87 961.132 1388.53 1059.85 1355.37 1149.06 C 1333.89 1206.91 1284.54 1276.64 1231.97 1309.66 L 1230.52 1308.81 C 1233.49 1305.31 1234.03 1304.94 1235.69 1300.79 C 1334.8 1225.04 1385.86 1102.09 1369.57 978.417 C 1353.29 854.743 1272.14 749.207 1156.8 701.695 z"/>
<path transform="translate(0,0)" fill="rgb(1,1,1)" d="M 1376.51 836.343 C 1381.67 837.395 1383.36 841.999 1385.61 846.644 C 1443.67 966.526 1439.39 1111.88 1371.5 1226.87 C 1336.49 1286.16 1280.56 1344.22 1218.3 1375.63 C 1216.48 1367.83 1222.32 1367.13 1228.61 1363.44 C 1391.81 1267.63 1464.16 1059.41 1395.34 883.008 C 1392.29 875.188 1375.73 841.856 1376.51 836.343 z"/>
<path transform="translate(0,0)" fill="url(#Gradient37)" d="M 1313.87 1434.96 C 1434.99 1346.91 1508.86 1222.43 1525.48 1074.47 C 1526.99 1061.08 1525.35 1037.76 1531.11 1026.52 C 1533.64 1045 1531.02 1066.47 1528.87 1085.1 C 1518.53 1174.55 1484.22 1259.53 1429.56 1331.08 C 1402.88 1366.32 1351.51 1419.51 1313.36 1441.98 C 1313.2 1439.39 1313.57 1437.54 1313.87 1434.96 z"/>
<path transform="translate(0,0)" fill="rgb(1,1,1)" d="M 750.671 1318.83 L 750.383 1316.93 C 747.379 1313.75 747.179 1313.49 745.178 1309.64 L 746.127 1309.27 L 745.263 1308.86 L 745.336 1309.94 L 746.725 1309.75 C 750.069 1313.12 751.903 1315.93 756.776 1316.57 C 824.525 1378.43 911.394 1415.26 1002.96 1420.95 C 1074.06 1424.73 1130.69 1410.37 1194.55 1382.88 C 1196.58 1382.01 1199.08 1381.83 1201.23 1382.39 L 1201.28 1383.94 C 1194.63 1389.52 1178.54 1395.14 1170.06 1398.58 C 1117.35 1419.98 1050.4 1430.31 993.464 1425.42 C 920.747 1419.15 850.998 1393.69 791.341 1351.64 C 783.08 1345.92 756.552 1326.45 750.671 1318.83 z"/>
<path transform="translate(0,0)" fill="rgb(1,1,1)" d="M 796.163 1294.43 C 795.806 1291.74 795.739 1293.04 796.757 1290.54 C 799.315 1291 798.916 1290.96 801.359 1291.95 C 926.364 1395.82 1106.57 1399.48 1235.69 1300.79 C 1234.03 1304.94 1233.49 1305.31 1230.52 1308.81 L 1231.97 1309.66 C 1224.4 1317.31 1209.48 1325.39 1199.9 1330.84 C 1068.32 1405.77 912.625 1389.38 796.163 1294.43 z"/>
<path transform="translate(0,0)" fill="url(#Gradient36)" d="M 1256.25 638.631 C 1363.73 707.84 1432.98 799.357 1462.74 925.976 C 1466.43 941.688 1476.1 1002.86 1472.69 1014.87 L 1471.57 1015.86 C 1470.18 1015.16 1468.85 1014.72 1468.76 1012.71 C 1461.74 856.079 1385.67 725.95 1250.35 641.684 C 1252.49 640.429 1254.03 639.703 1256.25 638.631 z"/>
<path transform="translate(0,0)" fill="url(#Gradient35)" d="M 709.612 624.716 L 713.768 628.089 C 608.186 716.732 539.321 828.484 523.954 967.919 C 523.825 969.089 523.787 970.293 523.733 971.468 C 518.767 969.273 519.757 967.244 519.504 962.403 L 520.307 954.899 C 534.583 825.763 609.262 705.04 709.612 624.716 z"/>
<path transform="translate(0,0)" fill="url(#Gradient34)" d="M 1227.25 558.339 C 1253.25 567.909 1275.78 581.071 1298.94 596.197 C 1379.28 647.935 1443.59 721.07 1484.62 807.37 C 1486.71 811.888 1488.15 815.21 1489.65 819.938 C 1488.78 823.289 1490.18 824.649 1489.53 826.662 C 1488.66 825.595 1488.89 826.21 1488.87 824.808 L 1487.71 824.544 L 1486.71 823.016 C 1485.45 821.132 1486.01 821.836 1484.85 820.536 C 1480.71 815.508 1471.06 793.542 1466.99 785.973 C 1411.95 683.566 1330.29 611.135 1224.69 562.593 L 1227.25 558.339 z"/>
<path transform="translate(0,0)" fill="rgb(1,1,1)" d="M 841.084 665.513 C 852.192 659.541 863.505 655.216 875.197 650.545 C 959.422 617.032 1052.45 612.74 1139.41 638.355 C 1163.43 645.563 1222.41 669.751 1240.81 685.614 C 1235.84 684.089 1233.55 680.636 1229.12 684.233 C 1205.69 671.058 1181.42 657.897 1155.93 649.213 C 1048.19 612.496 949.712 620.121 848.012 668.53 C 845.9 666.431 843.988 666.271 841.084 665.513 z"/>
<path transform="translate(0,0)" fill="rgb(1,1,1)" d="M 749.648 801.175 C 748.994 804.693 748.615 806.127 748.711 809.782 L 748.989 809.966 C 674.941 905.173 655.387 1031.9 697.295 1145 C 691.256 1139.75 692.692 1133.06 689.322 1129.25 C 689.34 1138.11 694.099 1141.97 692.36 1147.97 C 647.569 1034.97 671.538 893.991 749.648 801.175 z"/>
<path transform="translate(0,0)" fill="rgb(1,1,1)" d="M 650.241 876.071 L 654.978 878.525 C 625.402 951.916 618.9 1032.58 636.342 1109.76 C 642.624 1137.67 651.328 1162.67 662.666 1188.95 C 665.309 1195.08 672.601 1206.07 671.334 1211.2 L 669.681 1211.69 C 662.212 1205.78 647.958 1166.7 644.344 1156.68 C 618.642 1085.46 615.299 1002.29 633.482 928.957 C 637.845 911.364 642.518 892.577 650.241 876.071 z"/>
<path transform="translate(0,0)" fill="rgb(1,1,1)" d="M 991.401 575.433 C 997.695 574.316 1009.02 574.314 1015.03 577.069 C 1012.67 579.026 1001.61 579.766 998.058 579.966 C 894.601 585.775 809.964 624.883 730.781 690.705 C 725.528 695.767 723.201 698.94 716.37 701.385 L 715.538 700.432 C 716.424 698.305 717.818 695.528 719.499 693.942 C 794.962 622.73 888.858 584.599 991.401 575.433 z"/>
<path transform="translate(0,0)" fill="url(#Gradient33)" d="M 542.919 1189.31 C 543.448 1186.78 543.503 1186.11 544.529 1183.78 L 546.661 1183.87 C 579.913 1280.41 641.166 1364.86 722.607 1426.44 L 714.313 1426.99 C 652.802 1378.7 606.98 1324.38 570.352 1254.44 C 559.223 1233.19 551.899 1211.1 542.919 1189.31 z"/>
<path transform="translate(0,0)" fill="rgb(1,1,1)" d="M 722.607 1426.44 C 803.668 1486.49 897.093 1521.33 997.956 1526.91 C 1001.39 1527.1 1014.76 1527.48 1015.84 1530.32 C 1007.43 1535.44 946.001 1526.32 933.734 1524.26 C 853.709 1510.85 778.558 1476.18 714.313 1426.99 L 722.607 1426.44 z"/>
<path transform="translate(0,0)" fill="url(#Gradient32)" d="M 1364.03 1309.5 C 1406.44 1256.58 1433.99 1208.61 1452.39 1142.42 C 1460.03 1114.8 1465.15 1086.53 1467.66 1057.98 C 1468.42 1049.44 1466.56 1037.48 1471.1 1032.08 L 1472.8 1031.97 C 1474.68 1035.79 1473.06 1046.6 1472.81 1051.16 C 1467.78 1143.31 1429.61 1245.09 1367.43 1314.11 L 1365.66 1313.42 L 1364.03 1309.5 z"/>
<path transform="translate(0,0)" fill="rgb(1,1,1)" d="M 1313.87 1434.96 C 1313.57 1437.54 1313.2 1439.39 1313.36 1441.98 C 1310.62 1444.69 1293.19 1455.29 1289.21 1457.7 C 1241.53 1487.1 1189.27 1508.33 1134.59 1520.5 C 1120.61 1523.64 1041.27 1536.54 1032.2 1530.79 L 1032.33 1529.17 C 1035.86 1526.81 1087.52 1523.7 1098.05 1522.27 C 1114.15 1519.96 1130.1 1516.79 1145.86 1512.77 C 1206.16 1497.36 1263.11 1470.98 1313.87 1434.96 z"/>
<path transform="translate(0,0)" fill="rgb(1,1,1)" d="M 752.757 1375.81 C 829.189 1433.03 914.11 1465 1008.93 1468.41 C 1011.23 1468.49 1013.61 1469.45 1015.35 1470.95 L 1014.92 1472.83 C 1010.92 1474.74 1001.98 1473.33 996.968 1473.03 C 955.09 1470.33 913.788 1461.85 874.241 1447.81 C 838.545 1435.23 803.956 1418.22 772.964 1396.6 C 765.221 1391.2 756.894 1386.12 749.755 1379.89 C 751.977 1378.12 751.28 1378.57 752.757 1375.81 z"/>
<path transform="translate(0,0)" fill="rgb(1,1,1)" d="M 870.26 705.074 C 879.341 699.958 894.945 694.552 904.986 690.75 C 980.587 662.126 1089.32 663.369 1163.02 698.359 C 1159.78 698.657 1158.84 698.781 1155.54 698.516 L 1153.93 698.398 C 1156.07 700.261 1156.02 699.561 1156.8 701.695 C 1066.32 664.422 964.338 666.91 875.781 708.551 C 873.676 705.293 874.816 706.337 870.26 705.074 z"/>
<path transform="translate(0,0)" fill="rgb(1,1,1)" d="M 662.7 757.178 C 661.467 762.564 658.641 765.09 659.381 770.279 C 656.831 774.837 653.601 779.729 650.744 784.029 C 611.468 843.14 588.779 911.66 581.163 982.027 C 580.304 989.968 580.854 1010.31 576.63 1016.9 C 576.034 1015.65 575.578 1014.06 575.554 1012.68 C 574.079 926.884 611.179 822.524 662.7 757.178 z"/>
<path transform="translate(0,0)" fill="rgb(1,1,1)" d="M 1281.19 1392.8 C 1261.47 1407.94 1220.88 1429.01 1198.25 1438.63 C 1154.48 1457.01 1107.65 1468.26 1060.38 1472.35 C 1054.91 1472.83 1033.33 1476.45 1031.53 1470.4 C 1033.88 1468.95 1068.95 1466.48 1074.84 1465.8 C 1097.27 1463.36 1119.46 1459.13 1141.21 1453.13 C 1175.06 1443.56 1211.74 1428.14 1242.52 1411.09 C 1253.68 1404.91 1266.73 1395.27 1278.03 1388.34 C 1279.66 1391.94 1278.42 1390.84 1281.19 1392.8 z"/>
<path transform="translate(0,0)" fill="rgb(1,1,1)" d="M 1250.35 641.684 C 1209.72 618.393 1166.64 599.882 1120.83 589.624 C 1096.75 584.306 1072.27 580.984 1047.65 579.691 C 1043.41 579.448 1035.53 579.872 1032.68 577.581 L 1032.54 576.125 C 1038.07 572.548 1062.57 576.279 1070.23 576.898 C 1137.53 582.347 1197.81 605.689 1256.25 638.631 C 1254.03 639.703 1252.49 640.429 1250.35 641.684 z"/>
<path transform="translate(0,0)" fill="rgb(1,1,1)" d="M 795.899 569.067 C 855.555 540.9 915.336 522.258 981.408 517.43 C 988.168 516.936 1011.3 514.226 1015.81 517.694 L 1015.31 519.047 C 1009.12 521.257 981.341 521.767 971.474 522.862 C 948.407 525.456 925.531 529.536 902.99 535.077 C 872.395 542.727 843.363 552.984 815.035 566.667 C 811.722 568.267 804.602 571.968 801.504 572.776 C 799.834 570.622 798.363 570.22 795.899 569.067 z"/>
<path transform="translate(0,0)" fill="rgb(47,47,46)" d="M 692.36 1147.97 C 694.099 1141.97 689.34 1138.11 689.322 1129.25 C 692.692 1133.06 691.256 1139.75 697.295 1145 C 718.51 1202.25 754.396 1252.93 801.359 1291.95 C 798.916 1290.96 799.315 1291 796.757 1290.54 C 795.739 1293.04 795.806 1291.74 796.163 1294.43 C 749.452 1255.44 713.681 1204.96 692.36 1147.97 z"/>
<path transform="translate(0,0)" fill="url(#Gradient31)" d="M 631.624 1231.96 C 672.497 1300.01 693.99 1323.81 752.757 1375.81 C 751.28 1378.57 751.977 1378.12 749.755 1379.89 C 700.589 1341.59 656.296 1291.39 627.613 1235.89 C 630.034 1235.27 629.733 1234.63 631.624 1231.96 z"/>
<path transform="translate(0,0)" fill="url(#Gradient30)" d="M 1229.12 684.233 C 1233.55 680.636 1235.84 684.089 1240.81 685.614 C 1241.76 685.939 1241.7 685.868 1242.77 686.545 C 1285.8 713.649 1325.55 752.848 1354.45 794.6 C 1357.43 798.908 1363.67 807.137 1365.31 811.929 C 1365.75 813.209 1365.03 813.746 1364.25 815.014 C 1362.14 814.58 1361.41 814.664 1360.02 812.525 C 1325.1 758.676 1283.38 718.648 1229.12 684.233 z"/>
<path transform="translate(0,0)" fill="url(#Gradient29)" d="M 1489.65 819.938 C 1493.02 824.835 1499.62 842.565 1501.8 848.831 C 1518.11 894.903 1528.11 942.973 1531.5 991.73 C 1531.87 997.507 1533.13 1010.52 1530.75 1015.67 L 1529.58 1016.08 C 1527.63 1013.35 1525.92 980.785 1525.2 974.581 C 1519.61 926.654 1509.09 879.892 1490.39 835.3 C 1488.62 831.076 1485.98 824.842 1484.85 820.536 C 1486.01 821.836 1485.45 821.132 1486.71 823.016 L 1487.71 824.544 L 1488.87 824.808 C 1488.89 826.21 1488.66 825.595 1489.53 826.662 C 1490.18 824.649 1488.78 823.289 1489.65 819.938 z"/>
<path transform="translate(0,0)" fill="rgb(1,1,1)" d="M 1224.69 562.593 C 1183.89 546.177 1164.42 538.176 1119.97 529.304 C 1103.57 526.11 1087.03 523.704 1070.4 522.093 C 1064.8 521.53 1035.79 520.532 1033.52 519.152 L 1034.31 517.182 C 1034.93 516.778 1035.96 516.025 1036.65 516.021 C 1098.53 515.617 1172.21 532.375 1227.25 558.339 L 1224.69 562.593 z"/>
<path transform="translate(0,0)" fill="rgb(1,1,1)" d="M 542.919 1189.31 C 541.724 1184.77 540.06 1179.71 538.591 1175.25 C 526.547 1138.69 519.774 1100.66 517.237 1062.28 C 516.765 1055.15 514.987 1040.25 517.263 1033.69 L 518.468 1033.68 C 519.517 1035.55 520.464 1037.83 520.554 1039.96 C 521.372 1059.4 523.481 1077.92 526.035 1097.18 C 530.024 1127.26 537.482 1155.07 546.661 1183.87 L 544.529 1183.78 C 543.503 1186.11 543.448 1186.78 542.919 1189.31 z"/>
<path transform="translate(0,0)" fill="rgb(1,1,1)" d="M 602.968 1181.97 L 596.848 1163.66 C 584.556 1126.66 577.23 1089.22 575.18 1050.17 C 574.95 1045.79 574.453 1035.24 576.289 1031.58 L 577.111 1031.53 C 580.106 1036.55 582.363 1077.07 584.159 1088.81 C 588.729 1119.61 596.594 1149.83 607.619 1178.95 C 604.809 1179.94 604.875 1179.74 602.968 1181.97 z"/>
<path transform="translate(0,0)" fill="rgb(28,28,28)" d="M 724.07 756.726 L 727.439 760.879 C 696.347 797.955 672.376 832.651 654.978 878.525 L 650.241 876.071 C 665.129 836.736 694.801 786.925 724.07 756.726 z"/>
<path transform="translate(0,0)" fill="url(#Gradient28)" d="M 749.648 801.175 C 770.332 770.687 821.977 731.033 854.312 713.451 C 851.782 716.896 849.911 718.302 849.819 722.119 C 810.853 744.618 776.613 774.449 748.989 809.966 L 748.711 809.782 C 748.615 806.127 748.994 804.693 749.648 801.175 z"/>
<path transform="translate(0,0)" fill="url(#Gradient27)" d="M 750.671 1318.83 C 735.549 1305.49 688.04 1252.59 682.205 1234.8 L 683.022 1233.26 C 688.677 1233.22 694.314 1244.92 698.612 1250.89 C 716.417 1275.64 734.321 1295.88 756.776 1316.57 C 751.903 1315.93 750.069 1313.12 746.725 1309.75 L 745.336 1309.94 L 745.263 1308.86 L 746.127 1309.27 L 745.178 1309.64 C 747.179 1313.49 747.379 1313.75 750.383 1316.93 L 750.671 1318.83 z"/>
<path transform="translate(0,0)" fill="url(#Gradient26)" d="M 724.07 756.726 C 734.978 743.125 776.149 701.94 791.948 698.571 L 792.122 699.737 C 786.229 707.376 774.667 715.652 767.134 722.326 C 753.423 734.474 739.209 746.774 727.439 760.879 L 724.07 756.726 z"/>
<path transform="translate(0,0)" fill="rgb(28,28,28)" d="M 795.899 569.067 C 798.363 570.22 799.834 570.622 801.504 572.776 C 788.332 579.83 775.546 587.086 762.645 594.611 C 755.841 598.58 748.386 604.095 742.112 607.665 C 741.508 603.235 741.928 604.203 743.879 599.418 C 761.487 587.834 777.533 579.169 795.899 569.067 z"/>
<path transform="translate(0,0)" fill="url(#Gradient25)" d="M 1278.03 1388.34 C 1290.63 1379.64 1302.71 1370.2 1314.2 1360.06 C 1318.05 1356.71 1328.73 1345.13 1333.27 1345.13 C 1334.37 1347.77 1334.16 1346.41 1333.36 1349.34 C 1323.97 1359.63 1293.31 1385.74 1281.19 1392.8 C 1278.42 1390.84 1279.66 1391.94 1278.03 1388.34 z"/>
<path transform="translate(0,0)" fill="rgb(28,28,28)" d="M 848.012 668.53 C 838.524 673.451 816.764 687.215 808.163 688.841 C 809.169 681.162 833.847 669.494 841.084 665.513 C 843.988 666.271 845.9 666.431 848.012 668.53 z"/>
<path transform="translate(0,0)" fill="url(#Gradient24)" d="M 613.022 1192.41 C 616.15 1200.89 626.948 1223.5 631.624 1231.96 C 629.733 1234.63 630.034 1235.27 627.613 1235.89 C 619.937 1222.7 615.005 1210.9 609.196 1196.77 L 613.022 1192.41 z"/>
<path transform="translate(0,0)" fill="rgb(1,1,1)" d="M 523.733 971.468 C 523.797 976.145 520.544 1013.21 518.423 1016.02 L 516.981 1016.14 C 513.99 1008.96 518.525 971.569 519.504 962.403 C 519.757 967.244 518.767 969.273 523.733 971.468 z"/>
<path transform="translate(0,0)" fill="rgb(1,1,1)" d="M 743.879 599.418 C 741.928 604.203 741.508 603.235 742.112 607.665 C 732.588 614.367 723.14 621.176 713.768 628.089 L 709.612 624.716 C 720.846 616.031 732.271 607.596 743.879 599.418 z"/>
<path transform="translate(0,0)" fill="rgb(28,28,28)" d="M 678.508 737.062 L 684.103 738.306 C 678.275 745.736 664.701 764.63 659.381 770.279 C 658.641 765.09 661.467 762.564 662.7 757.178 C 666.521 750.731 673.508 742.899 678.508 737.062 z"/>
<path transform="translate(0,0)" fill="rgb(1,1,1)" d="M 678.508 737.062 C 683.79 730.019 693.121 717.144 700.97 713.919 L 702.386 714.552 C 701.572 721.077 689.006 732.599 684.103 738.306 L 678.508 737.062 z"/>
<path transform="translate(0,0)" fill="rgb(1,1,1)" d="M 1367.43 1314.11 C 1364.17 1318.45 1351.67 1334.13 1346.16 1333.06 C 1346.3 1327.56 1359.72 1314.35 1364.03 1309.5 L 1365.66 1313.42 L 1367.43 1314.11 z"/>
<path transform="translate(0,0)" fill="rgb(1,1,1)" d="M 854.312 713.451 C 858.935 710.458 865.237 707.574 870.26 705.074 C 874.816 706.337 873.676 705.293 875.781 708.551 C 866.941 712.708 858.279 717.235 849.819 722.119 C 849.911 718.302 851.782 716.896 854.312 713.451 z"/>
<path transform="translate(0,0)" fill="rgb(28,28,28)" d="M 602.968 1181.97 C 604.875 1179.74 604.809 1179.94 607.619 1178.95 L 613.022 1192.41 L 609.196 1196.77 C 606.899 1191.79 604.999 1187.04 602.968 1181.97 z"/>
<path transform="translate(0,0)" fill="rgb(1,1,1)" d="M 1537.31 795.924 C 1537.58 795.136 1537.43 791.842 1537.39 790.934 L 1537.33 789.644 L 1538.55 789.097 C 1539.39 791.517 1539.89 792.507 1541.05 794.808 L 1542.37 794.813 C 1552.48 813.929 1564.03 849.425 1569.78 870.399 C 1599.36 975.362 1598.07 1086.62 1566.08 1190.87 C 1519.89 1340.45 1420.29 1455.95 1282.37 1528.56 C 1178.71 1582.06 1060.95 1601.89 945.484 1585.29 C 928.203 1582.82 902.61 1579.25 885.952 1573.6 C 887.102 1570.62 886.709 1572.15 885.832 1568.32 C 1094.31 1621.32 1314.75 1550.56 1453.44 1386.13 C 1592.13 1221.7 1624.71 992.484 1537.31 795.924 z"/>
<path transform="translate(0,0)" fill="url(#Gradient23)" d="M 1535.63 1427.14 C 1542.89 1416.37 1551.23 1405.86 1558.72 1395.06 C 1574.1 1373.18 1588.12 1350.4 1600.72 1326.82 C 1666.98 1203.12 1692.31 1047.72 1665.4 909.748 C 1650.55 829.99 1621.28 753.607 1579.03 684.348 C 1559.44 652.705 1537.18 622.793 1512.5 594.937 C 1507.1 588.859 1493.18 575.766 1492.86 569.443 C 1498.88 567.825 1524.2 599.533 1528.86 605.05 C 1596.81 686.485 1643.92 783.241 1666.11 886.959 C 1702.74 1057.24 1670 1235.1 1575.13 1381.17 C 1562.86 1399.95 1549.64 1418.09 1535.52 1435.53 L 1532.3 1436.87 L 1532.04 1435.88 C 1534.23 1432.37 1534.35 1432.16 1535.4 1428.08 L 1535.63 1427.14 z"/>
<path transform="translate(0,0)" fill="url(#Gradient22)" d="M 615.626 511.658 C 635.636 492.875 663.693 475.889 687.335 461.711 C 802.335 392.744 922.085 364.149 1055.94 368.1 C 1199.12 372.326 1362.99 441.099 1466.79 539.901 L 1463.88 541.068 C 1461.91 539.988 1460.96 539.478 1458.88 538.734 L 1457.27 538.168 C 1444.24 528.298 1431.61 516.95 1418.58 507.034 C 1406 497.469 1392.32 487.887 1379.17 479.114 C 1301.85 428.517 1214.81 394.628 1123.63 379.618 C 964.202 354.105 795.922 392.802 662.707 483.604 C 648.642 493.191 633.683 503.276 620.832 514.353 C 619.67 513.604 616.977 512.343 615.626 511.658 z"/>
<path transform="translate(0,0)" fill="url(#Gradient21)" d="M 766.219 1580.86 C 754.997 1576.22 744.26 1569.84 733.688 1564.21 C 536.41 1459.07 409.259 1247.19 410.207 1023.59 C 410.291 1003.77 418.505 892.29 430.212 878.191 L 431.829 878.361 C 433.382 883.296 426.995 909.055 425.784 915.59 C 407.981 1011.66 413.566 1110.4 443.072 1203.76 C 484.558 1336.09 569.76 1450.39 684.716 1527.96 C 715.739 1548.89 737.405 1559.74 770.247 1576.79 L 768.957 1579.95 L 766.219 1580.86 z"/>
<path transform="translate(0,0)" fill="rgb(1,1,1)" d="M 1440.51 1524.5 L 1442.23 1529.71 C 1307.36 1641.99 1132.97 1695.24 958.389 1677.45 C 906.919 1672.34 860.302 1661.87 811.355 1645.09 C 806.261 1643.34 787.827 1637.19 784.097 1634.78 C 785.019 1633.31 784.681 1634.18 784.861 1632.08 L 781.307 1628.14 C 838.175 1651.41 898.105 1666.35 959.241 1672.49 C 1136.68 1691.51 1302.85 1635.51 1440.51 1524.5 z"/>
<path transform="translate(0,0)" fill="url(#Gradient20)" d="M 496.647 634.062 C 496.653 636.233 496.667 638.062 496.533 640.235 L 499.676 639.426 C 474.559 677.417 459.44 697.661 438.426 739.842 C 375.298 868.866 356.876 1015.22 386.063 1155.87 C 391.93 1184.5 400.576 1212.77 409.918 1240.47 C 413.806 1252.01 419.309 1263.6 423.239 1275.3 C 421.535 1273.86 421.211 1273.01 419.669 1272.91 C 419.52 1275.59 420.778 1278.31 420.741 1282.93 C 417.158 1271.92 409.972 1257.41 405.825 1245.03 C 393.013 1206.78 380.473 1164.92 375.23 1124.94 C 373.023 1108.11 369.113 1079.83 368.357 1063.32 C 362.399 933.324 390.787 805.42 457.752 693.296 C 469.622 673.42 482.603 652.482 496.647 634.062 z"/>
<path transform="translate(0,0)" fill="rgb(1,1,1)" d="M 691.597 565.389 C 729.267 536.408 791.853 503.943 836.912 488.782 C 954.421 447.937 1082.07 446.652 1200.37 485.123 C 1218.42 491.172 1238.46 498.198 1255.46 506.664 L 1250.76 507.412 C 1249.75 509.236 1249.82 508.365 1250.07 509.944 C 1068.38 430.114 858.044 452.114 696.802 567.813 C 695.932 566.616 693.33 566.035 691.597 565.389 z"/>
<path transform="translate(0,0)" fill="rgb(1,1,1)" d="M 526.294 1534.04 C 528.972 1534.8 531.672 1535.79 533.744 1537.76 C 608.735 1609.18 702.318 1667.31 801.054 1699.44 C 844.366 1713.48 888.865 1723.55 934.001 1729.52 C 947.82 1731.41 961.708 1732.75 975.634 1733.54 C 983.193 1733.92 1012.16 1733.92 1016.56 1737.28 L 1016.48 1739.67 C 984.043 1741.22 930.588 1734.44 898.868 1729.12 C 780.368 1708.39 669.136 1657.7 575.736 1581.88 C 565.102 1573.33 533.139 1546.73 525.723 1536.35 L 526.294 1534.04 z"/>
<path transform="translate(0,0)" fill="url(#Gradient19)" d="M 523.468 758.084 C 524.255 764.213 518.87 766.31 519.859 771.441 C 523.465 769.97 521.854 765.03 526.988 763.025 C 451.776 906.279 442.007 1075.01 500.185 1225.99 C 498.011 1226.46 496.948 1226.71 494.742 1226.89 C 486.01 1206.44 475.521 1169.6 470.581 1147.92 C 446.719 1043.15 454.718 928.971 492.072 828.241 C 499.996 806.873 511.456 777.471 523.468 758.084 z"/>
<path transform="translate(0,0)" fill="url(#Gradient18)" d="M 671.832 522.215 C 675.946 521.888 677.4 521.674 681.416 520.754 L 681.88 522.213 C 603.353 579.085 549.427 633.993 499.293 718.174 C 487.779 737.81 477.337 758.055 468.011 778.82 C 461.652 793.318 455.84 808.05 450.588 822.984 C 447.974 830.455 442.594 850.567 437.45 854.671 L 435.628 854.243 C 434.526 845.899 449.899 808.385 453.674 798.829 C 491.042 704.048 551.587 620.154 629.767 554.826 C 642.683 544.034 657.795 531.294 671.832 522.215 z"/>
<path transform="translate(0,0)" fill="rgb(1,1,1)" d="M 1327.94 1551.99 C 1328.67 1552.34 1329.18 1552.99 1329.83 1553.61 C 1328.26 1557.81 1307.43 1567.81 1301.73 1570.75 C 1196.94 1624.76 1075.17 1647.78 957.949 1633.99 C 932.174 1630.95 902.103 1626.89 877.34 1619.52 C 876.296 1618.75 876.796 1619.33 876.406 1617.44 C 878.083 1615.71 878.862 1614.85 881.699 1615.54 C 962.901 1635.11 1045.61 1638.02 1127.92 1623.8 C 1198.9 1611.53 1263.63 1586.12 1326.9 1552.38 C 1327.24 1552.25 1327.59 1552.12 1327.94 1551.99 z"/>
<path transform="translate(0,0)" fill="url(#Gradient17)" d="M 1255.46 506.664 C 1378.51 559.116 1486.09 668.607 1540.88 790.528 C 1541.48 791.859 1541.94 793.42 1542.37 794.813 L 1541.05 794.808 C 1539.89 792.507 1539.39 791.517 1538.55 789.097 L 1537.33 789.644 L 1537.39 790.934 C 1537.43 791.842 1537.58 795.136 1537.31 795.924 C 1480.51 668.162 1378.08 566.187 1250.07 509.944 C 1249.82 508.365 1249.75 509.236 1250.76 507.412 L 1255.46 506.664 z"/>
<path transform="translate(0,0)" fill="url(#Gradient16)" d="M 435.882 617.074 L 440.374 616.707 L 441.701 618.08 C 364.234 735.612 316.692 858.888 314.135 1001.16 C 314.034 1006.79 315.065 1011.75 311.279 1016.23 L 309.758 1015.67 C 307.557 1008.88 308.715 1000.61 308.989 993.517 C 313.152 885.929 342.111 780.39 393.65 685.844 C 406.655 661.987 419.516 638.747 435.882 617.074 z"/>
<path transform="translate(0,0)" fill="rgb(1,1,1)" d="M 1425.41 1617.01 C 1392.31 1638.62 1360.45 1657.74 1324.5 1674.56 C 1244.47 1711.21 1158.41 1732.91 1070.56 1738.58 C 1061.9 1739.09 1041.09 1741.31 1033.66 1738.61 L 1033.23 1737.1 C 1036.72 1733.72 1053.63 1734.5 1059.27 1734.26 C 1191.5 1728.74 1313.19 1684.72 1422.87 1612.24 L 1425.41 1617.01 z"/>
<path transform="translate(0,0)" fill="rgb(1,1,1)" d="M 750.95 474.603 C 852.788 423.975 966.665 402.564 1079.94 412.748 C 1095.38 414.041 1160.11 422.505 1170.4 428.866 L 1170.67 430.503 L 1168.3 432.427 C 1149.84 428.625 1134.72 424.787 1115.81 421.982 C 1024.45 408.195 931.148 415.346 842.954 442.895 C 813.183 452.459 786.314 464.191 758.116 477.443 C 755.56 475.175 754.294 475.242 750.95 474.603 z"/>
<path transform="translate(0,0)" fill="url(#Gradient15)" d="M 1635.21 1387.72 C 1693.56 1280.44 1731.83 1176.77 1734.38 1053.04 C 1734.48 1048.18 1733.91 1035.95 1736.44 1032.6 L 1738.24 1032.79 C 1741.71 1039.4 1739.56 1058.37 1739.08 1066.41 C 1732.33 1178.74 1698.33 1296 1638.57 1391.77 L 1635.21 1387.72 z"/>
<path transform="translate(0,0)" fill="url(#Gradient14)" d="M 618.221 1412.07 C 691.004 1488.22 783.739 1542.36 885.832 1568.32 C 886.709 1572.15 887.102 1570.62 885.952 1573.6 C 797.87 1551.83 716.441 1508.87 648.746 1448.45 C 639.024 1439.84 622.306 1425.42 614.691 1415.83 C 616.224 1412.31 614.99 1413.42 618.221 1412.07 z"/>
<path transform="translate(0,0)" fill="url(#Gradient13)" d="M 1652.48 681.967 C 1662.4 698.419 1675.4 726.676 1682.76 744.116 C 1713.56 815.497 1732.11 891.553 1737.65 969.094 C 1738.38 978.407 1742.48 1009.66 1737.47 1016.35 C 1733.44 1014.25 1734.06 988.076 1733.76 982.257 C 1733.1 967.429 1731.79 952.638 1729.82 937.927 C 1718.55 853.086 1692.72 764.838 1650.53 689.994 C 1651.54 689.724 1652.21 689.203 1653.17 688.643 C 1653.49 685.983 1653.02 684.559 1652.48 681.967 z"/>
<path transform="translate(0,0)" fill="rgb(47,47,46)" d="M 1267.77 351.212 C 1350.97 381.662 1427.86 427.173 1494.58 485.469 C 1500.7 490.825 1518.99 505.646 1521.75 512.478 L 1521.07 513.865 C 1515.8 513.93 1499.33 497.182 1494.51 492.882 C 1483.19 482.797 1471.52 473.107 1459.53 463.828 C 1393.64 412.759 1339.67 386.381 1264.06 355.309 C 1264.24 352.372 1265.53 352.409 1267.77 351.212 z"/>
<path transform="translate(0,0)" fill="url(#Gradient12)" d="M 357.506 1271.01 C 390.604 1353.21 430.986 1426.37 490.663 1492.57 C 500.053 1502.99 510.649 1513.36 517.492 1525.59 C 503.967 1517.75 490.469 1501.26 480.255 1489.23 C 440.007 1441.84 404.656 1389.51 378.373 1333.07 C 371.038 1317.31 360.159 1297.24 356.217 1280.33 C 355.574 1276.05 354.446 1274.16 357.506 1271.01 z"/>
<path transform="translate(0,0)" fill="rgb(1,1,1)" d="M 1614.78 857.398 C 1620.97 883.605 1627.54 911.216 1631.46 937.868 C 1640.37 1000.23 1639.56 1063.6 1629.04 1125.71 C 1627.89 1132.85 1623.19 1168.47 1617.22 1171.12 C 1616.02 1170.06 1615.17 1169.81 1615.34 1168.67 C 1616.76 1159.32 1619.82 1148.33 1621.64 1139.06 C 1624.34 1124.61 1626.66 1110.09 1628.6 1095.51 C 1637.12 1031.37 1631.07 922.626 1609.95 861.02 C 1611.22 861.266 1611.45 861.141 1612.76 861.07 L 1614.78 857.398 z"/>
<path transform="translate(0,0)" fill="rgb(28,28,28)" d="M 1248.12 452.59 C 1263.7 459.211 1280.6 466.169 1295.7 473.707 C 1359.46 506.139 1417.42 548.898 1467.21 600.252 C 1466.05 602.747 1465.48 603.455 1465.29 606.198 C 1453.62 595.587 1442.68 583.054 1430.81 572.474 C 1371.34 519.461 1313.69 486.109 1240.67 455.866 L 1240.74 453.764 C 1243.55 453.171 1245.31 452.935 1248.12 452.59 z"/>
<path transform="translate(0,0)" fill="rgb(1,1,1)" d="M 725.1 374.135 C 809.058 337.233 887.638 315.485 980.002 310.261 C 986.89 309.871 1009.89 308.778 1014.56 310.102 L 1015.94 311.55 L 1015.33 312.863 C 1009.9 314.76 998.142 313.906 991.51 314.322 C 975.149 315.445 958.804 316.79 942.48 318.356 C 879.415 324.975 785.831 349.135 728.906 378.564 C 729.134 377.011 729.104 377.966 728.583 375.716 L 725.1 374.135 z"/>
<path transform="translate(0,0)" fill="rgb(28,28,28)" d="M 784.097 1634.78 C 771.82 1630.98 742.321 1617.35 730.845 1611.52 C 680.709 1586.04 634.195 1554.48 591.957 1517.35 C 585.904 1512.03 570.137 1499.44 567.81 1492.22 C 576.453 1493.64 591.21 1509.17 598.221 1515.32 C 608.281 1524.01 618.547 1532.45 629.012 1540.64 C 674.132 1576.39 728.587 1605.5 781.307 1628.14 L 784.861 1632.08 C 784.681 1634.18 785.019 1633.31 784.097 1634.78 z"/>
<path transform="translate(0,0)" fill="rgb(1,1,1)" d="M 356.217 1280.33 C 331.553 1232.17 302.841 1086.26 309.352 1033.99 L 311.131 1032.73 L 310.295 1031.21 L 309.775 1032.14 L 310.945 1031.93 C 314.767 1039.91 314.53 1065.94 315.209 1076.63 C 319.602 1145.81 334.724 1206.13 357.506 1271.01 C 354.446 1274.16 355.574 1276.05 356.217 1280.33 z"/>
<path transform="translate(0,0)" fill="rgb(1,1,1)" d="M 1521.48 1382.43 C 1484.47 1434.24 1439.39 1479.79 1387.96 1517.32 C 1376.21 1526.06 1364.18 1536.01 1350.6 1541.17 L 1349.44 1538.95 C 1357.16 1530.97 1370.09 1523.83 1379.3 1517.23 C 1387.03 1511.68 1394.14 1506.15 1401.62 1500.25 C 1446.71 1464.9 1486.31 1423.07 1519.12 1376.1 L 1521.48 1382.43 z"/>
<path transform="translate(0,0)" fill="rgb(1,1,1)" d="M 1264.06 355.309 C 1210.28 337.391 1158.96 323.466 1102.19 317.777 C 1088.26 316.29 1074.26 315.341 1060.3 314.343 C 1053.58 313.863 1038.86 315.264 1033.86 312.022 L 1034.42 310.663 C 1041.55 307.801 1056.86 309.424 1065.33 309.911 C 1129.19 313.577 1208.18 327.925 1267.77 351.212 C 1265.53 352.409 1264.24 352.372 1264.06 355.309 z"/>
<path transform="translate(0,0)" fill="rgb(28,28,28)" d="M 1519.12 1376.1 C 1550.73 1332.05 1579.72 1278.04 1597.64 1226.77 C 1600.55 1218.46 1604.88 1196.65 1612.07 1194.27 L 1613.01 1195.59 L 1612.57 1194.38 C 1612.64 1194.71 1612.71 1195.03 1612.79 1195.36 C 1597.68 1253.53 1569.87 1309.24 1537.54 1359.8 C 1533.28 1366.48 1526.55 1376.69 1521.48 1382.43 L 1519.12 1376.1 z"/>
<path transform="translate(0,0)" fill="rgb(47,47,46)" d="M 1650.53 689.994 C 1645.18 681.523 1638.8 668.803 1633.2 659.43 C 1620.34 637.671 1606.2 616.695 1590.85 596.612 C 1580.8 583.294 1570.41 570.891 1559.52 558.315 C 1553.74 551.627 1534.84 534.073 1533.6 526.533 L 1534.65 525.314 C 1540.23 527.656 1550.18 539.511 1554.49 544.252 C 1592.66 585.984 1625.56 632.234 1652.48 681.967 C 1653.02 684.559 1653.49 685.983 1653.17 688.643 C 1652.21 689.203 1651.54 689.724 1650.53 689.994 z"/>
<path transform="translate(0,0)" fill="url(#Gradient11)" d="M 1631.41 1403.73 C 1607.77 1440.67 1581.15 1475.62 1551.83 1508.25 C 1548.15 1512.26 1540.66 1520.9 1536.47 1523.79 L 1534.76 1523.29 L 1533.94 1520.47 C 1534.66 1517.51 1548.5 1503.22 1551.38 1499.95 C 1579.28 1468.22 1607.66 1433.27 1629.39 1396.99 L 1631.41 1403.73 z"/>
<path transform="translate(0,0)" fill="rgb(47,47,46)" d="M 1553.88 715.821 C 1579.82 758.043 1594.55 794.746 1609.56 841.481 C 1607.04 843.762 1608.2 843.284 1605.16 844.066 C 1594.29 809.884 1568.34 748.353 1549.22 718.336 L 1553.88 715.821 z"/>
<path transform="translate(0,0)" fill="url(#Gradient10)" d="M 1467.21 600.252 C 1494.27 628.889 1535.88 680.938 1553.88 715.821 L 1549.22 718.336 C 1531.4 684.19 1491.25 634.663 1465.29 606.198 C 1465.48 603.455 1466.05 602.747 1467.21 600.252 z"/>
<path transform="translate(0,0)" fill="rgb(47,47,46)" d="M 535.096 1300 C 558.038 1340.67 585.962 1378.31 618.221 1412.07 C 614.99 1413.42 616.224 1412.31 614.691 1415.83 C 582.674 1384.52 554.875 1343 531.569 1305.01 L 535.096 1300 z"/>
<path transform="translate(0,0)" fill="url(#Gradient9)" d="M 420.741 1282.93 C 420.778 1278.31 419.52 1275.59 419.669 1272.91 C 421.211 1273.01 421.535 1273.86 423.239 1275.3 C 432.414 1293.12 438.608 1311.76 449.247 1328.87 C 452.713 1334.45 456.004 1340.97 459.281 1346.75 C 464.611 1356.22 470.241 1365.52 476.162 1374.63 C 478.902 1378.81 485.506 1387.92 487.614 1391.89 C 485.179 1392.93 483.461 1392.48 480.809 1392.24 C 456.421 1357 438.063 1321.93 420.741 1282.93 z"/>
<path transform="translate(0,0)" fill="rgb(28,28,28)" d="M 1422.87 1612.24 C 1450.72 1592.17 1477.68 1572.02 1502.57 1548.25 C 1506.36 1544.63 1516.76 1534.24 1521.72 1534.51 L 1522.83 1536.13 C 1517.63 1547.84 1440.32 1607.36 1425.41 1617.01 L 1422.87 1612.24 z"/>
<path transform="translate(0,0)" fill="rgb(28,28,28)" d="M 487.614 1391.89 C 500.824 1410.72 514.796 1428.99 529.495 1446.68 C 535.915 1454.34 555.817 1472.59 556.128 1481.87 C 543.223 1477.13 490.983 1406.27 480.809 1392.24 C 483.461 1392.48 485.179 1392.93 487.614 1391.89 z"/>
<path transform="translate(0,0)" fill="rgb(28,28,28)" d="M 725.1 374.135 L 728.583 375.716 C 729.104 377.966 729.134 377.011 728.906 378.564 C 692.326 396.501 668.956 409.526 634.212 430.959 C 631.902 428.898 632.848 430.136 632.096 426.615 C 650.98 411.735 703.164 383.565 725.1 374.135 z"/>
<path transform="translate(0,0)" fill="rgb(28,28,28)" d="M 523.468 758.084 C 527.211 746.037 565.14 691.57 573.073 680.649 L 577.988 683.103 C 558.766 708.259 541.705 734.994 526.988 763.025 C 521.854 765.03 523.465 769.97 519.859 771.441 C 518.87 766.31 524.255 764.213 523.468 758.084 z"/>
<path transform="translate(0,0)" fill="rgb(28,28,28)" d="M 496.647 634.062 C 504.583 623.14 545.802 570.32 554.981 568.32 L 556.184 569.239 C 555.035 577.254 513.98 618.047 507.698 629.317 C 507.652 629.399 500.173 639 499.676 639.426 L 496.533 640.235 C 496.667 638.062 496.653 636.233 496.647 634.062 z"/>
<path transform="translate(0,0)" fill="url(#Gradient8)" d="M 500.185 1225.99 C 510.006 1251.48 521.674 1276.21 535.096 1300 L 531.569 1305.01 C 522.289 1285.87 510.247 1267.71 502.847 1247.53 C 500.323 1240.64 497.509 1233.67 494.742 1226.89 C 496.948 1226.71 498.011 1226.46 500.185 1225.99 z"/>
<path transform="translate(0,0)" fill="rgb(1,1,1)" d="M 464.746 578.556 C 471.116 570.271 505.187 528.395 512.315 526.794 L 514.392 527.105 L 514.773 528.535 C 511.788 533.591 506.607 538.659 502.525 543.079 C 489.636 557.038 477.786 571.776 465.474 586.235 C 464.214 583.616 464.627 581.501 464.746 578.556 z"/>
<path transform="translate(0,0)" fill="url(#Gradient7)" d="M 575.916 467.546 C 579.099 466.906 581.165 466.056 584.053 467.341 C 578.738 472.875 570.851 478.038 564.959 483.358 C 554.577 492.732 544.424 502.507 533.607 511.346 C 531.119 513.379 529.753 514.028 526.701 513.978 L 526.305 511.97 C 535.562 499.369 562.536 477.714 575.916 467.546 z"/>
<path transform="translate(0,0)" fill="rgb(28,28,28)" d="M 620.832 514.353 C 609.351 525.081 595.021 534.32 584.045 545.971 C 579.889 550.383 574.544 555.945 568.241 556.439 L 567.627 555.118 C 572.919 544.193 604.66 520.08 615.626 511.658 C 616.977 512.343 619.67 513.604 620.832 514.353 z"/>
<path transform="translate(0,0)" fill="rgb(1,1,1)" d="M 632.096 426.615 C 632.848 430.136 631.902 428.898 634.212 430.959 C 624.654 438.234 613.722 445.376 603.976 452.623 C 600.84 454.954 586.399 466.146 584.053 467.341 C 581.165 466.056 579.099 466.906 575.916 467.546 C 589.351 454.886 616.358 436.352 632.096 426.615 z"/>
<path transform="translate(0,0)" fill="rgb(1,1,1)" d="M 1535.63 1427.14 L 1535.4 1428.08 C 1534.35 1432.16 1534.23 1432.37 1532.04 1435.88 L 1532.3 1436.87 L 1535.52 1435.53 C 1528.83 1444.23 1501.78 1477.98 1492.6 1480.06 L 1492.01 1478.65 C 1494.34 1472.46 1528.35 1436.32 1535.63 1427.14 z"/>
<path transform="translate(0,0)" fill="rgb(28,28,28)" d="M 592.273 656.513 C 595.193 653.912 603.056 644.724 606.268 641.263 C 614.095 632.792 622.214 624.595 630.611 616.687 C 633.178 617.609 634.098 618.31 636.671 617.643 C 621.987 631.643 608.073 646.429 594.99 661.935 C 593.132 659.32 593.458 659.543 592.273 656.513 z"/>
<path transform="translate(0,0)" fill="rgb(28,28,28)" d="M 691.597 565.389 C 693.33 566.035 695.932 566.616 696.802 567.813 C 681.772 578.597 667.284 590.118 653.392 602.332 C 652.311 600.879 651.015 599.498 649.809 598.131 C 664.02 586.753 676.435 575.875 691.597 565.389 z"/>
<path transform="translate(0,0)" fill="rgb(1,1,1)" d="M 1240.67 455.866 C 1226 449.962 1211.87 444.879 1196.64 440.509 C 1194.86 439.998 1193.06 437.583 1192.15 435.98 L 1193.82 434.572 C 1212.24 441.128 1228.37 445.019 1248.12 452.59 C 1245.31 452.935 1243.55 453.171 1240.74 453.764 L 1240.67 455.866 z"/>
<path transform="translate(0,0)" fill="rgb(1,1,1)" d="M 1440.51 1524.5 C 1447.13 1518.56 1473.68 1493.14 1479.58 1492.35 L 1480.99 1493.73 C 1480.32 1497.59 1465.75 1509.18 1461.76 1513.06 C 1456.46 1518.21 1448.13 1525.66 1442.23 1529.71 L 1440.51 1524.5 z"/>
<path transform="translate(0,0)" fill="rgb(1,1,1)" d="M 808.547 1592.22 C 816.482 1595.56 853.113 1607.54 855.562 1611.54 C 849.137 1613.4 813.799 1601.4 808.158 1597.76 C 809.598 1594.64 809.136 1596.34 808.547 1592.22 z"/>
<path transform="translate(0,0)" fill="rgb(1,1,1)" d="M 435.882 617.074 C 445.405 603.584 454.57 591.589 464.746 578.556 C 464.627 581.501 464.214 583.616 465.474 586.235 C 462.772 589.962 443.846 615.966 441.701 618.08 L 440.374 616.707 L 435.882 617.074 z"/>
<path transform="translate(0,0)" fill="rgb(28,28,28)" d="M 770.247 1576.79 C 783.511 1582.81 795.417 1586.8 808.547 1592.22 C 809.136 1596.34 809.598 1594.64 808.158 1597.76 C 793.574 1592.6 780.489 1586.28 766.219 1580.86 L 768.957 1579.95 L 770.247 1576.79 z"/>
<path transform="translate(0,0)" fill="rgb(47,47,46)" d="M 592.273 656.513 C 593.458 659.543 593.132 659.32 594.99 661.935 C 589.153 668.853 583.484 675.911 577.988 683.103 L 573.073 680.649 C 580.195 672.722 585.207 664.381 592.273 656.513 z"/>
<path transform="translate(0,0)" fill="rgb(47,47,46)" d="M 649.809 598.131 C 651.015 599.498 652.311 600.879 653.392 602.332 C 647.716 607.323 642.141 612.428 636.671 617.643 C 634.098 618.31 633.178 617.609 630.611 616.687 C 636.497 610.597 643.197 603.214 649.809 598.131 z"/>
<path transform="translate(0,0)" fill="rgb(28,28,28)" d="M 746.048 483.644 C 740.714 486.568 724.014 496.841 718.646 495.603 C 720.994 490.085 734.915 483.149 740.642 479.995 C 742.661 481.254 744.22 482.104 746.048 483.644 z"/>
<path transform="translate(0,0)" fill="rgb(1,1,1)" d="M 671.832 522.215 C 677.639 518.268 692.176 506.997 698.166 507.236 L 699.15 508.708 C 698.012 511.858 684.748 520.817 681.88 522.213 L 681.416 520.754 C 677.4 521.674 675.946 521.888 671.832 522.215 z"/>
<path transform="translate(0,0)" fill="rgb(47,47,46)" d="M 1457.27 538.168 L 1458.88 538.734 C 1460.96 539.478 1461.91 539.988 1463.88 541.068 L 1466.79 539.901 C 1471.62 544.927 1476.67 547.842 1480.92 553.355 C 1479.75 556.091 1480.7 555.135 1477.93 556.292 C 1471.64 554.952 1462.14 543.343 1457.27 538.168 z"/>
<path transform="translate(0,0)" fill="rgb(28,28,28)" d="M 1609.56 841.481 L 1614.78 857.398 L 1612.76 861.07 C 1611.45 861.141 1611.22 861.266 1609.95 861.02 L 1605.16 844.066 C 1608.2 843.284 1607.04 843.762 1609.56 841.481 z"/>
<path transform="translate(0,0)" fill="rgb(28,28,28)" d="M 740.642 479.995 C 741.66 479.156 749.275 475.45 750.95 474.603 C 754.294 475.242 755.56 475.175 758.116 477.443 C 754.576 479.267 749.54 482.078 746.048 483.644 C 744.22 482.104 742.661 481.254 740.642 479.995 z"/>
<path transform="translate(0,0)" fill="rgb(28,28,28)" d="M 1629.39 1396.99 C 1631.3 1393.88 1633.24 1390.79 1635.21 1387.72 L 1638.57 1391.77 C 1636.21 1395.86 1634.02 1399.78 1631.41 1403.73 L 1629.39 1396.99 z"/>
<path transform="translate(0,0)" fill="rgb(1,1,1)" d="M 424.278 526.883 C 442.389 503.613 469.188 476.282 490.816 455.949 C 611.239 342.868 764.538 271.064 928.501 250.941 C 1095.87 230.017 1265.5 264.053 1411.85 347.92 C 1623.29 469.995 1768.37 683.529 1797.88 926.637 C 1824.52 1130.99 1768.39 1337.51 1641.98 1500.27 C 1627.44 1518.83 1611.58 1537.46 1595.69 1554.91 C 1587 1564.45 1577.27 1573.41 1568.44 1582.75 C 1568.57 1581.66 1568.73 1580.59 1568.89 1579.5 L 1565.94 1577.95 C 1770.02 1378.18 1847.59 1082.3 1767.78 808.101 C 1687.97 533.897 1463.73 325.869 1184.32 266.821 C 904.912 207.773 615.679 307.29 431.754 525.759 C 430.423 523.928 431.25 524.571 429.367 523.713 C 427.888 524.785 427.246 525.213 425.62 526.137 L 424.278 526.883 z"/>
<path transform="translate(0,0)" fill="rgb(28,28,28)" d="M 424.278 526.883 L 425.62 526.137 C 427.246 525.213 427.888 524.785 429.367 523.713 C 431.25 524.571 430.423 523.928 431.754 525.759 C 275.955 710.818 215.58 958.049 268.545 1194.09 C 321.51 1430.13 481.73 1627.86 701.661 1728.61 C 702.967 1730.09 704.299 1731.55 705.657 1732.99 L 705.054 1735.68 C 621.661 1701.71 522.632 1628.58 460.344 1563.3 C 314.923 1411.32 236.983 1207.09 244.179 996.868 C 249.397 853.914 293.832 715.149 372.621 595.754 C 381.76 581.725 412.604 537.913 424.278 526.883 z"/>
<path transform="translate(0,0)" fill="rgb(1,1,1)" d="M 1638.05 475.359 C 1648.33 479.518 1681.58 525.01 1689.15 535.241 C 1778.09 655.513 1832.3 797.896 1845.88 946.865 C 1848.28 975.452 1850.25 1003.63 1849.97 1032.35 C 1848.63 1185.51 1804.45 1335.25 1722.42 1464.6 C 1698.56 1501.92 1669.87 1538.6 1641.31 1572.38 C 1638.6 1570.36 1637.17 1568.96 1639.43 1565.92 C 1647.76 1554.71 1657.4 1544.59 1666.18 1533.67 C 1682.14 1513.87 1697.07 1493.26 1710.89 1471.91 C 1913.59 1160.05 1883.3 761.273 1639.24 481.148 C 1637.8 479.497 1638.15 477.462 1638.05 475.359 z"/>
<path transform="translate(0,0)" fill="rgb(1,1,1)" d="M 1569.81 1635.92 L 1573.28 1638.27 L 1573.27 1639.68 C 1560.56 1652.96 1524.62 1680.01 1509.09 1691.34 C 1393.67 1776.31 1257.72 1829.05 1115.2 1844.15 C 936.423 1863.97 756.062 1824.99 601.436 1733.1 C 571.277 1714.57 542.139 1694.43 514.149 1672.76 C 502.825 1663.92 491.925 1654.11 480.682 1645.07 C 477.372 1642.09 477.131 1642.82 476.119 1639.24 L 477.096 1637.63 C 479.547 1637.71 481.57 1639.01 483.419 1640.57 C 511.903 1664.59 541.601 1687.5 572.77 1708.04 C 685.625 1782.89 815.27 1828.61 950.112 1841.1 C 1122.65 1856.84 1295.73 1817.26 1444.27 1728.09 C 1492.79 1698.67 1526.95 1671.79 1569.81 1635.92 z"/>
<path transform="translate(0,0)" fill="url(#Gradient6)" d="M 396.765 1559.73 C 386.009 1549.29 360.51 1514.46 351.786 1502.31 C 270.06 1388.96 219.004 1256.42 203.565 1117.53 C 178.65 890.734 242.791 679.028 385.362 501.632 L 387.519 507.976 C 248.743 682.293 183.471 893.969 208.628 1116.46 C 223.187 1244.18 267.859 1366.62 338.97 1473.7 C 351.707 1493.1 363.534 1510.42 378.278 1528.35 C 380.716 1531.32 394.697 1548.95 395.268 1550.93 L 395.941 1552.56 C 396.941 1554.93 397.454 1555.58 398.917 1557.67 L 398.87 1558.82 L 396.765 1559.73 z"/>
<path transform="translate(0,0)" fill="rgb(1,1,1)" d="M 1510.31 1627.4 L 1511.37 1633.15 C 1342.1 1766.54 1137.35 1824.32 923.795 1797.54 C 853.966 1788.79 768.793 1765.83 705.054 1735.68 L 705.657 1732.99 C 704.299 1731.55 702.967 1730.09 701.661 1728.61 C 968.601 1850.89 1281.74 1811.7 1510.31 1627.4 z"/>
<path transform="translate(0,0)" fill="rgb(28,28,28)" d="M 206.237 1325.48 C 205.857 1319.08 204.563 1316.11 203.94 1311.01 C 205.268 1314.79 206.52 1317.49 209.638 1320.12 C 212.446 1325.06 214.804 1332.73 216.946 1338.25 C 221.45 1349.63 226.047 1360.98 230.739 1372.29 C 238.491 1390.87 254.149 1421.09 263.859 1439.01 C 322.894 1545.6 403.234 1638.9 499.88 1713.1 C 514.852 1724.41 530.204 1735.22 545.909 1745.49 C 554.757 1751.16 574.17 1762.77 581.811 1768.61 C 583.977 1771.87 584.914 1772.72 587.969 1775.22 L 588 1776.21 C 586.374 1776.05 585.487 1776 583.883 1775.67 C 582.369 1774.92 582.898 1775.22 581.031 1774.12 C 432.136 1686.74 305.939 1548.49 233.664 1391.62 C 225.537 1373.98 211.085 1343.69 206.237 1325.48 z"/>
<path transform="translate(0,0)" fill="rgb(1,1,1)" d="M 650.663 287.979 C 656.295 282.971 699.429 265.322 709.667 261.062 C 854.2 201.717 1012.55 184.362 1166.5 210.992 C 1218.09 219.852 1250.37 230.593 1298.5 245.194 C 1295.99 246.399 1294.58 246.866 1292.6 248.868 C 1259.74 238.1 1223.69 227.608 1189.81 220.554 C 1041.35 189.988 887.322 201.182 744.841 252.891 C 713.28 264.406 685.147 277.373 655.118 292.131 C 653.335 290.254 652.613 289.673 650.663 287.979 z"/>
<path transform="translate(0,0)" fill="url(#Gradient5)" d="M 320.1 510.808 L 324.372 510.698 L 325.715 512.09 C 313.197 530.152 298.766 550.561 287.314 569.105 C 233.746 655.659 195.707 750.904 174.91 850.547 C 166.245 893.592 160.148 937.005 157.968 980.849 C 157.547 989.318 159.907 1010.36 155.082 1016.01 L 153.753 1015.49 C 153.474 1014.76 152.741 1012.85 152.736 1012.08 C 151.624 838.417 216.978 648.035 320.1 510.808 z"/>
<path transform="translate(0,0)" fill="rgb(1,1,1)" d="M 1468.02 1767.52 C 1468.58 1770.46 1468.21 1770.66 1469.84 1772.73 C 1461.85 1778.33 1447.47 1785.77 1438.57 1790.67 C 1379.9 1822.63 1317.7 1847.64 1253.23 1865.17 C 1191.91 1881.47 1129.04 1891.27 1065.67 1894.41 C 1058.05 1894.86 1038.55 1897.24 1032.56 1893.77 C 1035.19 1887.88 1071.65 1890.18 1079.87 1888.98 C 1086.97 1887.94 1096.9 1887.43 1104.2 1886.77 C 1214.21 1876.91 1321.23 1845.61 1419.21 1794.63 C 1434.78 1786.53 1453.2 1776.85 1468.02 1767.52 z"/>
<path transform="translate(0,0)" fill="rgb(1,1,1)" d="M 581.811 1768.61 C 676.169 1824.7 780.284 1862.45 888.667 1879.85 C 914.979 1883.75 941.408 1886.82 967.915 1889.03 C 974.583 1889.56 1014.73 1888.77 1016.24 1893.88 C 1008.55 1899.6 915.956 1888.92 900.588 1886.68 C 788.778 1870.74 681.179 1833.02 583.883 1775.67 C 585.487 1776 586.374 1776.05 588 1776.21 L 587.969 1775.22 C 584.914 1772.72 583.977 1771.87 581.811 1768.61 z"/>
<path transform="translate(0,0)" fill="rgb(1,1,1)" d="M 1782.49 1443.28 C 1786.13 1435.06 1792.3 1425.54 1796.24 1417.18 C 1803.68 1401.37 1811.87 1385.35 1818.98 1369.42 C 1848.38 1302.13 1869.17 1231.41 1880.87 1158.92 C 1884.12 1138.62 1886.67 1117.6 1888.71 1096.76 C 1890.6 1077.39 1889.48 1054.93 1891.93 1035.72 C 1892.18 1033.77 1892.63 1034.03 1894.42 1033.08 L 1895.83 1035 C 1897.41 1044.82 1895.09 1070.68 1894.41 1081.56 C 1887.63 1186.47 1861.64 1289.24 1817.73 1384.75 C 1810.74 1400.15 1799.26 1426.58 1789.71 1440.17 L 1788.08 1438.71 C 1785.02 1440.75 1785.14 1441.62 1782.49 1443.28 z"/>
<path transform="translate(0,0)" fill="rgb(1,1,1)" d="M 621.71 251.208 C 729.31 197.516 824.855 167.577 945.304 156.593 C 959.704 155.279 1000.26 151.537 1013.1 154.401 L 1014.42 155.8 L 1012.99 157.584 C 897.435 161.78 793.98 180.148 687.194 226.263 C 671.022 233.246 642.626 245.105 628.043 254.447 C 625.626 252.742 624.405 252.397 621.71 251.208 z"/>
<path transform="translate(0,0)" fill="url(#Gradient4)" d="M 1810.89 649.795 C 1857.71 741.738 1886.36 857.72 1893.73 960.499 C 1895 978.093 1897.72 1004.92 1894.82 1022.17 C 1890.04 1007.95 1890.06 981.123 1889 965.16 C 1887.79 948.069 1886.14 931.013 1884.02 914.01 C 1872.38 824.168 1846.6 736.732 1807.65 654.941 C 1809.57 653.309 1809.72 652.21 1810.89 649.795 z"/>
<path transform="translate(0,0)" fill="rgb(1,1,1)" d="M 1385.89 236.644 C 1368.96 230.514 1349.85 220.967 1331.71 214.152 C 1277.3 193.451 1220.93 178.316 1163.47 168.981 C 1127.29 163.067 1090.07 160.145 1053.5 158.01 C 1048.47 157.716 1037.73 158.661 1033.67 156.753 L 1033.6 155.494 C 1034.17 155.083 1035.68 153.893 1036.29 153.885 C 1154.58 152.271 1286.4 184.905 1391.16 234.067 L 1385.89 236.644 z"/>
<path transform="translate(0,0)" fill="url(#Gradient3)" d="M 1641.9 409.78 C 1706.31 469.419 1773.83 570.559 1810.89 649.795 C 1809.72 652.21 1809.57 653.309 1807.65 654.941 C 1764.68 567.985 1705.29 476.922 1634.13 410.156 L 1641.9 409.78 z"/>
<path transform="translate(0,0)" fill="rgb(1,1,1)" d="M 206.237 1325.48 C 203.771 1319.01 201.365 1312.52 199.019 1306 C 173.036 1233.91 157.508 1148.72 153.298 1072.32 C 152.79 1063.11 150.614 1040 154.208 1032.36 C 156.421 1034.84 157.782 1042.06 157.789 1045.4 C 157.979 1140.74 178.652 1230.86 209.638 1320.12 C 206.52 1317.49 205.268 1314.79 203.94 1311.01 C 204.563 1316.11 205.857 1319.08 206.237 1325.48 z"/>
<path transform="translate(0,0)" fill="rgb(28,28,28)" d="M 1782.49 1443.28 C 1785.14 1441.62 1785.02 1440.75 1788.08 1438.71 L 1789.71 1440.17 C 1780.76 1459.52 1767.18 1479.87 1755.62 1497.79 C 1728.63 1539.64 1697.98 1578.82 1664.04 1615.26 C 1655.87 1624.03 1643.39 1637.68 1634.22 1645 C 1633.27 1642.49 1633.58 1641.49 1633.57 1638.69 C 1673.33 1597.68 1706.09 1561.09 1738.71 1513.23 C 1747.15 1500.98 1755.21 1488.48 1762.89 1475.75 C 1766.36 1469.87 1779.04 1447.32 1782.49 1443.28 z"/>
<path transform="translate(0,0)" fill="rgb(1,1,1)" d="M 1493.83 1751.4 C 1534.5 1726.72 1599.89 1673.34 1633.57 1638.69 C 1633.58 1641.49 1633.27 1642.49 1634.22 1645 C 1610.71 1672.23 1531.31 1735.67 1499.86 1754.18 C 1497.17 1751.38 1498.28 1752.25 1493.83 1751.4 z"/>
<path transform="translate(0,0)" fill="rgb(28,28,28)" d="M 468.738 353.179 C 472.099 352.749 474.182 352.075 477.187 353.525 C 426.876 395.522 398.03 424.745 355.621 474.156 L 351.964 469.404 C 384.475 430.426 429.686 385.18 468.738 353.179 z"/>
<path transform="translate(0,0)" fill="url(#Gradient2)" d="M 1424.04 250.212 C 1447.06 260.583 1540.4 318.109 1556.14 335.334 C 1553.92 336.641 1553.73 336.403 1552.16 338.237 C 1527.65 320.232 1501.75 301.434 1476 285.456 C 1458.65 274.694 1438.86 264.598 1420.92 254.523 C 1422.16 252.113 1422.21 252.337 1424.04 250.212 z"/>
<path transform="translate(0,0)" fill="rgb(47,47,46)" d="M 1372.97 276.264 C 1405.55 290.586 1448.86 314.819 1478.06 335.558 C 1476.83 337.496 1476.6 338.317 1474.94 339.688 C 1446.98 321.98 1399.76 292.54 1368.99 280.311 L 1372.97 276.264 z"/>
<path transform="translate(0,0)" fill="rgb(1,1,1)" d="M 1478.06 335.558 C 1493.2 345.833 1565.36 395.691 1573.05 410.373 L 1572.94 411.379 C 1567.88 411.846 1561.87 406.03 1558.05 402.548 C 1541.43 387.405 1523.33 374.384 1505.48 361.009 C 1501.71 358.182 1476.13 340.987 1474.94 339.688 C 1476.6 338.317 1476.83 337.496 1478.06 335.558 z"/>
<path transform="translate(0,0)" fill="rgb(28,28,28)" d="M 1298.5 245.194 C 1314.91 250.73 1357.74 267.553 1372.97 276.264 L 1368.99 280.311 C 1346.3 269.119 1316.3 257.817 1292.6 248.868 C 1294.58 246.866 1295.99 246.399 1298.5 245.194 z"/>
<path transform="translate(0,0)" fill="rgb(47,47,46)" d="M 594.933 319.095 C 598.608 318.731 601.764 318.347 605.411 317.767 L 605.929 319.301 C 581.271 334.275 559.801 349.894 536.101 365.676 C 535.216 365.045 535.726 365.51 534.892 363.995 L 536.989 358.344 C 555.928 344.875 575.104 331.202 594.933 319.095 z"/>
<path transform="translate(0,0)" fill="rgb(28,28,28)" d="M 1510.31 1627.4 C 1529.63 1611.82 1548.2 1595.32 1565.94 1577.95 L 1568.89 1579.5 C 1568.73 1580.59 1568.57 1581.66 1568.44 1582.75 C 1549 1601.71 1532.03 1615.81 1511.37 1633.15 L 1510.31 1627.4 z"/>
<path transform="translate(0,0)" fill="rgb(28,28,28)" d="M 1556.14 335.334 C 1572.78 346.657 1591.53 362.552 1606.34 376.296 C 1607.35 378.678 1607.61 379.267 1608.19 381.764 C 1606.04 380.951 1605.32 380.436 1603.15 380.284 C 1587.48 368.433 1568.26 351.201 1552.16 338.237 C 1553.73 336.403 1553.92 336.641 1556.14 335.334 z"/>
<path transform="translate(0,0)" fill="rgb(1,1,1)" d="M 536.989 358.344 L 534.892 363.995 C 535.726 365.51 535.216 365.045 536.101 365.676 C 525.58 374.156 504.176 392.145 493.853 399.352 C 491.722 399.023 488.201 399.058 485.931 398.998 C 503.189 385.032 519.136 371.832 536.989 358.344 z"/>
<path transform="translate(0,0)" fill="rgb(1,1,1)" d="M 516.967 315.988 C 516.506 319.146 515.919 319.965 516.948 322.657 C 507.872 330.146 498.11 337.124 488.748 344.292 C 486.489 346.021 479.116 352.452 477.187 353.525 C 474.182 352.075 472.099 352.749 468.738 353.179 C 483.831 340.682 501.218 327.882 516.967 315.988 z"/>
<path transform="translate(0,0)" fill="url(#Gradient1)" d="M 458.901 424.201 C 461.05 425.426 460.981 425.262 462.041 427.477 C 461.149 430.639 431.868 457.583 427.849 461.432 C 425.844 460.891 426.772 461.43 425.243 459.54 C 426.77 452.732 452.093 428.625 458.901 424.201 z"/>
<path transform="translate(0,0)" fill="rgb(1,1,1)" d="M 351.964 469.404 L 355.621 474.156 C 348.418 482.506 342.189 490.256 335.579 499.126 C 333.825 501.479 327.22 510.577 325.715 512.09 L 324.372 510.698 L 320.1 510.808 C 328.119 498.717 342.738 481.135 351.964 469.404 z"/>
<path transform="translate(0,0)" fill="rgb(1,1,1)" d="M 426.083 1585.81 C 429.75 1588.19 458.815 1616.91 461.44 1621.43 L 460.414 1624.61 C 454.708 1623.45 429.556 1596.94 424.479 1590.6 C 423.9 1589.88 425.677 1586.7 426.083 1585.81 z"/>
<path transform="translate(0,0)" fill="rgb(47,47,46)" d="M 1589.93 423.75 C 1595.46 427.6 1619.3 451.026 1623.37 457.912 C 1624.08 459.109 1622.99 460.576 1622.27 462.324 C 1618.76 460.404 1590.9 433.38 1588.51 427.973 C 1588.02 426.847 1589.2 425.276 1589.93 423.75 z"/>
<path transform="translate(0,0)" fill="rgb(28,28,28)" d="M 549.011 294.318 C 553.217 293.417 555.338 292.328 558.907 294.402 C 545.741 303.337 530.309 314.364 516.948 322.657 C 515.919 319.965 516.506 319.146 516.967 315.988 C 526.83 308.833 538.531 300.35 549.011 294.318 z"/>
<path transform="translate(0,0)" fill="rgb(1,1,1)" d="M 598.075 264.377 C 595.757 268.713 595.258 267.899 595.966 271.654 C 583.619 279.106 570.917 286.466 558.907 294.402 C 555.338 292.328 553.217 293.417 549.011 294.318 C 561.807 284.736 583.705 272.701 598.075 264.377 z"/>
<path transform="translate(0,0)" fill="rgb(1,1,1)" d="M 1620.56 1586.67 C 1623.02 1587.81 1621.98 1587.01 1623.38 1589.47 C 1621.57 1595.03 1596.76 1618.41 1590.91 1624.22 C 1588.51 1623.27 1589.51 1624.02 1588.19 1621.54 C 1589.02 1616.24 1615.17 1592.02 1620.56 1586.67 z"/>
<path transform="translate(0,0)" fill="rgb(47,47,46)" d="M 1606.34 376.296 C 1613.73 382.534 1635.78 402.766 1641.9 409.78 L 1634.13 410.156 C 1624.49 399.847 1613.26 390.897 1603.15 380.284 C 1605.32 380.436 1606.04 380.951 1608.19 381.764 C 1607.61 379.267 1607.35 378.678 1606.34 376.296 z"/>
<path transform="translate(0,0)" fill="rgb(1,1,1)" d="M 594.933 319.095 C 609.581 310.398 624.43 302.043 639.467 294.036 C 639.309 297.364 638.959 296.952 640.068 299.862 C 628.62 306.22 617.24 312.7 605.929 319.301 L 605.411 317.767 C 601.764 318.347 598.608 318.731 594.933 319.095 z"/>
<path transform="translate(0,0)" fill="rgb(28,28,28)" d="M 385.362 501.632 C 389.714 496.366 403.818 477.947 409.809 477.411 C 410.406 483.973 392.471 502.392 387.519 507.976 L 385.362 501.632 z"/>
<path transform="translate(0,0)" fill="rgb(47,47,46)" d="M 1391.16 234.067 C 1397.32 236.919 1419.28 246.794 1424.04 250.212 C 1422.21 252.337 1422.16 252.113 1420.92 254.523 C 1409.13 248.777 1397.45 242.816 1385.89 236.644 L 1391.16 234.067 z"/>
<path transform="translate(0,0)" fill="rgb(28,28,28)" d="M 1493.83 1751.4 C 1498.28 1752.25 1497.17 1751.38 1499.86 1754.18 C 1490.97 1759.97 1479.14 1768.09 1469.84 1772.73 C 1468.21 1770.66 1468.58 1770.46 1468.02 1767.52 C 1476.53 1761.99 1485.13 1756.61 1493.83 1751.4 z"/>
<path transform="translate(0,0)" fill="rgb(28,28,28)" d="M 621.71 251.208 C 624.405 252.397 625.626 252.742 628.043 254.447 C 617.316 260.118 606.623 265.854 595.966 271.654 C 595.258 267.899 595.757 268.713 598.075 264.377 C 606.512 258.997 612.855 255.722 621.71 251.208 z"/>
<path transform="translate(0,0)" fill="rgb(1,1,1)" d="M 395.268 1550.93 C 399.203 1554.81 409.447 1564.72 408.867 1570.42 C 403.508 1569.55 400.717 1563.73 396.765 1559.73 L 398.87 1558.82 L 398.917 1557.67 C 397.454 1555.58 396.941 1554.93 395.941 1552.56 L 395.268 1550.93 z"/>
<path transform="translate(0,0)" fill="rgb(28,28,28)" d="M 485.931 398.998 C 488.201 399.058 491.722 399.023 493.853 399.352 C 488.661 404 484.674 408.708 477.992 410.033 L 477.2 408.764 C 478.899 404.437 482.332 402.16 485.931 398.998 z"/>
<path transform="translate(0,0)" fill="rgb(1,1,1)" d="M 639.467 294.036 L 650.663 287.979 C 652.613 289.673 653.335 290.254 655.118 292.131 C 649.96 294.928 645.405 297.398 640.068 299.862 C 638.959 296.952 639.309 297.364 639.467 294.036 z"/>
</svg>