<svg version="1.1" xmlns="http://www.w3.org/2000/svg" style="display: block;" viewBox="0 0 2048 2048" width="1024" height="1024" preserveAspectRatio="none">
<defs>
	<linearGradient id="Gradient1" gradientUnits="userSpaceOnUse" x1="1969.12" y1="115.53" x2="1957.33" y2="96.1987">
		<stop class="stop0" offset="0" stop-opacity="0.984314" stop-color="rgb(0,0,1)"/>
		<stop class="stop1" offset="1" stop-opacity="1" stop-color="rgb(35,30,28)"/>
	</linearGradient>
	<linearGradient id="Gradient2" gradientUnits="userSpaceOnUse" x1="1442.43" y1="282.052" x2="1454.8" y2="288.959">
		<stop class="stop0" offset="0" stop-opacity="1" stop-color="rgb(37,41,31)"/>
		<stop class="stop1" offset="1" stop-opacity="1" stop-color="rgb(59,53,54)"/>
	</linearGradient>
	<linearGradient id="Gradient3" gradientUnits="userSpaceOnUse" x1="1606.5" y1="290.522" x2="1592.59" y2="280.036">
		<stop class="stop0" offset="0" stop-opacity="1" stop-color="rgb(52,45,48)"/>
		<stop class="stop1" offset="1" stop-opacity="1" stop-color="rgb(40,42,32)"/>
	</linearGradient>
	<linearGradient id="Gradient4" gradientUnits="userSpaceOnUse" x1="1204.13" y1="1239.66" x2="1177.72" y2="1255.42">
		<stop class="stop0" offset="0" stop-opacity="1" stop-color="rgb(24,18,19)"/>
		<stop class="stop1" offset="1" stop-opacity="1" stop-color="rgb(30,34,25)"/>
	</linearGradient>
	<linearGradient id="Gradient5" gradientUnits="userSpaceOnUse" x1="616.463" y1="793.555" x2="887.504" y2="-142.25">
		<stop class="stop0" offset="0" stop-opacity="1" stop-color="rgb(31,30,27)"/>
		<stop class="stop1" offset="1" stop-opacity="1" stop-color="rgb(62,60,56)"/>
	</linearGradient>
</defs>
<path transform="translate(0,0)" fill="rgb(0,0,0)" d="M 295.461 0 L 301.227 0 C 316.49 19.8138 337.946 54.9424 352.122 76.7069 L 434.735 202.108 C 501.77 304.512 571.064 405.42 642.565 504.756 C 671.242 544.613 703.843 591.077 734.026 629.482 C 744.282 611.881 754.382 594.189 764.324 576.409 L 433.394 0 L 441.17 0 C 448.467 16.4936 469.885 50.7567 479.604 67.7152 L 551.128 192.946 L 768.204 570.2 C 787.538 537.056 806.495 503.139 826.098 470.209 C 820.466 458.121 813.862 437.165 809.321 424.05 L 781.321 343.417 L 696.805 102.441 C 685.292 69.6594 673.945 32.1202 661.572 0 L 668.174 0 C 703.836 104.595 740.151 208.966 777.114 313.109 C 794.913 363.263 811.515 414.205 829.985 464.101 C 845.026 437.285 860.205 410.548 875.522 383.889 C 883.301 370.217 894.199 349.655 902.576 336.912 C 901.375 331.105 895.904 301.328 896.133 297.229 C 898.699 291.615 890.169 256.447 889.632 246.316 C 892.153 247.939 897.069 285.93 899.303 293.26 L 901.003 294.048 C 903.161 305.15 905.653 319.106 906.632 330.185 C 925.229 296.616 947.039 260.736 966.549 227.712 C 975.826 212.009 1010.08 148.944 1020.92 140.381 C 1020.43 127.223 1021.28 114.809 1022.08 101.69 C 1025.24 97.7213 1022.31 96.9581 1024.45 91.1538 C 1025.88 97.3719 1025.89 101.799 1027.68 107.591 C 1029.38 148.843 1022.06 139.099 1043.63 176.331 L 1073.78 227.835 C 1094.1 262.543 1116.62 304.463 1137.6 337.931 C 1139.23 325.096 1142.78 308.365 1145.08 295.339 L 1157.09 225.034 L 1195.5 0 L 1200.91 0 C 1198.71 7.92405 1196.93 21.2693 1195.56 29.6886 L 1187.68 77.1595 L 1157.22 255.298 L 1147.28 313.877 C 1145.78 322.747 1143.82 336.767 1141.73 345.189 C 1162.68 386.708 1193.1 432.697 1215.42 474.368 C 1221.96 459.657 1227.96 440.551 1233.58 425.025 L 1272.67 316.114 C 1303.36 232.821 1333.45 149.312 1362.96 65.593 C 1370.72 43.6905 1379.31 21.8932 1386.81 0 L 1393.74 0 C 1388.26 10.7435 1378.09 41.1999 1373.59 53.7551 C 1361.13 89.518 1348.33 125.161 1335.19 160.68 L 1261.86 364.136 C 1247.97 402.808 1232.48 443.321 1219.97 482.362 C 1232.77 506.577 1248.42 530.477 1261.14 554.905 C 1264.3 560.962 1272.82 573.245 1275.05 578.776 L 1275.91 579.732 C 1279.2 575.669 1281.66 571.092 1284.25 566.568 C 1285.49 575.673 1277.61 577.78 1276.62 585.526 C 1276.53 586.163 1286.48 602.821 1287.02 603.264 L 1288.4 602.871 C 1292.44 607.175 1308.84 637.442 1313.92 645.409 C 1319.22 636.725 1329.64 624.165 1336.08 615.789 C 1349.4 598.454 1363.17 581.018 1377.36 564.388 L 1377.68 572.836 C 1367.07 587.077 1355.42 601.043 1344.59 615.216 C 1341.82 618.845 1327.45 637.717 1325.67 639.228 C 1300.73 653.812 1331.69 669.361 1335.78 689.065 C 1335.91 689.679 1345.84 703.46 1345.87 703.481 C 1351.97 701.699 1360.25 688.456 1367.3 684.36 C 1367.24 689.822 1352.54 700.889 1347.97 706.598 L 1348.53 708.422 C 1351.98 716.446 1363.04 736.859 1369.5 741.91 C 1373.34 741.482 1376.89 734.636 1380.48 734.311 C 1379.74 737.489 1379.7 737.261 1377.48 739.711 C 1373.53 741.2 1375.03 739.994 1372.67 743.284 C 1370.92 752.925 1381.17 765.537 1385.89 774.149 C 1388.4 778.744 1398.5 795.898 1401.65 797.834 C 1404.83 796.85 1404.99 797.133 1407.03 794.619 L 1406.14 793.578 C 1411.91 789.606 1426 781.841 1432.64 777.835 C 1456.49 763.392 1480.47 749.171 1504.57 735.174 L 1701.02 618.215 L 1948.54 470.568 C 1979.66 452.246 2016.76 427.731 2048 411.417 L 2048 417.454 C 2029.11 429.251 2009.14 440.508 1989.97 452.033 C 1942.25 481.018 1894.33 509.65 1846.19 537.926 L 1585.65 693.79 C 1542.35 719.777 1498.52 745.191 1455.4 771.378 C 1440.62 780.355 1417.65 793.385 1404.77 802.868 C 1413.23 814.5 1418.48 826.545 1426.17 838.107 C 1442.06 828.789 1469.68 817.596 1487.44 809.312 L 1641.01 738.991 L 1884.66 627.206 C 1926.17 607.579 1967.9 588.4 2009.82 569.673 C 2022.56 563.86 2035.33 557.326 2048 551.747 L 2048 557.551 C 2034.14 565.01 2016.83 571.869 2002.08 578.7 C 1969.86 593.838 1937.54 608.764 1905.12 623.477 L 1682.69 725.919 L 1501.61 808.955 C 1481.29 818.185 1460.92 827.214 1441.02 837.333 C 1437 839.378 1432.78 840.932 1428.52 842.408 C 1435.59 854.723 1449.99 881.393 1457.52 891.563 C 1482.71 885.973 1519.05 873.78 1544.2 865.879 L 1650.4 833.193 L 2048 708.079 L 2048 713.85 C 1852.52 776.105 1656.7 837.294 1460.55 897.413 C 1471.72 914.53 1480.87 931.908 1491.58 948.837 C 1551.24 942.279 1622.7 928.651 1682.5 919.413 L 1905.88 883.564 C 1953.29 876.07 2000.67 868.322 2048 860.321 L 2048 866.2 C 1863.86 896.565 1679.56 925.919 1495.1 954.26 C 1506.81 974.758 1522.05 1001.41 1534.96 1020.79 C 1555.41 1018.2 1578.36 1021.53 1599.02 1020.95 C 1674.88 1018.81 1750.62 1021.04 1826.41 1021.4 C 1900.21 1021.74 1974.11 1019.85 2048 1020.97 L 2048 1026.29 L 1684 1027.23 L 1586 1027.26 C 1570.53 1027.33 1553.62 1028.21 1538.32 1027.44 L 1573.22 1084.89 C 1578.71 1094.06 1590.48 1115.23 1597.18 1122.14 L 2048 1204.47 L 2048 1209.52 C 2005.93 1203.4 1961.4 1194.1 1919.4 1186.41 L 1739.26 1153.79 L 1657.37 1139.08 C 1639.45 1135.84 1617.9 1131.39 1600.02 1129.23 L 1662.08 1233.03 C 1665.71 1239.1 1686.89 1276.4 1690.98 1278.2 C 1721.81 1291.77 1755.79 1304.48 1787.19 1316.74 L 1957.04 1384.21 L 2017.37 1408.53 C 2024.62 1411.46 2041.14 1418.71 2048 1420.76 L 2048 1426.37 C 1970.28 1396.5 1892.9 1365.72 1815.89 1334.06 C 1777.76 1318.8 1731.31 1302.77 1694.36 1286.33 C 1704.39 1301.95 1714.3 1319.93 1723.74 1336.06 L 1777.62 1427.02 C 1785.9 1440.75 1792.93 1456.62 1802.85 1469.12 C 1808.63 1476.41 1950.74 1557.35 1970.06 1568.76 C 1988.51 1579.84 2007.02 1590.83 2025.58 1601.71 C 2031.75 1605.34 2042.12 1611.97 2048 1614.97 L 2048 1622 C 2033.12 1612.21 2015.96 1602.6 2000.43 1593.46 L 1926.03 1549.68 C 1890.6 1528.97 1845.38 1500.87 1809.42 1481.97 C 1814.9 1490.31 1827.75 1507.97 1828.63 1518.12 C 1828.67 1518.61 1828.03 1521.27 1826.99 1521.29 C 1783.17 1522.23 1738.55 1523.27 1694.6 1523.33 C 1689 1523.34 1684.82 1522.43 1681.13 1521.52 C 1712.95 1547.57 1746.27 1572.23 1778.79 1597.45 L 1957.81 1736.7 C 1985.62 1758.33 2021.72 1784.63 2048 1806.8 L 2048 1814.44 C 2035.4 1803.24 2013.8 1787.6 2000.07 1777.02 L 1907.15 1704.94 L 1758.11 1589.1 L 1701.63 1545.64 C 1693.03 1539.05 1680.7 1528.96 1671.97 1523.19 C 1644.45 1523.82 1616.92 1524.01 1589.39 1523.73 C 1569.57 1523.73 1546.75 1524.02 1527.07 1522.84 C 1540.1 1533.59 1560.02 1555.46 1572.76 1568.05 L 1688.44 1683.84 C 1800.26 1794.4 1911.16 1905.89 2021.13 2018.29 C 2017.6 2019.62 2018.95 2018.56 2016.72 2021.3 C 1909.66 1915.22 1803.32 1808.43 1697.7 1700.93 L 1561.72 1564.62 C 1548.56 1551.21 1532.85 1536.6 1520.34 1522.98 C 1480.24 1523.41 1442.18 1522.52 1402.28 1522.39 C 1427.84 1553.7 1456.84 1593.86 1481.6 1626.39 L 1639.22 1833.89 L 1753.49 1982.97 C 1768.57 2002.85 1788.7 2027.61 1802.36 2048 L 1795.35 2048 C 1791.9 2042.5 1781.14 2029.41 1776.51 2023.36 L 1731.99 1965.37 L 1583.62 1770.86 L 1460.2 1608.46 L 1419.28 1554.77 C 1411.38 1544.38 1402.55 1531.64 1393.84 1522.21 C 1364.89 1522.01 1335.94 1521.95 1306.98 1522.04 C 1325.95 1558.69 1349.74 1598.53 1370.09 1634.78 L 1523.07 1905.99 C 1549.14 1952.12 1578.81 2001.46 1603.3 2048 L 1596.61 2048 C 1575.01 2008.87 1552.11 1969.99 1530.13 1931.03 L 1299.33 1521.93 C 1271.73 1521.9 1243.74 1522.15 1216.18 1521.05 L 1335.64 1832.3 L 1393.09 1981.49 C 1401.17 2002.57 1412.23 2026.82 1419.05 2048 L 1413.01 2048 C 1407.16 2034.91 1401.3 2018.54 1395.98 2004.99 L 1350.91 1887.53 L 1210.18 1521.2 C 1174.54 1521.55 1138.89 1521.47 1103.25 1520.95 L 1159.45 1885.16 L 1175.44 1987.96 C 1178.12 2004.87 1183.17 2031.58 1184.38 2048 L 1179.1 2048 C 1176.7 2029.95 1173.36 2011.91 1170.66 1993.86 L 1141.9 1809.43 L 1097.72 1520.91 C 1074.52 1521.44 1050.26 1521.08 1026.95 1521.03 L 1026.17 1849.34 C 1025.81 1913.81 1024.75 1983.78 1026.22 2048 L 1020.34 2048 C 1019.51 2011.63 1020.12 1972.44 1020.16 1935.85 L 1020.4 1746.71 L 1020.74 1582.35 C 1020.81 1561.41 1020.24 1542.01 1020.78 1520.87 C 998.99 1521.34 977.191 1521.46 955.395 1521.21 C 951.733 1542.8 949.056 1568.86 945.849 1591.08 L 915.368 1804.52 L 892.991 1960.59 C 889.378 1986.04 883.023 2023.08 881.294 2048 L 875.809 2048 C 877.074 2027.28 883.011 1993.56 886.057 1971.81 L 908.119 1817.66 L 941.431 1585.49 C 944.5 1564.31 946.643 1542.15 950.025 1521.26 C 909.191 1521.85 868.353 1522.09 827.515 1522 C 797.39 1598.99 766.485 1675.67 734.804 1752.03 L 614.303 2048 L 608.416 2048 C 612.635 2034.43 622.242 2012.87 627.795 1999.27 L 660.362 1919.26 L 748.476 1702.45 L 797.37 1582.35 C 802.999 1568.36 815.825 1532.89 822.43 1522.02 C 797.427 1521.96 772.424 1522.03 747.422 1522.24 C 730.995 1549.39 714.181 1580.55 698.429 1608.42 L 628.307 1731.28 L 446.617 2048 L 439.946 2048 C 447.778 2031.76 463.845 2005.68 473.296 1989.23 L 533.626 1883.8 C 603.175 1763.95 671.819 1643.57 739.553 1522.69 C 734.664 1522.97 729.102 1523.02 724.16 1522.98 C 699.746 1522.76 674.485 1524.62 650.171 1523.02 C 638.598 1540.11 621.093 1561.27 608.168 1578.01 L 534.002 1674.92 C 497.834 1722.55 461.298 1769.89 424.399 1816.95 C 365.618 1893.46 305.484 1972.49 245.557 2048 L 238.272 2048 C 275.698 1996.54 319.645 1943.94 358.461 1893.07 L 516.061 1688.6 C 558.015 1633.35 600.251 1578.31 642.768 1523.48 C 630.52 1524.37 613.207 1523.96 600.635 1523.98 L 526.864 1524.07 C 509.66 1537.88 488.852 1559.93 472.895 1576.04 C 449.156 1600.19 425.194 1624.13 401.011 1647.83 C 299.519 1750.09 197.454 1851.78 94.8201 1952.89 C 76.4637 1970.64 58.2674 1988.57 40.2334 2006.65 C 27.8824 2019.18 12.9627 2035.39 0 2046.79 L 0 2038.36 C 52.3 1987.14 104.177 1935.49 155.625 1883.41 L 368.917 1672.38 L 469.737 1571.4 C 485.349 1555.83 501.719 1538.81 517.66 1523.81 C 472.457 1525.34 412.776 1526.23 367.407 1524.47 C 340.547 1546.35 309.667 1569.09 282.06 1590.23 L 164.482 1680.75 C 128.86 1708.47 93.0124 1735.9 56.9441 1763.04 C 38.1146 1777.5 19.081 1792.78 0 1806.69 L 0 1799.69 L 233.937 1620.14 C 263.337 1596.93 292.958 1573.99 322.798 1551.35 C 333.779 1543.04 349.063 1530.16 360.4 1523.72 C 334.28 1527.79 296.835 1522.35 269.75 1524.05 C 261.778 1524.55 210.504 1525.21 206.045 1521.41 C 205.136 1515.31 211.978 1505.74 215.383 1500.05 C 206.375 1506.83 190.312 1514.99 179.988 1521.14 C 159.304 1533.47 138.562 1546.08 117.552 1557.81 C 78.4665 1579.62 39.1687 1605.03 0 1626.36 L 0 1619.49 C 50.5122 1591.56 100.759 1560.34 151.093 1531.54 C 173.435 1517.79 199.42 1504.65 220.591 1489.47 C 224.812 1486.44 244.982 1450.06 248.464 1444.17 L 296.732 1362.83 C 308.362 1343.04 328.802 1311.34 338.408 1292.19 C 302.529 1305.09 261.546 1322.56 226.102 1336.94 L 97.3607 1388.61 C 68.0883 1400.58 29.1872 1417.7 0 1427.74 L 0 1421.93 L 244.238 1323.32 C 277.559 1310.22 310.762 1296.81 343.842 1283.11 C 348.422 1276.47 352.937 1268.59 357.019 1261.56 C 382.153 1218.24 410.8 1175.43 435.178 1131.81 C 404.705 1138.22 370.055 1143.2 338.724 1149.11 L 0 1211.97 L 0 1205.89 C 50.5238 1197.64 100.807 1187.26 151.139 1178.01 L 438.373 1125.62 C 457.765 1097.59 480.942 1056.74 498.605 1027 L 0 1026.22 L 0 1020.89 C 21.6868 1019.75 43.771 1020.56 65.4843 1020.23 C 116.768 1019.44 168.166 1021.25 219.378 1020.82 C 294.484 1020.19 370.202 1019.08 445.268 1021.12 C 462.579 1021.59 484.423 1019.54 501.113 1022.13 C 513.992 1004.99 535.434 965.903 547.266 946.343 L 239.399 890.85 C 182.169 881.02 125.037 870.629 68.0112 859.677 C 46.6719 855.7 20.564 852.293 0 847.585 L 0 842.617 C 15.2884 844.143 38.0557 848.803 53.5991 851.59 L 155.023 870.208 L 428.424 918.964 C 467.887 925.861 511.243 934.946 550.69 940.506 C 565.263 918.066 584.613 884.539 597.618 861.27 C 543.796 839.194 489.256 814.547 435.875 791.282 L 0 600.033 L 0 593.745 C 20.2158 601.771 46.3832 614.468 66.9786 623.539 L 210.232 686.237 L 600.644 856.523 C 613.276 836.602 624.534 816.798 636.234 796.339 C 621.232 785.018 590.429 767.77 573.296 757.544 L 466.61 693.199 L 175.45 517.788 C 117.566 483.199 56.9124 448.057 0 412.27 L 0 405.947 L 422.514 659.717 L 570.641 748.831 C 588.704 759.678 622.625 781.764 639.826 790.324 C 644.982 781.938 649.667 774.193 654.439 765.543 C 575.09 713.037 496.936 658.747 420.038 602.712 L 376.005 570.378 C 365.965 563.03 351.952 553.309 343.382 544.924 C 347.95 546.31 354.858 548.177 358.566 550.892 C 379.146 565.955 399.726 581.196 420.384 596.152 C 470.855 632.962 521.915 668.959 573.543 704.129 C 585.767 712.326 653.641 755.973 657.373 761.16 C 666.378 744.791 677.737 725.896 687.577 710.032 C 673.685 698.585 650.654 675.849 637.735 662.984 C 635.809 657.836 632.219 655.488 628.032 651.691 L 628.555 650.505 C 633.54 652.006 632.409 657.097 639.151 657.189 C 654.711 668.822 674.659 691.039 690.301 704.317 C 703.414 681.16 717.351 659.066 730.473 635.283 C 621.068 488.534 516.278 338.4 416.256 185.102 L 343.622 74.4476 C 328.344 51.2329 309.288 23.5725 295.461 0 z M 917.464 392.28 C 919.388 397.438 924.117 430.643 925.274 437.465 L 947.94 574.092 L 993.432 841.706 L 1008.71 927.111 C 1012.26 946.249 1016.54 966.154 1019.32 985.325 C 1021.97 962.849 1020.59 930.165 1020.42 907.335 L 1020.66 797.531 L 1021.86 355.133 C 1021.94 347.241 1020.53 290.174 1022.13 286.306 C 1021.3 276.591 1020.15 260.971 1020.94 251.253 C 1023.28 222.23 1021.13 195.307 1020.05 166.4 C 1005.25 187.121 985.039 225.104 971.691 247.882 C 958.21 270.643 944.876 293.491 931.689 316.423 C 925.389 327.283 916.417 341.737 910.924 352.677 C 912.908 362.598 916.73 382.447 917.464 392.28 z M 1026.95 285.43 C 1028.35 302.729 1027.01 322.973 1027.1 340.884 L 1026.89 485.092 L 1026.27 980.901 C 1029.97 967.393 1032.75 948.879 1035.32 934.648 L 1051.96 837.719 L 1105.56 523.434 C 1110.26 494.888 1115.17 466.376 1120.27 437.899 C 1121.84 428.749 1125.04 406.214 1127.31 398.936 C 1127.17 395.436 1132.49 366.058 1133.41 360.65 L 1069.31 249.701 C 1055.73 226.406 1040.02 201.344 1027.67 177.547 C 1027.58 193.767 1027.14 209.073 1027.42 225.375 C 1027.68 240.381 1029.08 271.098 1026.95 285.43 z M 1208.89 493.298 L 1167.87 421.597 C 1159.47 407.11 1145.22 383.516 1138.5 368.86 C 1135.61 379.374 1134.76 389.897 1132 400.188 C 1124.25 449.43 1115.02 499.339 1106.64 548.563 L 1065.39 792.298 L 1044.41 915.412 C 1043.18 922.738 1033.41 974.175 1035.21 978.071 C 1038.99 972.489 1045.11 952.752 1047.98 944.957 L 1073.54 874.79 L 1160.08 631.759 C 1164.32 619.883 1181.28 567.114 1186.47 559.144 C 1192.18 539.031 1201.88 513.864 1208.89 493.298 z M 911.999 392.774 C 910.298 382.616 908.513 370.976 905.745 361.153 C 882.156 399.03 859.672 445.608 836.038 481.698 C 839.604 490.86 853.989 531.254 856.047 540.268 C 859.609 546.615 865.831 566.413 868.285 573.864 L 884.784 622.567 C 896.692 656.61 1008.95 977.846 1011.91 979.827 C 1012.42 977.717 983.424 819.227 981.099 805.705 L 911.999 392.774 z M 776.429 585.358 C 791.126 609.118 803.67 632.432 817.418 656.528 L 882.288 769.411 L 921.197 836.76 C 925.793 844.681 938.798 865.973 941.743 873.842 C 951.146 880.701 994.607 973.389 1004.12 979.495 L 1004.24 977.729 C 1000.29 970.374 999.859 965.343 997.055 957.787 C 985.92 927.78 975.215 897.5 964.384 867.38 C 940.128 799.572 916.433 731.564 893.302 663.364 C 883.501 634.801 871.396 603.501 862.524 575.178 C 856.735 559.887 851.802 543.819 846.348 528.355 C 841.738 515.284 836.607 502.106 832.799 488.825 C 815.813 516.386 800.274 545.027 783.909 572.967 C 781.429 577.2 779.171 581.264 776.429 585.358 z M 1042.2 979.659 C 1047.29 973.747 1053.52 961.766 1057.57 954.619 L 1083.41 908.75 C 1107.93 865.429 1134.22 822.377 1158.56 779.321 C 1170.58 757.741 1182.94 736.346 1195.62 715.146 C 1199.52 708.511 1208.88 691.652 1213.13 685.823 C 1227.99 659.037 1247.81 624.167 1263.97 598.395 L 1265.68 594.295 C 1264.66 589.116 1217.81 508.935 1212.9 501.481 C 1203.64 524.784 1196.16 549.626 1186.98 573.181 C 1169.42 624.453 1150.32 675.246 1132.39 726.368 C 1113.83 779.734 1094.88 832.961 1075.53 886.045 C 1064.46 917.088 1053.76 948.848 1042.2 979.659 z M 836.446 1053.75 L 932.436 1036.06 C 942.377 1034.22 966.934 1030.68 974.912 1027.33 C 935.599 1028.95 887.592 1027.1 847.435 1027.06 L 623.257 1027.8 C 591.925 1027.84 558.953 1025.58 527.499 1027.54 L 516.069 1027.54 L 478.293 1089.68 C 474.148 1096.46 461.957 1115.18 459.158 1121.61 L 836.446 1053.75 z M 1557.84 1115.3 C 1563.68 1116.47 1569.53 1117.57 1575.39 1118.62 C 1570.37 1109.48 1564.9 1100.62 1559.39 1091.78 C 1546.09 1070.47 1533.91 1048.51 1520.86 1027.06 L 1227.49 1027.77 C 1201.56 1027.84 1175.05 1027.18 1148.94 1027.74 C 1134.29 1028.06 1115.27 1025.89 1100.98 1027.56 C 1096.58 1027.7 1078.34 1027.72 1075.81 1028.88 C 1085.58 1031.06 1096.94 1032.22 1107.17 1034.13 L 1218.58 1053.93 C 1296.42 1067.61 1374.18 1081.71 1451.87 1096.22 C 1486.85 1102.61 1523.03 1108.47 1557.84 1115.3 z M 664.241 1508.64 C 691.81 1507.86 720.638 1508.07 748.244 1508.14 C 773.533 1467.48 800.528 1416.4 824.384 1374.31 L 931.912 1185.54 L 975.253 1107.78 C 983.344 1093.21 990.284 1079.07 999.369 1065.05 L 998.596 1063.95 C 968.44 1106.02 937.077 1146.48 905.944 1187.82 C 827.745 1291.71 748.892 1395.11 669.389 1498.01 C 667.664 1500.27 662.593 1506.3 662.869 1508.62 L 664.241 1508.64 z M 565.113 943.524 C 650.947 959.027 736.885 973.954 822.919 988.306 C 861.145 995.131 899.429 1001.62 937.769 1007.77 C 947.805 1008.86 965.112 1011.84 974.895 1014.18 L 975.764 1013.38 C 970.19 1010.4 947.693 1003.16 940.705 1000.67 C 917.428 992.202 894.201 983.6 871.025 974.861 C 814.37 953.411 755.938 928.712 700.031 905.195 C 673.727 894.131 636.727 879.684 612.236 867.554 C 599.799 887.354 577.961 927.499 565.113 943.524 z M 1442.64 895.995 C 1439.03 890.195 1417.26 852.237 1414.97 850.186 L 1414.07 849.997 C 1372.04 867.516 1322.78 891.261 1281.24 910.589 L 1125.66 981.166 C 1108.96 988.61 1088.55 998.582 1072.02 1005.42 C 1081.87 1003.44 1091.25 1000.54 1100.6 998.605 C 1127.63 990.029 1158.79 982.139 1186.45 974.057 C 1242.2 957.61 1297.86 940.859 1353.43 923.806 L 1409.25 907.101 C 1417.9 904.502 1434.5 899.657 1442.64 895.995 z M 1266.63 1351.87 C 1227.32 1302.11 1190.02 1250.2 1150.96 1200.19 C 1139.53 1185.56 1126.59 1169.4 1116.38 1153.97 C 1100.76 1134.87 1085.89 1112.93 1070.29 1093.55 C 1064.45 1086.3 1057.52 1073.87 1050.89 1068.88 L 1050.46 1069.4 C 1066.81 1093.91 1081.15 1123 1095.86 1148.59 C 1110.49 1174.06 1124.99 1199.28 1139.33 1224.95 L 1298.15 1507.04 C 1324.16 1508.39 1357.04 1508.13 1383.75 1507.99 C 1348.51 1455.41 1303.8 1403.78 1266.63 1351.87 z M 519.674 1020.62 C 534.141 1019.99 553.008 1021.21 568.105 1021.29 L 664.529 1021.5 L 924.25 1021.44 C 940.659 1021.24 963.444 1022.29 978.774 1020.55 C 953.474 1014.81 911.845 1009.42 884.4 1004.71 L 717.492 975.901 L 624.807 960.008 C 605.098 956.588 582.712 953.113 563.241 948.873 C 548.33 972.562 534.902 997.126 519.674 1020.62 z M 1204.16 1506.21 L 1072.33 1163.3 C 1067.58 1151.05 1038.01 1070.58 1032.4 1063.73 C 1038.46 1094.37 1042.81 1128.75 1047.51 1159.88 L 1068.19 1293.98 C 1078.57 1363.35 1092.17 1437.18 1100.9 1506.17 L 1204.16 1506.21 z M 1026.88 1071.49 C 1025.15 1082.59 1027.83 1101.99 1027.85 1114.2 C 1028 1204.83 1027 1295.49 1026.76 1386.12 L 1027.1 1467.8 C 1027.1 1480.87 1027.64 1493.93 1026.89 1506.95 C 1042.38 1505.12 1071.11 1505.97 1087.29 1506.14 C 1090.45 1506.3 1093.22 1506.93 1095.7 1505.28 C 1074.74 1382.31 1058.16 1258.27 1037.93 1135.13 C 1036.48 1126.28 1029.22 1075.95 1026.88 1071.49 z M 827.202 1506.98 C 842.638 1472.97 858.276 1431.95 872.453 1396.91 L 941.633 1225.05 L 981.906 1125.62 C 984.741 1118.52 1000.3 1081.51 999.313 1077.69 C 935.248 1192.48 870.454 1306.86 804.935 1420.83 C 799.086 1431.2 758.265 1500 756.356 1507.43 L 757.853 1508.03 C 780.418 1507.72 804.803 1507.06 827.202 1506.98 z M 1284.83 770.137 C 1274.83 780.834 1235.79 820.319 1225.25 827.862 C 1196.53 856.773 1166.38 887.608 1136.97 915.786 C 1122.39 929.531 1107.98 943.466 1093.76 957.586 C 1087.45 963.77 1075.22 975.293 1070.13 982.043 C 1076.64 976.483 1083.37 972.563 1089.75 967.342 L 1252.01 835.478 L 1324.17 776.892 C 1334.7 768.378 1344.84 758.987 1355.91 751.294 L 1357.5 750.2 C 1350.88 739.777 1344.56 729.174 1338.52 718.403 C 1329.76 727.478 1319.89 735.956 1310.76 744.748 C 1302.09 753.09 1293.67 762.064 1284.83 770.137 z M 1291.46 1506.88 C 1279.94 1488.76 1269.14 1468.32 1258.62 1449.4 L 1216.35 1374.18 L 1098.39 1166.08 C 1092.54 1155.69 1049.46 1077.63 1045.83 1074.82 C 1047.05 1080.26 1049.12 1084.96 1051.03 1090.17 C 1063.74 1124.84 1077.62 1159.03 1090.73 1193.54 L 1210.74 1506.73 C 1229.7 1504.77 1270.23 1506.99 1291.46 1506.88 z M 613.753 862.066 C 637.83 873.543 664.667 883.962 689.261 894.513 C 750.294 920.967 811.918 946.037 874.085 969.705 C 909.107 982.957 945.01 995.152 980.128 1008.06 C 981.718 1008.22 987.433 1009.32 988.054 1009.2 C 985.186 1004.12 687.825 828.197 649.247 803.304 C 643.84 814.879 621.258 851.714 613.753 862.066 z M 1089.91 980.873 C 1189.85 922.668 1289.34 863.693 1388.37 803.954 C 1382.37 794.142 1364.9 762.649 1359.47 756.198 L 1177.23 904.257 C 1142.9 931.973 1098.58 965.753 1065.81 994.344 C 1073.91 989.976 1081.95 985.485 1089.91 980.873 z M 1479.06 957.114 C 1415.19 968.708 1343.26 977.991 1278.4 988.054 L 1160.49 1005.75 C 1132.11 1010.13 1100.84 1015.77 1072.54 1018.89 L 1071.85 1021.88 C 1090.77 1018.31 1106.24 1021.52 1125.3 1021.43 L 1305.65 1021.12 L 1448.5 1020.96 C 1471.57 1020.91 1492.91 1018.73 1516.39 1021.42 C 1508.88 1005.46 1488.83 973.587 1479.06 957.114 z M 993.35 1058.05 L 703.779 1347.01 L 562.297 1488.07 C 557.849 1492.59 542.287 1505 541.521 1509.65 L 543.751 1510.12 C 561.575 1509.94 579.305 1509.42 597.08 1509.2 C 615.325 1508.98 635.224 1509.93 653.414 1508.46 C 710.924 1434.48 767.815 1360.03 824.082 1285.11 C 858.325 1240.45 892.303 1195.59 926.014 1150.53 C 949.065 1119.83 971.774 1090.81 993.479 1059.12 L 993.35 1058.05 z M 1095.27 987.582 C 1167.18 957.004 1239.18 922.612 1310.35 890.151 C 1344.44 874.606 1378.06 860.482 1411.59 843.332 C 1408.91 839.213 1392.93 811.72 1391.25 810.299 C 1367.45 822.234 1337.41 841.95 1313.74 856.023 L 1170.27 941.106 C 1151.95 952.086 1133.56 962.946 1115.1 973.686 C 1109.92 976.686 1087.13 989.466 1083.32 992.82 C 1087.31 991.1 1091.29 989.354 1095.27 987.582 z M 1014.66 1059.73 L 834.27 1505.89 L 835.289 1506.87 C 874.048 1506.74 914.06 1505.86 952.506 1506.13 L 995.442 1198.31 L 1007.35 1113.67 C 1009.24 1100.39 1012.77 1074.32 1015.99 1061.95 C 1015.69 1061.42 1015.03 1060.1 1014.66 1059.73 z M 652.35 798.475 C 664.316 804.806 677.942 813.739 689.813 820.866 L 779.66 875.344 C 817.291 897.622 854.776 920.146 892.112 942.914 C 907.818 952.403 930.262 964.954 945.011 974.858 C 949.078 977.547 952.391 979.824 956.742 982.088 C 938.849 966.945 911.14 948.4 891.433 933.806 C 840.323 896.061 788.833 858.833 736.97 822.128 L 692.247 790.996 C 685.558 786.436 672.333 778.136 666.728 773.639 C 662.127 782.027 657.333 790.308 652.35 798.475 z M 1062.96 1057.79 C 1069.13 1064.18 1076.02 1070.01 1082.42 1076.22 C 1109.19 1102.18 1135.64 1128.63 1162.09 1154.92 L 1379.35 1373.64 L 1470.27 1464.97 C 1484.23 1479 1500.23 1494.15 1513.69 1508.36 C 1541.21 1507.98 1569.69 1508.5 1597.31 1508.72 C 1613.94 1508.85 1638.39 1507.95 1654.3 1508.96 C 1639.25 1496.36 1620.31 1482.43 1604.56 1470.28 L 1510.98 1397.96 C 1409.97 1319.32 1308.49 1241.28 1206.54 1163.86 L 1108.52 1089.83 C 1102.21 1085.11 1069.16 1060.47 1062.96 1057.79 z M 1019.11 1077.55 C 1012.06 1118.88 955.986 1494.41 958.279 1505.62 C 960.059 1506.03 959.986 1506.19 961.75 1506.1 C 981.266 1506.09 1001.5 1506.38 1020.96 1506.03 C 1019.21 1471.15 1020.88 1435.32 1020.89 1400.37 L 1020.54 1219.29 C 1020.6 1203.51 1022.19 1084.65 1019.11 1077.55 z M 456.265 1128.42 C 448.525 1135.91 434.442 1162.31 427.884 1172.5 C 407.785 1203.73 388.111 1241.52 367.467 1271.81 L 367.469 1273.61 L 368.425 1273.62 L 778.563 1111.84 C 815.611 1097.11 852.776 1082.68 890.055 1068.55 L 947.621 1046.33 C 957.999 1042.39 966.71 1039.96 977.291 1035.37 L 977.431 1034.36 L 976.537 1034.32 C 957.874 1038.2 940.222 1040.58 921.57 1043.88 L 801.378 1065.52 L 456.265 1128.42 z M 1578.22 1124.43 C 1537.84 1118.57 1490.16 1108.57 1449.48 1101.2 L 1202.26 1056.89 C 1168.2 1050.46 1134.05 1044.57 1099.81 1039.22 C 1092.99 1038.13 1066.32 1033.6 1060.95 1034.31 C 1070.93 1038.96 1086.49 1044.33 1097.27 1048.31 C 1116.49 1055.32 1135.64 1062.52 1154.71 1069.93 L 1382.2 1158.22 L 1577.47 1234.7 C 1598.13 1243.09 1618.87 1251.27 1639.69 1259.24 C 1644.66 1261.14 1660.98 1267.75 1665.46 1268.65 C 1650.27 1240.21 1629.69 1209.12 1613.28 1180.92 C 1606.62 1169.47 1585.55 1133.18 1578.22 1124.43 z M 1476.31 951.709 C 1471.49 944.781 1447.48 903.872 1445.21 902.257 C 1359.81 928.472 1274.25 954.153 1188.53 979.296 C 1165.01 986.297 1141.45 993.149 1117.84 999.851 C 1104.99 1003.44 1091.06 1006.72 1078.47 1010.63 C 1085.55 1011.59 1099.87 1008 1108.24 1007.82 L 1378.23 967.194 C 1407.69 962.829 1448.8 954.086 1476.31 951.709 z M 798.409 813.086 C 792.785 809.757 776.957 794.1 771.796 789.223 L 725.04 745.366 C 716.045 736.89 707.633 728.147 698.11 720.264 C 688.776 736.743 679.324 753.155 669.754 769.498 C 676.373 772.756 689.73 782.46 696.51 787.134 C 713.8 798.892 730.944 810.865 747.937 823.049 C 806.248 864.579 864.333 906.424 922.191 948.581 C 933.211 956.561 981.06 991.909 989.324 995.668 C 959.591 969.042 929.304 936.765 899.955 909.238 L 834.691 848.095 C 823.821 837.914 807.957 823.898 798.409 813.086 z M 1049.65 1053.44 C 1070.38 1085.66 1099.38 1117.34 1119.73 1148.68 C 1124.8 1153.59 1132.45 1165.1 1137.07 1171.25 L 1172.55 1218.27 L 1234.92 1300.19 C 1246.67 1315.56 1261.06 1333.78 1272.07 1349.75 C 1276.03 1353.15 1295.89 1381.43 1300.22 1386.94 C 1331.52 1426.77 1361.14 1467.97 1392.31 1507.95 C 1429.82 1508.19 1467.34 1508.23 1504.86 1508.09 C 1486.24 1488.03 1462.78 1466.02 1443.21 1446.38 L 1297.03 1299.87 L 1149.9 1152.75 C 1117.33 1120.11 1083.08 1085.12 1049.65 1053.44 z M 1273.08 706.327 C 1241.22 749.081 1202.87 796.112 1169.57 838.477 C 1133.55 884.799 1093.65 933.796 1059.44 980.943 L 1060.11 982.517 L 1058.91 981.796 L 1058.36 983.506 L 1058.91 983.34 L 1058.56 982.382 L 1058.26 983.491 C 1062.59 980.765 1073.23 969.386 1077.52 965.09 L 1114.5 928.08 C 1149.37 893.231 1183.16 860.955 1218.26 826.857 C 1231.75 812.258 1258.32 785.425 1273.7 773.014 C 1276.44 769.673 1289.4 757.398 1293.36 753.462 C 1307.4 739.578 1321.34 725.596 1335.18 711.515 C 1324.99 696.038 1316.39 679.812 1306.27 664.15 C 1297.34 676.349 1282.95 695.124 1273.08 706.327 z M 993.262 1048.09 C 849.598 1154.26 707.202 1262.14 566.104 1371.7 L 439.001 1469.36 C 422.722 1481.76 404.237 1497.72 387.434 1508.99 C 386.59 1510.73 386.609 1510.01 386.671 1511 C 430.55 1508.57 486.712 1510.07 531.376 1510.07 C 538.766 1501.16 550.27 1490.28 558.663 1481.9 L 606.697 1434.11 L 900.765 1140.88 C 925.017 1116.49 949.601 1092.43 974.032 1068.22 C 977.512 1064.77 993.103 1051.28 993.262 1048.09 z M 1268.97 599.298 C 1267.75 605.015 1231.52 668.101 1225.55 676.209 L 1124.91 849.576 C 1115.61 865.641 1058.27 962.403 1056.19 974.494 C 1054.94 975.096 1156.79 844.454 1166.3 832.773 C 1200.01 788.217 1233.91 746.246 1268.42 702.513 C 1280.35 687.502 1292.12 672.368 1303.73 657.115 C 1292.62 642.41 1279.53 615.96 1268.97 599.298 z M 969.676 1055.89 C 949.145 1068.86 926.996 1080.85 905.98 1093.26 L 761.244 1178.4 L 449.319 1362.91 C 398.592 1392.36 348.026 1422.08 297.624 1452.08 C 281.032 1462.13 262.925 1472.6 246.521 1482.99 C 239.209 1487.61 232.966 1501.12 227.591 1508.59 L 228.246 1510.19 C 275.354 1510.09 328.819 1508.91 375.527 1510.41 C 394.109 1497.86 416.337 1479.56 434.504 1465.56 C 470.379 1438.31 506.034 1410.77 541.464 1382.94 L 820.284 1169.36 L 931.581 1085.12 C 938.027 1080.32 967.802 1059.72 970.635 1056.7 L 969.676 1055.89 z M 1071.26 1046.96 C 1153.18 1091.82 1234.32 1138.11 1314.64 1185.79 L 1592.37 1347.34 L 1737.47 1432.11 C 1742.83 1435.22 1772.26 1453.55 1776.46 1454.52 C 1766.85 1440.28 1754.99 1418.57 1745.98 1403.22 L 1704.41 1333.26 C 1694.89 1316.88 1682.25 1293.42 1670.61 1278.39 C 1669.69 1277.2 1665.39 1275.22 1663.83 1274.62 C 1623.31 1259.03 1582.86 1243.11 1542.39 1227.36 L 1265.78 1119.28 L 1132.19 1068.01 C 1122.87 1064.49 1079 1047.04 1071.26 1046.96 z M 1067.38 1052.04 C 1072.26 1057.36 1090.94 1068.33 1098.52 1074.25 C 1136.73 1104.07 1176.75 1132.66 1215.06 1162.24 L 1499.72 1381.35 L 1608.8 1465.29 C 1626.71 1479.2 1645.3 1495.19 1663.52 1508.43 C 1711.45 1507.55 1760.52 1508.11 1808.55 1507.98 C 1800.38 1495.99 1792.6 1480.52 1784.52 1469.35 C 1779.8 1462.84 1759.03 1451.79 1751.07 1447.13 L 1695.99 1415.07 C 1629.37 1375.68 1562.51 1336.7 1495.41 1298.14 L 1193.2 1122.51 C 1161.58 1104.09 1129.76 1086 1097.75 1068.26 C 1093.59 1066 1070.89 1053.34 1067.38 1052.04 z M 977.77 1042.19 L 976.844 1042.59 C 964.527 1047.91 946.245 1053.52 932.787 1058.66 L 816.671 1103.12 L 499.074 1228.18 C 480.252 1235.51 370.432 1276.91 362.417 1283.45 C 355.146 1289.39 259.171 1452.77 250.487 1471.03 L 250.624 1472.58 C 263.495 1465.93 278.508 1456.41 291.289 1448.9 L 381.639 1395.64 C 509.046 1321.22 636.056 1246.11 762.666 1170.34 L 910.536 1083.54 L 956.464 1056.58 C 961.74 1053.44 973.521 1046.84 977.743 1043.25 L 977.77 1042.19 z M 743.659 642.654 C 784.044 699.562 827.549 755.169 868.734 811.57 C 882.381 830.259 897.011 848.096 910.309 867.026 C 934.985 898.591 958.074 931.523 982.513 963.291 C 985.439 967.095 988.292 971.71 991.676 975.041 C 990.897 966.105 943.416 892.175 936.562 876.072 C 933.157 870.983 926.528 858.834 923.157 853.113 C 910.057 830.665 897.174 808.092 884.51 785.395 L 772.767 591.21 C 766.548 604.391 751.441 628.697 743.659 642.654 z M 739.94 648.546 C 728.307 670.022 714.048 693.249 701.547 714.463 C 709.876 722.992 717.42 729.212 725.741 737.192 C 753.771 764.075 783.483 790.156 810.696 817.82 C 823.254 828.629 832.822 838.846 844.431 849.309 C 881.058 882.319 915.467 917.431 951.777 950.658 C 957.366 955.772 991.803 989.747 995.231 991.643 C 993.275 986.964 989.705 983.642 986.743 979.588 C 960.05 943.045 931.76 907.171 905.55 870.325 C 890.216 851.824 873.263 827.772 858.725 808.196 L 782.788 706.3 C 768.483 687.03 754.757 667.399 739.94 648.546 z"/>
<path transform="translate(0,0)" fill="url(#Gradient5)" d="M 295.461 0 L 301.227 0 C 316.49 19.8138 337.946 54.9424 352.122 76.7069 L 434.735 202.108 C 501.77 304.512 571.064 405.42 642.565 504.756 C 671.242 544.613 703.843 591.077 734.026 629.482 C 744.282 611.881 754.382 594.189 764.324 576.409 L 433.394 0 L 441.17 0 C 448.467 16.4936 469.885 50.7567 479.604 67.7152 L 551.128 192.946 L 768.204 570.2 C 787.538 537.056 806.495 503.139 826.098 470.209 C 820.466 458.121 813.862 437.165 809.321 424.05 L 781.321 343.417 L 696.805 102.441 C 685.292 69.6594 673.945 32.1202 661.572 0 L 668.174 0 C 703.836 104.595 740.151 208.966 777.114 313.109 C 794.913 363.263 811.515 414.205 829.985 464.101 C 845.026 437.285 860.205 410.548 875.522 383.889 C 883.301 370.217 894.199 349.655 902.576 336.912 C 901.375 331.105 895.904 301.328 896.133 297.229 C 898.699 291.615 890.169 256.447 889.632 246.316 C 892.153 247.939 897.069 285.93 899.303 293.26 L 901.003 294.048 C 903.161 305.15 905.653 319.106 906.632 330.185 C 925.229 296.616 947.039 260.736 966.549 227.712 C 975.826 212.009 1010.08 148.944 1020.92 140.381 C 1020.43 127.223 1021.28 114.809 1022.08 101.69 C 1025.24 97.7213 1022.31 96.9581 1024.45 91.1538 C 1025.88 97.3719 1025.89 101.799 1027.68 107.591 C 1029.38 148.843 1022.06 139.099 1043.63 176.331 L 1073.78 227.835 C 1094.1 262.543 1116.62 304.463 1137.6 337.931 C 1139.23 325.096 1142.78 308.365 1145.08 295.339 L 1157.09 225.034 L 1195.5 0 L 1200.91 0 C 1198.71 7.92405 1196.93 21.2693 1195.56 29.6886 L 1187.68 77.1595 L 1157.22 255.298 L 1147.28 313.877 C 1145.78 322.747 1143.82 336.767 1141.73 345.189 C 1162.68 386.708 1193.1 432.697 1215.42 474.368 C 1221.96 459.657 1227.96 440.551 1233.58 425.025 L 1272.67 316.114 C 1303.36 232.821 1333.45 149.312 1362.96 65.593 C 1370.72 43.6905 1379.31 21.8932 1386.81 0 L 1393.74 0 C 1388.26 10.7435 1378.09 41.1999 1373.59 53.7551 C 1361.13 89.518 1348.33 125.161 1335.19 160.68 L 1261.86 364.136 C 1247.97 402.808 1232.48 443.321 1219.97 482.362 C 1232.77 506.577 1248.42 530.477 1261.14 554.905 C 1264.3 560.962 1272.82 573.245 1275.05 578.776 L 1275.91 579.732 C 1271.39 578.454 1258.3 554.272 1255.31 548.913 L 1237.58 517.16 C 1234.29 511.38 1233.16 504.103 1224.43 503.927 C 1222.55 505.594 1221.45 506.841 1221.29 509.509 C 1220.93 515.237 1261.33 576.912 1266.61 591.352 C 1267.33 593.329 1267.24 594.965 1266.8 596.976 L 1265.25 598.292 L 1263.97 598.395 L 1265.68 594.295 C 1264.66 589.116 1217.81 508.935 1212.9 501.481 C 1203.64 524.784 1196.16 549.626 1186.98 573.181 L 1185.79 572.843 C 1187.52 562.371 1205.98 521.114 1203.39 515.766 C 1200.69 522.832 1189.11 556.349 1186.47 559.144 C 1192.18 539.031 1201.88 513.864 1208.89 493.298 L 1167.87 421.597 C 1159.47 407.11 1145.22 383.516 1138.5 368.86 C 1135.61 379.374 1134.76 389.897 1132 400.188 L 1131.34 400.1 C 1130.04 396.287 1134.4 385.232 1133.53 378.196 L 1132.32 377.654 C 1131.03 381.065 1129.59 393.861 1129.01 398.219 L 1127.31 398.936 C 1127.17 395.436 1132.49 366.058 1133.41 360.65 L 1069.31 249.701 C 1055.73 226.406 1040.02 201.344 1027.67 177.547 C 1027.58 193.767 1027.14 209.073 1027.42 225.375 C 1027.68 240.381 1029.08 271.098 1026.95 285.43 C 1024.59 291.293 1025.78 298.449 1024.83 305.431 C 1023.17 299.414 1023.4 294.195 1023.3 287.967 L 1022.13 286.306 C 1021.3 276.591 1020.15 260.971 1020.94 251.253 C 1023.28 222.23 1021.13 195.307 1020.05 166.4 C 1005.25 187.121 985.039 225.104 971.691 247.882 C 958.21 270.643 944.876 293.491 931.689 316.423 C 925.389 327.283 916.417 341.737 910.924 352.677 C 912.908 362.598 916.73 382.447 917.464 392.28 L 916.476 393.674 C 915.798 389.564 915.019 381.192 912.498 378.51 L 911.155 378.518 C 911.586 384.115 913.387 386.35 913.387 392.516 L 911.999 392.774 C 910.298 382.616 908.513 370.976 905.745 361.153 C 882.156 399.03 859.672 445.608 836.038 481.698 C 839.604 490.86 853.989 531.254 856.047 540.268 L 854.545 540.001 C 852.198 533.756 845.411 516.796 844.273 511.092 L 843.44 511.061 C 844.318 521.259 864.763 571.959 862.524 575.178 C 856.735 559.887 851.802 543.819 846.348 528.355 C 841.738 515.284 836.607 502.106 832.799 488.825 C 815.813 516.386 800.274 545.027 783.909 572.967 C 781.429 577.2 779.171 581.264 776.429 585.358 C 791.126 609.118 803.67 632.432 817.418 656.528 L 882.288 769.411 L 921.197 836.76 C 925.793 844.681 938.798 865.973 941.743 873.842 C 940.794 880.832 947.854 883.455 947.926 888.76 L 946.474 889.401 C 944.327 885.61 940.597 876.966 936.562 876.072 C 933.157 870.983 926.528 858.834 923.157 853.113 C 910.057 830.665 897.174 808.092 884.51 785.395 L 772.767 591.21 C 766.548 604.391 751.441 628.697 743.659 642.654 C 784.044 699.562 827.549 755.169 868.734 811.57 C 882.381 830.259 897.011 848.096 910.309 867.026 L 906.403 866.068 L 905.319 866.778 L 907.141 869.931 L 905.55 870.325 C 890.216 851.824 873.263 827.772 858.725 808.196 L 782.788 706.3 C 768.483 687.03 754.757 667.399 739.94 648.546 C 728.307 670.022 714.048 693.249 701.547 714.463 C 709.876 722.992 717.42 729.212 725.741 737.192 C 753.771 764.075 783.483 790.156 810.696 817.82 L 809.349 819.391 L 807.429 819.206 C 803.633 815.723 803.079 814.827 798.409 813.086 C 792.785 809.757 776.957 794.1 771.796 789.223 L 725.04 745.366 C 716.045 736.89 707.633 728.147 698.11 720.264 C 688.776 736.743 679.324 753.155 669.754 769.498 C 665.488 765.949 660.833 764.684 657.373 761.16 C 666.378 744.791 677.737 725.896 687.577 710.032 C 673.685 698.585 650.654 675.849 637.735 662.984 C 635.809 657.836 632.219 655.488 628.032 651.691 L 628.555 650.505 C 633.54 652.006 632.409 657.097 639.151 657.189 C 654.711 668.822 674.659 691.039 690.301 704.317 C 703.414 681.16 717.351 659.066 730.473 635.283 C 621.068 488.534 516.278 338.4 416.256 185.102 L 343.622 74.4476 C 328.344 51.2329 309.288 23.5725 295.461 0 z"/>
<path transform="translate(0,0)" fill="rgb(35,33,31)" d="M 1268.42 702.513 L 1269.87 703.162 L 1269.05 704.318 C 1266.21 708.355 1265.43 709.261 1264.17 713.944 C 1267.52 712.898 1267.96 706.69 1273.08 706.327 C 1241.22 749.081 1202.87 796.112 1169.57 838.477 L 1168.12 838.095 C 1170.17 833.269 1176.4 828.633 1179.41 820.593 C 1173 824.571 1173.04 829.967 1166.3 832.773 C 1200.01 788.217 1233.91 746.246 1268.42 702.513 z"/>
<path transform="translate(0,0)" fill="rgb(35,33,31)" d="M 1273.7 773.014 C 1272.62 780.391 1261.44 783.978 1260.05 788.984 C 1265.4 791.397 1276.09 772.093 1284.83 770.137 C 1274.83 780.834 1235.79 820.319 1225.25 827.862 C 1225.99 826.09 1227.55 823.448 1226.75 821.764 C 1223.96 824.093 1221.96 826.461 1218.26 826.857 C 1231.75 812.258 1258.32 785.425 1273.7 773.014 z"/>
<path transform="translate(0,0)" fill="rgb(35,33,31)" d="M 1263.97 598.395 L 1265.25 598.292 C 1261.85 605.406 1256.01 614.001 1254.07 620.366 L 1254.4 621.021 C 1257.49 616.946 1267.37 599.596 1268.97 599.298 C 1267.75 605.015 1231.52 668.101 1225.55 676.209 L 1224.75 674.496 C 1230.04 661.553 1238.19 657.453 1240.22 643.008 C 1236.13 644.656 1218.7 685.084 1213.13 685.823 C 1227.99 659.037 1247.81 624.167 1263.97 598.395 z"/>
<path transform="translate(0,0)" fill="url(#Gradient4)" d="M 1116.38 1153.97 C 1115.88 1151.65 1114.08 1148.03 1113.08 1145.12 C 1115.61 1145.1 1117.13 1146.89 1119.73 1148.68 C 1124.8 1153.59 1132.45 1165.1 1137.07 1171.25 L 1172.55 1218.27 L 1234.92 1300.19 C 1246.67 1315.56 1261.06 1333.78 1272.07 1349.75 C 1269.09 1352.25 1270.79 1351.45 1266.63 1351.87 C 1227.32 1302.11 1190.02 1250.2 1150.96 1200.19 C 1139.53 1185.56 1126.59 1169.4 1116.38 1153.97 z"/>
<path transform="translate(0,0)" fill="rgb(35,33,31)" d="M 988.054 1009.2 C 994.8 1007.81 995.011 1010.45 1001.24 1011.82 C 1005.6 1012.78 1005.72 1011.66 1007.61 1016.09 L 1006.89 1017.71 C 1002.73 1018.94 983.32 1010.89 978.382 1008.7 L 980.128 1008.06 C 981.718 1008.22 987.433 1009.32 988.054 1009.2 z"/>
<path transform="translate(0,0)" fill="rgb(35,33,31)" d="M 1067.42 983.117 L 1067.82 984.204 C 1067.21 987.294 1062.96 991.076 1060.61 993.588 L 1060.37 989.24 C 1061.64 986.075 1064.37 985.003 1067.42 983.117 z"/>
<path transform="translate(0,0)" fill="rgb(76,77,76)" d="M 1071.85 1021.88 C 1067.62 1022.39 1067.03 1022.46 1062.85 1022 L 1062.19 1021.04 C 1064.94 1019.16 1069.05 1019.21 1072.54 1018.89 L 1071.85 1021.88 z"/>
<path transform="translate(0,0)" fill="rgb(35,33,31)" d="M 2048 195.029 L 2048 203.215 C 2038.67 209.291 2024.66 221.045 2015.59 228.226 C 1995.35 244.036 1975.33 260.108 1955.51 276.439 L 1803.09 399.253 C 1660.28 514.796 1513.41 629.442 1372.19 746.586 C 1380.54 760.994 1391.89 782.109 1401.07 795.196 C 1403.84 795.75 1402.58 795.519 1406.14 793.578 L 1407.03 794.619 C 1404.99 797.133 1404.83 796.85 1401.65 797.834 C 1398.5 795.898 1388.4 778.744 1385.89 774.149 C 1381.17 765.537 1370.92 752.925 1372.67 743.284 C 1375.03 739.994 1373.53 741.2 1377.48 739.711 C 1379.7 737.261 1379.74 737.489 1380.48 734.311 C 1376.89 734.636 1373.34 741.482 1369.5 741.91 C 1363.04 736.859 1351.98 716.446 1348.53 708.422 L 1349.24 707.69 C 1354.28 714.454 1364.2 732.442 1368.99 740.571 C 1411.16 705.164 1457.94 668.968 1501.07 634.184 L 1818.87 378.623 C 1871.6 335.98 1924.55 293.608 1977.72 251.507 L 2022.89 214.514 C 2029.66 208.991 2040.94 199.247 2048 195.029 z"/>
<path transform="translate(0,0)" fill="rgb(0,0,0)" d="M 0 65.3479 C 9.16537 71.0513 25.0469 87.3487 33.8174 95.3786 L 114.456 169.839 L 494.754 523.118 L 595.954 616.771 C 601.437 621.802 636.781 653.813 639.151 657.189 C 632.409 657.097 633.54 652.006 628.555 650.505 L 628.032 651.691 C 632.219 655.488 635.809 657.836 637.735 662.984 C 630.451 657.522 624.275 650.633 617.555 644.489 C 564.573 596.052 512.456 546.688 459.654 498.048 L 0 71.3238 L 0 65.3479 z"/>
<path transform="translate(0,0)" fill="rgb(35,33,31)" d="M 1921.54 143.439 C 1924.45 143.763 1925.31 143.618 1927.89 145.018 C 1846.02 225.488 1763.59 305.384 1680.61 384.701 L 1527.64 533.638 C 1478.48 580.87 1430.01 630.543 1380.25 677.113 C 1371.51 685.299 1357.5 701.155 1349.24 707.69 L 1348.53 708.422 L 1347.97 706.598 C 1352.54 700.889 1367.24 689.822 1367.3 684.36 C 1360.25 688.456 1351.97 701.699 1345.87 703.481 C 1345.84 703.46 1335.91 689.679 1335.78 689.065 C 1331.69 669.361 1300.73 653.812 1325.67 639.228 C 1322.65 643.693 1319.68 647.062 1316.21 651.134 C 1326.33 667.905 1336.35 684.74 1346.26 701.637 C 1351.18 695.881 1361.78 686.601 1367.78 680.787 L 1417.3 633.317 C 1438.14 613.645 1458.22 592.652 1478.6 572.523 C 1488.6 562.65 1499.57 553.105 1509.8 543.144 L 1921.54 143.439 z"/>
<path transform="translate(0,0)" fill="url(#Gradient3)" d="M 1820.94 0 L 1828.73 0 L 1377.68 572.836 L 1377.36 564.388 C 1384.71 552.257 1405.49 527.493 1415.18 515.079 C 1443.46 478.808 1471.95 442.707 1500.65 406.777 L 1680.86 177.671 C 1712.22 138.701 1743.29 99.5052 1774.08 60.0866 C 1789.42 40.589 1806.37 19.8196 1820.94 0 z"/>
<path transform="translate(0,0)" fill="url(#Gradient2)" d="M 1612.46 0 L 1618.19 0 C 1611.54 13.8686 1603.1 27.5233 1595.36 40.8998 C 1582 64.0701 1568.52 87.1655 1554.9 110.185 L 1452.65 285.733 L 1341.02 476.849 L 1298.85 550.198 C 1292.38 561.352 1285.33 574.562 1278.4 585.115 C 1280.94 589.495 1286.57 598.64 1288.4 602.871 L 1287.02 603.264 C 1286.48 602.821 1276.53 586.163 1276.62 585.526 C 1277.61 577.78 1285.49 575.673 1284.25 566.568 C 1281.66 571.092 1279.2 575.669 1275.91 579.732 L 1275.05 578.776 L 1612.46 0 z"/>
<path transform="translate(0,0)" fill="rgb(0,0,0)" d="M 845.92 0 L 851.582 0 L 901.003 294.048 L 899.303 293.26 C 897.069 285.93 892.153 247.939 889.632 246.316 C 890.169 256.447 898.699 291.615 896.133 297.229 C 894.357 291.082 892.588 278.632 891.453 271.867 L 883.637 225.233 L 857.506 68.9781 C 854.013 48.3051 850.465 19.6361 845.92 0 z"/>
<path transform="translate(0,0)" fill="url(#Gradient1)" d="M 1993.09 73.7215 C 1996.45 72.9228 1998.16 72.1029 2001.32 73.3726 C 1977.18 96.086 1951.41 121.542 1927.89 145.018 C 1925.31 143.618 1924.45 143.763 1921.54 143.439 C 1945.52 120.04 1968.72 96.7682 1993.09 73.7215 z"/>
<path transform="translate(0,0)" fill="rgb(0,0,0)" d="M 1021.85 0 L 1026.18 0 C 1027.3 12.4247 1026.86 30.7104 1026.91 43.6231 L 1027.68 107.591 C 1025.89 101.799 1025.88 97.3719 1024.45 91.1538 C 1022.31 96.9581 1025.24 97.7213 1022.08 101.69 C 1021.12 100.374 1021.87 7.18361 1021.85 0 z"/>
<path transform="translate(0,0)" fill="rgb(0,0,0)" d="M 2048 19.5251 L 2048 27.2671 L 2015.46 59.6023 C 2013.22 61.8204 2003.18 72.0454 2001.32 73.3726 C 1998.16 72.1029 1996.45 72.9228 1993.09 73.7215 L 2048 19.5251 z"/>
<path transform="translate(0,0)" fill="rgb(35,33,31)" d="M 2016.72 2021.3 C 2018.95 2018.56 2017.6 2019.62 2021.13 2018.29 C 2030.23 2026.97 2039.19 2035.81 2048 2044.8 L 2048 2048 L 2041.43 2048 C 2033.5 2040.69 2024.4 2029.6 2016.72 2021.3 z"/>
</svg>