<svg version="1.1" xmlns="http://www.w3.org/2000/svg" style="display: block;" viewBox="0 0 2048 2048" width="1024" height="1024" preserveAspectRatio="none">
<defs>
	<linearGradient id="Gradient1" gradientUnits="userSpaceOnUse" x1="1193.11" y1="1019.6" x2="896.058" y2="1026.26">
		<stop class="stop0" offset="0" stop-opacity="1" stop-color="rgb(202,123,85)"/>
		<stop class="stop1" offset="1" stop-opacity="1" stop-color="rgb(151,165,136)"/>
	</linearGradient>
	<linearGradient id="Gradient2" gradientUnits="userSpaceOnUse" x1="1319.13" y1="1012.5" x2="912.297" y2="1029.77">
		<stop class="stop0" offset="0" stop-opacity="1" stop-color="rgb(209,116,76)"/>
		<stop class="stop1" offset="1" stop-opacity="1" stop-color="rgb(158,158,128)"/>
	</linearGradient>
</defs>
<path transform="translate(0,0)" fill="rgb(252,252,249)" d="M 0 0 L 2048 0 L 2048 2048 L 0 2048 L 0 0 z"/>
<path transform="translate(0,0)" fill="rgb(252,252,249)" d="M 1029.51 885.245 L 1148.02 885.116 C 1163.16 885.086 1200.64 883.806 1213.88 886.564 C 1225.46 888.944 1236.12 894.612 1244.56 902.89 C 1260.07 918.172 1261.77 934.465 1262.07 954.569 C 1280.04 954.028 1299.57 952.273 1312.3 968.31 C 1322.36 980.972 1321.59 1002.75 1321.09 1018.46 C 1320.41 1039.34 1325.3 1065.99 1309.9 1082.3 C 1296.97 1095.53 1278.67 1094.15 1261.97 1093.94 C 1261.34 1117.51 1257.7 1135.05 1237.89 1150.49 C 1226.12 1159.66 1212.38 1162.55 1197.65 1162.68 C 1175.32 1162.89 1152.9 1162.69 1130.54 1162.68 L 966.566 1162.65 L 965.752 1162.67 C 916.746 1163.44 867.449 1162.26 818.414 1162.74 C 792.62 1163 766.091 1165.26 746.223 1145.79 C 737.459 1137.16 731.352 1126.21 728.624 1114.21 C 725.848 1101.9 726.914 1066.31 726.975 1052.51 C 727.137 1023.42 727.108 994.33 726.889 965.24 C 726.799 941.528 726.793 921.764 744.882 903.37 C 751.933 896.342 765.096 887.804 775.157 886.732 C 802.139 883.858 832.253 885.092 859.406 885.095 L 1029.51 885.245 z"/>
<path transform="translate(0,0)" fill="url(#Gradient2)" d="M 1029.51 885.245 L 1148.02 885.116 C 1163.16 885.086 1200.64 883.806 1213.88 886.564 C 1225.46 888.944 1236.12 894.612 1244.56 902.89 C 1260.07 918.172 1261.77 934.465 1262.07 954.569 C 1280.04 954.028 1299.57 952.273 1312.3 968.31 C 1322.36 980.972 1321.59 1002.75 1321.09 1018.46 C 1320.41 1039.34 1325.3 1065.99 1309.9 1082.3 C 1296.97 1095.53 1278.67 1094.15 1261.97 1093.94 C 1261.34 1117.51 1257.7 1135.05 1237.89 1150.49 C 1226.12 1159.66 1212.38 1162.55 1197.65 1162.68 C 1175.32 1162.89 1152.9 1162.69 1130.54 1162.68 L 966.566 1162.65 C 960.715 1161.07 923.329 1161.62 914.048 1161.43 C 916.853 1159.83 917.852 1161.5 922.788 1160.75 C 926.175 1156.42 921.028 1149.69 921.51 1144.4 C 922.003 1139 923.081 1133.09 923.7 1127.56 C 944.696 1127.23 965.695 1127.11 986.694 1127.2 C 997.026 1127.17 1010.5 1127.75 1020.53 1126.29 C 1081.44 1124.43 1143.48 1127.87 1204.44 1125.8 C 1219.08 1125.3 1225.57 1110.15 1225.37 1097.34 C 1224.54 1045.95 1226.13 994.345 1224.76 943.03 C 1224.64 938.299 1221.71 931.974 1218.33 928.59 C 1214.96 925.232 1210.63 923.003 1205.93 922.211 C 1197.83 920.883 1162.42 921.676 1151.62 921.688 L 1031.53 921.671 C 1025.7 920.54 998.435 920.864 990.958 920.84 C 960.745 920.86 930.531 920.718 900.319 920.413 C 904.52 920.022 911.597 920.364 914.471 918.685 C 915.014 916.417 908.487 907.778 906.759 905.08 C 907.669 899.811 912.079 891.469 909.113 887.196 C 906.654 887.087 905.386 886.981 902.957 886.608 C 910.196 885.634 926.705 886.546 935.044 886.215 C 964.483 885.044 999.184 887.324 1028.18 885.345 L 1029.51 885.245 z"/>
<path transform="translate(0,0)" fill="rgb(252,252,249)" d="M 1261.73 990.976 C 1269.09 990.817 1276.95 991.035 1284.36 991.117 C 1285.77 1008.45 1285.07 1038.95 1284.68 1056.62 C 1278.51 1057.25 1268.18 1056.98 1261.66 1056.99 C 1261.55 1034.99 1261.57 1012.98 1261.73 990.976 z"/>
<path transform="translate(0,0)" fill="rgb(145,167,143)" d="M 966.566 1162.65 L 965.752 1162.67 C 916.746 1163.44 867.449 1162.26 818.414 1162.74 C 792.62 1163 766.091 1165.26 746.223 1145.79 C 737.459 1137.16 731.352 1126.21 728.624 1114.21 C 725.848 1101.9 726.914 1066.31 726.975 1052.51 C 727.137 1023.42 727.108 994.33 726.889 965.24 C 726.799 941.528 726.793 921.764 744.882 903.37 C 751.933 896.342 765.096 887.804 775.157 886.732 C 802.139 883.858 832.253 885.092 859.406 885.095 L 1029.51 885.245 L 1028.18 885.345 C 999.184 887.324 964.483 885.044 935.044 886.215 C 926.705 886.546 910.196 885.634 902.957 886.608 C 905.386 886.981 906.654 887.087 909.113 887.196 C 912.079 891.469 907.669 899.811 906.759 905.08 C 908.487 907.778 915.014 916.417 914.471 918.685 C 911.597 920.364 904.52 920.022 900.319 920.413 C 930.531 920.718 960.745 920.86 990.958 920.84 C 998.435 920.864 1025.7 920.54 1031.53 921.671 L 859.356 921.817 C 842.043 921.841 798.631 920.299 784.213 922.146 C 779.016 922.772 774.188 925.15 770.524 928.887 C 761.866 937.565 762.865 955.291 763.037 966.84 C 763.675 1009.76 763.055 1052.42 763.057 1095.36 C 763.058 1131.62 789.899 1126.38 816.121 1126.47 C 830.764 1126.52 845.584 1126.27 860.185 1126.25 L 1020.53 1126.29 C 1010.5 1127.75 997.026 1127.17 986.694 1127.2 C 965.695 1127.11 944.696 1127.23 923.7 1127.56 C 923.081 1133.09 922.003 1139 921.51 1144.4 C 921.028 1149.69 926.175 1156.42 922.788 1160.75 C 917.852 1161.5 916.853 1159.83 914.048 1161.43 C 923.329 1161.62 960.715 1161.07 966.566 1162.65 z"/>
<path transform="translate(0,0)" fill="url(#Gradient1)" d="M 875.633 953.039 C 936.529 952.077 999.472 952.842 1060.55 952.818 L 1131.54 952.802 C 1144.61 952.803 1158.02 952.651 1171.07 953.024 C 1174.84 953.132 1185.4 954.329 1187.85 956.701 C 1192.8 961.483 1194.34 970.769 1194.31 977.343 C 1194.24 995.6 1193.82 1013.57 1193.83 1031.86 C 1193.85 1046.47 1194.74 1062.03 1193.89 1076.58 C 1193.65 1080.77 1191.31 1088.13 1188.17 1090.94 C 1185.45 1093.38 1174.81 1094.72 1170.85 1094.81 C 1156.18 1095.15 1141.29 1095.01 1126.63 1095.01 L 1041.95 1095.02 L 942.106 1095 C 924.908 1094.99 905.426 1095.47 888.441 1094.84 C 887.983 1094.87 887.526 1094.92 887.067 1094.95 C 874.216 1095.67 860.97 1095.07 848.08 1095.11 C 836.306 1095.15 822.859 1096.43 811.279 1094.48 C 807.272 1093.8 803.563 1092.79 800.547 1089.97 C 795.858 1085.58 795.316 1079.26 795.182 1073.22 C 794.696 1051.17 795.074 1029.02 795.079 1006.95 C 795.082 993.922 793.458 978.384 796.131 965.69 C 796.808 962.472 798.71 959.871 801.012 957.586 C 809.28 949.381 861.947 952.797 875.633 953.039 z"/>
<path transform="translate(0,0)" fill="rgb(145,167,143)" d="M 888.441 1094.84 C 887.983 1094.87 887.526 1094.92 887.067 1094.95 C 874.216 1095.67 860.97 1095.07 848.08 1095.11 C 836.306 1095.15 822.859 1096.43 811.279 1094.48 C 807.272 1093.8 803.563 1092.79 800.547 1089.97 C 795.858 1085.58 795.316 1079.26 795.182 1073.22 C 794.696 1051.17 795.074 1029.02 795.079 1006.95 C 795.082 993.922 793.458 978.384 796.131 965.69 C 796.808 962.472 798.71 959.871 801.012 957.586 C 809.28 949.381 861.947 952.797 875.633 953.039 C 884.495 955.716 896.479 952.508 903.877 955.544 C 901.937 962.034 897.777 967.858 895.595 972.401 C 893.332 977.111 897.823 1001.21 899.201 1006.38 L 902.481 1008.29 C 901.524 1015.36 898.48 1033.82 900.058 1039.9 L 902.258 1041.39 C 904.345 1056.97 905.237 1065.29 898.426 1080.19 C 898.323 1079.91 904.988 1088.46 902.833 1087.54 C 905.398 1088.64 907.707 1089.68 908.347 1092.13 L 909.813 1092.19 L 907.586 1090.26 L 910.053 1092.19 C 905.895 1092.3 906.764 1092.37 903.247 1093.38 C 898.424 1094.77 894.281 1093.58 888.441 1094.84 z"/>
<path transform="translate(0,0)" fill="rgb(200,122,85)" d="M 793.316 1196.48 L 1081.8 1196.56 L 1160.79 1196.48 C 1177.05 1196.44 1195.94 1195.22 1211.81 1197.69 C 1248.53 1203.41 1261.66 1232.11 1262.02 1265 C 1278.45 1264.74 1295.89 1263.24 1308.89 1275.78 C 1325 1291.33 1320.6 1319.49 1321.07 1339.82 C 1321.48 1358.07 1322.89 1380.24 1309.31 1394.09 C 1296.58 1407.08 1278.66 1405.33 1261.97 1405.09 C 1262.12 1430.33 1256.97 1445.89 1237.13 1462.18 C 1228.98 1467.79 1217.87 1472.66 1208.04 1473 C 1180.05 1473.97 1151 1473.51 1122.96 1473.5 L 957.492 1473.49 L 838.484 1473.36 C 819.654 1473.38 795.321 1474.85 776.967 1472.53 C 747.916 1467.36 726.843 1440.54 726.925 1411.66 C 727.043 1369.77 727.235 1330.03 726.899 1288.35 C 726.794 1275.25 725.826 1257.88 728.378 1245.61 C 730.732 1234.07 736.26 1223.42 744.339 1214.85 C 758.709 1199.62 773.724 1196.94 793.316 1196.48 z"/>
<path transform="translate(0,0)" fill="rgb(252,252,249)" d="M 783.371 1233.12 C 810.566 1232.35 840.308 1232.88 867.711 1232.88 L 1019.89 1232.85 L 1136.12 1232.81 C 1157.18 1232.77 1178.22 1232.65 1199.27 1232.88 C 1210.34 1233 1220.85 1237.21 1223.43 1249.11 C 1226.67 1264.01 1225.47 1281.26 1225.4 1296.55 L 1225.25 1359.16 C 1225.27 1376.83 1225.88 1394.69 1225.32 1412.31 C 1224.9 1425.64 1217.1 1433.63 1204.76 1436.91 C 1178.75 1437.57 1151.26 1437.09 1125.08 1437.09 L 979.491 1437.08 L 858.507 1437.16 C 836.174 1437.18 813.658 1437.76 791.34 1437.01 C 786.922 1436.86 782.016 1436.83 778.002 1434.82 C 772.571 1432.1 767.475 1427.51 765.632 1421.61 C 760.589 1405.46 763.328 1329.29 763.328 1307.2 C 763.328 1291.46 762.068 1275.07 763.146 1259.42 C 763.486 1254.48 764.563 1249.51 766.987 1245.15 C 770.681 1238.51 776.331 1235.35 783.371 1233.12 z"/>
<path transform="translate(0,0)" fill="rgb(200,122,85)" d="M 807.86 1264.21 C 836.23 1263.16 869.764 1263.95 898.539 1263.95 L 1066.75 1263.92 L 1144.41 1263.9 C 1156.03 1263.89 1170.07 1262.27 1181.33 1264.56 C 1185.13 1265.34 1188.97 1268.08 1190.98 1271.39 C 1193.09 1274.87 1193.62 1280.72 1193.92 1284.68 C 1194.76 1295.95 1195.3 1387.09 1192.68 1394.49 C 1190.71 1400.05 1186.51 1402.78 1181.49 1405.35 C 1171.93 1406.69 1138.78 1406.03 1127.76 1406.02 L 1020.06 1406 L 869.466 1406.07 C 849.568 1406.07 829.183 1406.58 809.415 1405.43 C 799.784 1404.87 795.316 1391.76 795.133 1383.88 C 794.492 1356.27 795.781 1328.65 794.995 1301.05 C 794.771 1293.17 794.172 1284.81 796.293 1277.17 C 798.274 1269.98 801.673 1267.71 807.86 1264.21 z"/>
<path transform="translate(0,0)" fill="rgb(252,252,249)" d="M 1263.92 1301.47 C 1270.59 1301.29 1277.19 1301.6 1283.86 1301.83 C 1285.08 1312.93 1286.27 1358.45 1283.53 1368.08 C 1276.52 1368.3 1268.85 1368.15 1261.78 1368.15 C 1261.73 1355.12 1260.8 1312.33 1262.21 1302.59 L 1263.92 1301.47 z"/>
<path transform="translate(0,0)" fill="rgb(145,167,143)" d="M 777.85 575.235 C 781.391 574.953 784.939 574.764 788.49 574.669 C 818.563 573.846 852.286 574.56 882.58 574.561 L 1062.23 574.599 L 1159.4 574.574 C 1172.92 574.574 1186.57 574.427 1200.08 574.708 C 1242.91 575.596 1261.73 603.063 1262.08 642.965 C 1278.37 642.74 1296.56 641.232 1309.41 653.874 C 1326.87 671.043 1319.66 704.81 1321.11 727.057 C 1322.13 742.537 1320.48 760.722 1309.26 771.873 C 1296.29 784.759 1278.72 783.359 1261.89 783.243 C 1261.2 803.034 1260.98 811.006 1249.69 827.759 C 1241.73 837.004 1229.07 847.467 1216.99 849.333 C 1195.68 852.627 1167.91 851.229 1146.17 851.184 L 1031.22 851.231 L 865.837 851.209 C 843.321 851.209 802.904 852.582 781.956 850.869 C 772.517 850.18 763.402 847.134 755.445 842.012 C 724.034 821.873 726.898 793.195 726.931 760.626 L 727.007 698.137 C 727.027 682.241 725.879 641.674 727.647 628.213 C 728.813 618.665 732.157 609.513 737.421 601.463 C 747.266 586.567 760.428 578.707 777.85 575.235 z"/>
<path transform="translate(0,0)" fill="rgb(252,252,249)" d="M 782.135 611.254 C 798.931 610.179 824.855 610.914 842.171 610.912 L 957.253 610.922 L 1114.17 610.858 C 1142.62 610.85 1171.06 610.719 1199.52 611.073 C 1217.37 610.693 1225.11 620.978 1225.24 638.493 C 1225.55 688.832 1224.84 739.199 1225.48 789.538 C 1225.66 803.002 1218.37 810.989 1206.03 814.642 C 1186.46 815.812 1158.97 815.026 1138.96 815.023 L 1015.99 814.988 L 868.296 815.047 C 842.19 815.062 816.103 815.193 789.998 814.845 C 771.863 815.002 763.44 803.911 763.234 786.241 C 762.737 741.445 763.769 696.572 763.067 651.779 C 762.775 633.192 761.278 618.254 782.135 611.254 z"/>
<path transform="translate(0,0)" fill="rgb(145,167,143)" d="M 810.093 642.259 C 830.556 641.298 855.173 641.923 876.035 641.926 L 993.683 641.955 L 1113.91 641.93 C 1134.48 641.927 1155.08 641.838 1175.64 642.07 C 1180.95 642.13 1186.78 643.677 1190.01 648.085 C 1192.54 651.54 1193.98 659.247 1194.02 663.399 C 1194.33 691.561 1193.37 719.745 1194.01 747.906 C 1194.35 762.981 1197.31 777.956 1180.08 784.014 L 939.616 783.993 C 897.827 784.003 856.016 784.375 814.239 783.888 C 805.915 783.959 798.364 780.28 796.638 771.455 C 794.644 761.261 794.974 751 795.033 740.548 C 795.189 713.175 794.665 685.582 795.493 658.229 C 795.775 648.888 801.937 644.326 810.093 642.259 z"/>
<path transform="translate(0,0)" fill="rgb(252,252,249)" d="M 1261.66 679.904 C 1269.78 679.633 1276.18 679.752 1284.32 680.091 C 1285.66 692.449 1285.24 733.111 1284.5 746.085 C 1276.94 746.67 1269.36 746.428 1261.77 746.318 C 1261.54 724.181 1261.5 702.042 1261.66 679.904 z"/>
</svg>